<?xml version="1.0" encoding="UTF-8"?>
<!DOCTYPE svg PUBLIC "-//W3C//DTD SVG 1.1//EN" "http://www.w3.org/Graphics/SVG/1.1/DTD/svg11.dtd">
<!-- Creator: CorelDRAW X8 -->
<svg xmlns="http://www.w3.org/2000/svg" xml:space="preserve" width="4.89437in" height="2.97738in" version="1.1" style="shape-rendering:geometricPrecision; text-rendering:geometricPrecision; image-rendering:optimizeQuality; fill-rule:evenodd; clip-rule:evenodd"
viewBox="0 0 5461 3322"
 xmlns:xlink="http://www.w3.org/1999/xlink">
 <defs>
  <style type="text/css">
   <![CDATA[
    .str0 {stroke:white;stroke-width:61.9819;stroke-linecap:round;stroke-linejoin:round}
    .fil18 {fill:none}
    .fil19 {fill:black}
    .fil33 {fill:#1B1F25}
    .fil31 {fill:#222429}
    .fil29 {fill:#313439}
    .fil20 {fill:#4D5259}
    .fil30 {fill:#526865}
    .fil27 {fill:#5A2E25}
    .fil28 {fill:#7F3C2C}
    .fil22 {fill:#883D2A}
    .fil26 {fill:#883D2A}
    .fil35 {fill:#949FA3}
    .fil24 {fill:#A0B3BA}
    .fil32 {fill:#A1553F}
    .fil21 {fill:#AF6351}
    .fil23 {fill:#B1C4CB}
    .fil9 {fill:black;fill-rule:nonzero}
    .fil5 {fill:#373735;fill-rule:nonzero}
    .fil11 {fill:#4D4D4D;fill-rule:nonzero}
    .fil34 {fill:#526865;fill-rule:nonzero}
    .fil4 {fill:#868682;fill-rule:nonzero}
    .fil25 {fill:#883D2A;fill-rule:nonzero}
    .fil17 {fill:#8B1813;fill-rule:nonzero}
    .fil0 {fill:#A0553F;fill-rule:nonzero}
    .fil15 {fill:#C5C5C5;fill-rule:nonzero}
    .fil3 {fill:#CECECE;fill-rule:nonzero}
    .fil13 {fill:#D32A19;fill-rule:nonzero}
    .fil10 {fill:#E0CD1A;fill-rule:nonzero}
    .fil2 {fill:#EBEBEB;fill-rule:nonzero}
    .fil12 {fill:#F33A1B;fill-rule:nonzero}
    .fil7 {fill:#FBED20;fill-rule:nonzero}
    .fil14 {fill:white;fill-rule:nonzero}
    .fil1 {fill:white;fill-rule:nonzero}
    .fil16 {fill:white;fill-rule:nonzero;fill-opacity:0.341176}
    .fil8 {fill:white;fill-rule:nonzero;fill-opacity:0.360784}
    .fil6 {fill:white;fill-rule:nonzero;fill-opacity:0.549020}
   ]]>
  </style>
 </defs>
 <g id="Layer_x0020_1">
  <metadata id="CorelCorpID_0Corel-Layer"/>
  <g id="_1640730017840">
   <g>
    <path class="fil0" d="M534 3208l-11 111 -45 0 -24 -208 32 0 18 164 16 -164 31 0 16 165 17 -165 29 0 -23 208 -44 0 -12 -111zm125 63c0,8 2,13 5,16 3,3 7,5 12,5 5,0 10,-2 13,-5 3,-3 4,-8 4,-16l0 -112c0,-8 -1,-13 -4,-16 -3,-3 -8,-5 -13,-5 -5,0 -9,2 -12,5 -3,3 -5,8 -5,16l0 112zm-32 -110c0,-17 4,-30 12,-39 9,-9 21,-13 37,-13 16,0 29,4 37,13 9,9 13,22 13,39l0 108c0,17 -4,30 -13,39 -8,9 -21,14 -37,14 -16,0 -28,-5 -37,-14 -8,-9 -12,-22 -12,-39l0 -108zm188 158c0,-1 0,-3 -1,-4 0,-1 -1,-2 -1,-4 0,-2 0,-4 0,-7 0,-3 -1,-6 -1,-10l0 -33c0,-10 -1,-17 -5,-21 -3,-4 -8,-6 -16,-6l-11 0 0 85 -33 0 0 -208 49 0c17,0 30,4 37,12 8,8 12,20 12,36l0 16c0,22 -7,36 -22,42 9,4 14,9 18,17 3,8 4,17 4,28l0 32c0,5 0,10 1,13 0,4 1,8 3,12l-34 0zm-35 -178l0 64 13 0c6,0 10,-2 14,-5 3,-3 5,-9 5,-17l0 -21c0,-7 -1,-13 -4,-16 -3,-4 -7,-5 -12,-5l-16 0zm135 -30c16,0 28,4 36,13 8,9 12,22 12,38l0 27c0,17 -4,30 -12,39 -8,9 -20,13 -36,13l-16 0 0 78 -32 0 0 -208 48 0zm-16 30l0 70 16 0c5,0 9,-1 12,-4 2,-3 4,-8 4,-15l0 -32c0,-7 -2,-12 -4,-15 -3,-3 -7,-4 -12,-4l-16 0zm81 -30l33 0 0 178 54 0 0 30 -87 0 0 -208zm134 88l45 0 0 29 -45 0 0 61 56 0 0 30 -89 0 0 -208 89 0 0 30 -56 0 0 58zm72 -38c0,-17 4,-30 12,-39 8,-9 20,-13 36,-13 16,0 28,4 36,13 9,9 13,22 13,39l0 6 -31 0 0 -8c0,-8 -2,-13 -5,-16 -3,-3 -7,-5 -12,-5 -5,0 -9,2 -12,5 -3,3 -4,8 -4,16 0,7 1,13 5,19 3,5 7,10 12,15 4,5 9,10 15,15 5,5 10,10 15,16 5,5 9,12 12,19 3,8 5,16 5,26 0,17 -4,30 -13,39 -8,9 -20,14 -36,14 -16,0 -28,-5 -36,-14 -9,-9 -13,-22 -13,-39l0 -13 31 0 0 15c0,8 2,13 5,16 3,3 7,4 12,4 5,0 9,-1 13,-4 3,-3 4,-8 4,-16 0,-7 -1,-13 -5,-19 -3,-5 -7,-10 -12,-15 -4,-5 -9,-10 -15,-15 -5,-5 -10,-10 -15,-16 -5,-5 -9,-12 -12,-19 -3,-8 -5,-16 -5,-26zm116 -50l51 0c17,0 29,4 37,13 8,9 12,22 12,38l0 106c0,17 -4,29 -12,38 -8,9 -20,13 -37,13l-51 0 0 -208zm32 30l0 148 19 0c5,0 9,-1 12,-4 3,-3 4,-8 4,-16l0 -108c0,-8 -1,-13 -4,-16 -3,-3 -7,-4 -12,-4l-19 0zm119 130c0,8 1,13 5,16 3,3 7,5 12,5 5,0 9,-2 12,-5 3,-3 5,-8 5,-16l0 -112c0,-8 -2,-13 -5,-16 -3,-3 -7,-5 -12,-5 -5,0 -9,2 -12,5 -4,3 -5,8 -5,16l0 112zm-33 -110c0,-17 4,-30 13,-39 9,-9 21,-13 37,-13 16,0 28,4 37,13 8,9 13,22 13,39l0 108c0,17 -5,30 -13,39 -9,9 -21,14 -37,14 -16,0 -28,-5 -37,-14 -9,-9 -13,-22 -13,-39l0 -108zm150 7l0 151 -30 0 0 -208 41 0 34 125 0 -125 29 0 0 208 -34 0 -40 -151zm213 91l22 -148 46 0 0 208 -31 0 0 -149 -23 149 -31 0 -24 -147 0 147 -29 0 0 -208 46 0 24 148zm124 -60l45 0 0 29 -45 0 0 61 57 0 0 30 -89 0 0 -208 89 0 0 30 -57 0 0 58zm146 60l23 -148 45 0 0 208 -31 0 0 -149 -23 149 -30 0 -25 -147 0 147 -28 0 0 -208 45 0 24 148zm122 12c0,8 1,13 4,16 4,3 8,5 13,5 5,0 9,-2 12,-5 3,-3 5,-8 5,-16l0 -112c0,-8 -2,-13 -5,-16 -3,-3 -7,-5 -12,-5 -5,0 -9,2 -13,5 -3,3 -4,8 -4,16l0 112zm-33 -110c0,-17 4,-30 13,-39 8,-9 21,-13 37,-13 16,0 28,4 37,13 8,9 12,22 12,39l0 108c0,17 -4,30 -12,39 -9,9 -21,14 -37,14 -16,0 -29,-5 -37,-14 -9,-9 -13,-22 -13,-39l0 -108zm189 158c0,-1 -1,-3 -1,-4 -1,-1 -1,-2 -1,-4 -1,-2 -1,-4 -1,-7 0,-3 0,-6 0,-10l0 -33c0,-10 -2,-17 -5,-21 -3,-4 -9,-6 -16,-6l-12 0 0 85 -32 0 0 -208 49 0c17,0 29,4 37,12 8,8 11,20 11,36l0 16c0,22 -7,36 -21,42 8,4 14,9 17,17 3,8 5,17 5,28l0 32c0,5 0,10 0,13 1,4 2,8 3,12l-33 0zm-36 -178l0 64 13 0c6,0 11,-2 14,-5 4,-3 6,-9 6,-17l0 -21c0,-7 -2,-13 -4,-16 -3,-4 -7,-5 -13,-5l-16 0zm87 -30l33 0 0 208 -33 0 0 -208zm162 208l-33 0 -5 -38 -40 0 -6 38 -30 0 33 -208 48 0 33 208zm-74 -66l31 0 -15 -105 -16 105zm90 -142l32 0 0 178 54 0 0 30 -86 0 0 -208zm179 208l-33 0 0 -208 33 0 0 89 37 0 0 -89 34 0 0 208 -34 0 0 -89 -37 0 0 89zm200 0l-33 0 -5 -38 -41 0 -5 38 -30 0 33 -208 48 0 33 208zm-74 -66l31 0 -16 -105 -15 105zm89 -142l33 0 0 178 54 0 0 30 -87 0 0 -208zm101 0l33 0 0 178 54 0 0 30 -87 0 0 -208zm147 142c0,-11 2,-20 6,-27 3,-8 9,-13 17,-17 -15,-6 -23,-20 -23,-43l0 -4c0,-16 4,-29 12,-38 8,-9 21,-13 37,-13l38 0 0 30 -37 0c-5,0 -9,1 -12,4 -3,3 -5,8 -5,16l0 13c0,8 2,14 5,17 4,3 9,5 15,5l14 0 0 -23 33 0 0 23 8 0 0 29 -8 0 0 69c0,5 0,10 0,13 1,4 2,8 3,12l-33 0c-1,-2 -1,-4 -2,-6 0,-2 -1,-6 -1,-10 -6,12 -16,19 -30,19 -12,0 -21,-5 -28,-13 -6,-8 -9,-20 -9,-35l0 -21zm33 18c0,8 2,13 5,16 3,3 7,5 12,5 5,0 9,-2 12,-4 3,-3 5,-8 5,-14l0 -49 -12 0c-8,0 -13,2 -17,6 -3,4 -5,11 -5,21l0 19zm205 48c-1,-1 -1,-3 -2,-4 0,-1 0,-2 -1,-4 0,-2 0,-4 0,-7 0,-3 0,-6 0,-10l0 -33c0,-10 -2,-17 -5,-21 -4,-4 -9,-6 -17,-6l-11 0 0 85 -33 0 0 -208 50 0c17,0 29,4 37,12 7,8 11,20 11,36l0 16c0,22 -7,36 -21,42 8,4 14,9 17,17 3,8 4,17 4,28l0 32c0,5 1,10 1,13 0,4 1,8 3,12l-33 0zm-36 -178l0 64 13 0c6,0 11,-2 14,-5 4,-3 5,-9 5,-17l0 -21c0,-7 -1,-13 -4,-16 -2,-4 -6,-5 -12,-5l-16 0zm120 58l44 0 0 29 -44 0 0 61 56 0 0 30 -89 0 0 -208 89 0 0 30 -56 0 0 58zm171 43l0 27c0,17 -4,30 -12,39 -8,9 -21,14 -37,14 -16,0 -28,-5 -36,-14 -8,-9 -12,-22 -12,-39l0 -108c0,-17 4,-30 12,-39 8,-9 20,-13 36,-13 16,0 29,4 37,13 8,9 12,22 12,39l0 20 -31 0 0 -22c0,-8 -1,-13 -4,-16 -4,-3 -8,-5 -13,-5 -5,0 -9,2 -12,5 -3,3 -5,8 -5,16l0 112c0,8 2,13 5,16 3,3 7,4 12,4 5,0 9,-1 13,-4 3,-3 4,-8 4,-16l0 -29 31 0zm88 77c0,-1 0,-3 -1,-4 0,-1 -1,-2 -1,-4 0,-2 0,-4 0,-7 -1,-3 -1,-6 -1,-10l0 -33c0,-10 -1,-17 -5,-21 -3,-4 -8,-6 -16,-6l-11 0 0 85 -33 0 0 -208 49 0c17,0 30,4 37,12 8,8 12,20 12,36l0 16c0,22 -7,36 -22,42 9,4 14,9 18,17 3,8 4,17 4,28l0 32c0,5 0,10 1,13 0,4 1,8 3,12l-34 0zm-35 -178l0 64 13 0c6,0 10,-2 14,-5 3,-3 5,-9 5,-17l0 -21c0,-7 -1,-13 -4,-16 -3,-4 -7,-5 -13,-5l-15 0zm119 58l45 0 0 29 -45 0 0 61 57 0 0 30 -89 0 0 -208 89 0 0 30 -57 0 0 58zm183 120l-33 0 -6 -38 -40 0 -6 38 -30 0 34 -208 48 0 33 208zm-75 -66l32 0 -16 -105 -16 105zm80 -142l102 0 0 30 -35 0 0 178 -32 0 0 -178 -35 0 0 -30zm116 0l33 0 0 208 -33 0 0 -208zm86 160c0,8 2,13 5,16 3,3 7,5 12,5 5,0 10,-2 13,-5 3,-3 4,-8 4,-16l0 -112c0,-8 -1,-13 -4,-16 -3,-3 -8,-5 -13,-5 -5,0 -9,2 -12,5 -3,3 -5,8 -5,16l0 112zm-32 -110c0,-17 4,-30 12,-39 9,-9 21,-13 37,-13 16,0 29,4 37,13 9,9 13,22 13,39l0 108c0,17 -4,30 -13,39 -8,9 -21,14 -37,14 -16,0 -28,-5 -37,-14 -8,-9 -12,-22 -12,-39l0 -108zm149 7l0 151 -29 0 0 -208 41 0 33 125 0 -125 30 0 0 208 -34 0 -41 -151zm193 35l46 0 0 66c0,17 -4,30 -12,39 -9,9 -21,14 -37,14 -16,0 -28,-5 -36,-14 -8,-9 -13,-22 -13,-39l0 -108c0,-17 5,-30 13,-39 8,-9 20,-13 36,-13 16,0 28,4 37,13 8,9 12,22 12,39l0 20 -31 0 0 -22c0,-8 -1,-13 -5,-16 -3,-3 -7,-5 -12,-5 -5,0 -9,2 -12,5 -3,3 -5,8 -5,16l0 112c0,8 2,13 5,16 3,3 7,4 12,4 5,0 9,-1 12,-4 4,-3 5,-8 5,-16l0 -38 -15 0 0 -30zm135 116c0,-1 0,-3 -1,-4 0,-1 0,-2 -1,-4 0,-2 0,-4 0,-7 0,-3 -1,-6 -1,-10l0 -33c0,-10 -1,-17 -5,-21 -3,-4 -8,-6 -16,-6l-11 0 0 85 -33 0 0 -208 49 0c17,0 30,4 37,12 8,8 12,20 12,36l0 16c0,22 -7,36 -22,42 9,4 15,9 18,17 3,8 4,17 4,28l0 32c0,5 0,10 1,13 0,4 1,8 3,12l-34 0zm-35 -178l0 64 13 0c6,0 11,-2 14,-5 3,-3 5,-9 5,-17l0 -21c0,-7 -1,-13 -4,-16 -3,-4 -7,-5 -12,-5l-16 0zm117 130c0,8 1,13 4,16 3,3 7,5 13,5 5,0 9,-2 12,-5 3,-3 5,-8 5,-16l0 -112c0,-8 -2,-13 -5,-16 -3,-3 -7,-5 -12,-5 -6,0 -10,2 -13,5 -3,3 -4,8 -4,16l0 112zm-33 -110c0,-17 4,-30 13,-39 8,-9 21,-13 37,-13 16,0 28,4 36,13 9,9 13,22 13,39l0 108c0,17 -4,30 -13,39 -8,9 -20,14 -36,14 -16,0 -29,-5 -37,-14 -9,-9 -13,-22 -13,-39l0 -108zm152 -50l0 161c0,7 1,12 4,15 3,3 7,5 13,5 5,0 9,-2 12,-5 3,-3 4,-8 4,-15l0 -161 31 0 0 158c0,17 -4,30 -12,39 -8,9 -20,14 -36,14 -16,0 -29,-5 -37,-14 -8,-9 -12,-22 -12,-39l0 -158 33 0zm116 57l0 151 -30 0 0 -208 41 0 34 125 0 -125 29 0 0 208 -33 0 -41 -151zm98 -57l51 0c17,0 29,4 37,13 8,9 12,22 12,38l0 106c0,17 -4,29 -12,38 -8,9 -20,13 -37,13l-51 0 0 -208zm32 30l0 148 19 0c5,0 9,-1 12,-4 3,-3 4,-8 4,-16l0 -108c0,-8 -1,-13 -4,-16 -3,-3 -7,-4 -12,-4l-19 0z"/>
   </g>
   <g>
    <polygon class="fil1" points="906,2947 556,2947 128,1919 455,1919 719,2602 724,2602 957,1919 1303,1919 1533,2602 1803,1919 2130,1919 1702,2947 1353,2947 1130,2227 "/>
    <polygon class="fil1" points="3097,2947 2881,2947 2502,2199 2498,2199 2498,2947 2200,2947 2200,1919 2701,1919 2985,2518 2989,2523 3274,1919 3774,1919 3774,2947 3477,2947 3477,2199 3472,2199 "/>
    <polygon class="fil1" points="4209,2564 4209,2947 3888,2947 3888,1919 4209,1919 4209,2289 4894,2289 4894,1919 5215,1919 5215,2947 4894,2947 4894,2564 "/>
   </g>
   <g>
    <path class="fil1" d="M4826 2433c0,151 -123,274 -274,274 -152,0 -275,-123 -275,-274 0,-152 123,-274 275,-274 151,0 274,122 274,274z"/>
   </g>
   <path class="fil1" d="M3261 2434c0,151 -123,274 -274,274 -152,0 -274,-123 -274,-274 0,-152 122,-274 274,-274 151,0 274,122 274,274z"/>
   <path class="fil1" d="M1403 2433c0,151 -123,274 -274,274 -152,0 -274,-123 -274,-274 0,-152 122,-274 274,-274 151,0 274,122 274,274z"/>
   <g>
    <g>
     <path class="fil2" d="M1368 2433c0,130 -106,236 -236,236 -131,0 -236,-106 -236,-236 0,-130 105,-236 236,-236 130,0 236,106 236,236z"/>
    </g>
    <g>
     <path class="fil3" d="M1254 2234c35,41 55,94 55,152 0,130 -105,236 -235,236 -45,0 -87,-13 -123,-35 43,52 108,85 181,85 130,0 236,-106 236,-236 0,-86 -46,-160 -114,-202z"/>
    </g>
    <g>
     <g>
      <path class="fil4" d="M1121 2659l0 -3c0,0 10,-1 21,-11 11,-9 26,-28 34,-66 17,-81 -4,-145 -4,-145l2 -1c1,0 22,65 4,147 -8,38 -23,58 -34,67 -12,11 -23,12 -23,12z"/>
     </g>
    </g>
    <g>
     <g>
      <path class="fil4" d="M1352 2481c-29,-72 -78,-106 -114,-122 -39,-17 -71,-16 -71,-16l0 -3c0,0 33,0 72,17 23,10 44,24 62,41 23,22 41,50 53,82l-2 1z"/>
     </g>
    </g>
    <g>
     <g>
      <path class="fil4" d="M1172 2335l-3 -2c10,-14 27,-41 42,-67 10,-17 20,-32 27,-44l2 2c-7,11 -16,27 -26,44 -16,26 -32,53 -42,67z"/>
     </g>
    </g>
    <g>
     <g>
      <path class="fil4" d="M1157 2338c0,-1 -15,-27 -45,-50 -28,-21 -74,-43 -139,-28l0 -3c28,-7 56,-7 82,0 21,5 41,15 59,29 30,23 45,50 45,50l-2 2z"/>
     </g>
    </g>
    <g>
     <g>
      <path class="fil4" d="M933 2559l-3 -1c33,-167 158,-179 211,-184 6,-1 11,-1 15,-2l0 3c-4,0 -9,1 -15,1 -52,5 -175,17 -208,183z"/>
     </g>
    </g>
    <g>
     <polygon class="fil5" points="1213,2268 1103,2279 1080,2387 1176,2442 1257,2369 "/>
    </g>
    <g>
     <path class="fil5" d="M943 2291l63 -37 0 -21c-23,15 -47,37 -63,58z"/>
    </g>
    <g>
     <path class="fil5" d="M1197 2206l34 31 47 11c0,0 -19,-16 -31,-23 -21,-12 -50,-19 -50,-19z"/>
    </g>
    <g>
     <g>
      <path class="fil4" d="M1107 2635c-67,0 -128,-61 -140,-76l2 -1c12,15 72,74 138,74l0 3z"/>
     </g>
    </g>
    <g>
     <g>
      <path class="fil4" d="M1255 2614l-2 -2c28,-18 48,-43 63,-72l2 1c-14,30 -35,55 -63,73z"/>
     </g>
    </g>
    <g>
     <g>
      <path class="fil4" d="M1355 2431l-3 -1c6,-24 0,-61 -16,-101 -13,-33 -36,-61 -43,-68 9,8 32,33 46,67 16,40 22,78 16,103z"/>
     </g>
    </g>
    <g>
     <g>
      <path class="fil4" d="M912 2449c-9,-47 0,-119 29,-155 -13,16 -22,43 -27,73 -4,28 -4,58 1,82l-3 0z"/>
     </g>
    </g>
    <g>
     <path class="fil5" d="M944 2579l45 -1 -11 -129 -68 -19 -14 19c0,45 22,104 48,130z"/>
    </g>
    <g>
     <path class="fil5" d="M1075 2628l26 39c10,1 20,2 31,2 42,0 83,-11 117,-31l15 -32 -85 -47 -104 69z"/>
    </g>
    <g>
     <path class="fil5" d="M1307 2559l24 0c23,-36 37,-80 37,-126 0,-1 0,-12 0,-13l-12 -10 -36 9 -13 140z"/>
    </g>
    <g>
     <path class="fil6" d="M1001 2281c-21,23 -35,53 -34,84 1,17 6,34 17,45 12,12 32,17 46,9 9,-5 15,-14 19,-22 10,-18 18,-36 31,-51 20,-22 50,-32 68,-54 8,-10 14,-22 9,-34 -9,-22 -56,-26 -76,-23 -29,4 -61,25 -80,46z"/>
    </g>
   </g>
   <g>
    <g>
     <path class="fil7" d="M3208 2428c0,122 -99,221 -221,221 -122,0 -221,-99 -221,-221 0,-122 99,-220 221,-220 122,0 221,98 221,220z"/>
    </g>
    <g>
     <path class="fil8" d="M2857 2272c-23,21 -38,50 -39,80 -1,16 3,33 14,46 10,12 29,18 44,11 8,-4 15,-12 20,-20 11,-17 20,-34 34,-48 20,-20 51,-28 70,-48 8,-9 15,-21 11,-33 -7,-22 -53,-29 -73,-28 -29,2 -61,21 -81,40z"/>
    </g>
    <g>
     <g>
      <path class="fil9" d="M2946 2565c-11,0 -21,-1 -32,-3 -25,-4 -49,-14 -69,-27 -22,-15 -37,-35 -44,-57 -18,-58 19,-120 48,-170 17,-29 37,-63 27,-71 0,0 19,-11 20,-10 6,4 7,23 1,39 -6,16 -16,33 -28,54 -27,46 -61,103 -46,151 10,34 48,60 95,69 44,7 83,-3 100,-26 25,-34 25,-75 25,-119 0,-25 0,-51 5,-75 7,-32 28,-52 61,-58 7,-2 19,-1 25,0 7,2 19,21 19,21 0,0 -21,-3 -40,1 -24,5 -38,19 -42,40 -5,23 -5,46 -5,71 0,45 0,92 -30,133 -11,15 -30,27 -53,33 -12,2 -24,4 -37,4z"/>
     </g>
    </g>
    <g>
     <path class="fil10" d="M3102 2240c32,38 51,88 51,142 0,121 -99,220 -221,220 -42,0 -81,-11 -114,-32 40,49 101,79 169,79 122,0 221,-99 221,-221 0,-79 -43,-149 -106,-188z"/>
    </g>
    <g>
     <path class="fil11" d="M3130 2283c12,-1 23,0 23,0 -7,-7 -14,-14 -22,-21 -3,-1 -9,-1 -14,-1 5,7 9,14 13,22z"/>
    </g>
   </g>
   <g>
    <path class="fil12" d="M4779 2434c0,125 -101,226 -226,226 -126,0 -227,-101 -227,-226 0,-125 101,-227 227,-227 125,0 226,102 226,227z"/>
   </g>
   <g>
    <g>
     <g>
      <path class="fil13" d="M4482 2228c-2,0 -3,-1 -4,-2 -1,-1 0,-5 2,-5 1,-1 12,-4 13,-4 2,0 0,3 -2,4 -2,2 -4,4 -7,6 -1,1 -1,1 -2,1z"/>
     </g>
    </g>
    <g>
     <g>
      <path class="fil13" d="M4498 2653c-5,-2 -9,-5 -13,-8 -2,-1 -2,-3 -1,-5 1,-2 4,-3 6,-1 5,3 10,6 15,9 2,1 3,3 2,5 0,1 -1,2 -1,2 -1,1 -7,-1 -8,-2zm-25 -19l0 0c-1,0 -2,0 -3,-1 -5,-4 -9,-8 -14,-13 -1,-2 -1,-5 1,-6 1,-2 4,-1 5,0 5,5 9,9 13,13 2,2 2,4 1,6 -1,1 -2,1 -3,1zm-25 -28l0 0c-2,0 -3,0 -4,-1 -3,-5 -7,-11 -10,-16 -1,-2 -1,-5 1,-6 2,-1 5,0 6,1 3,6 7,11 10,16 1,2 1,4 -1,6 -1,0 -1,0 -2,0zm-19 -32l0 0c-2,0 -3,-1 -4,-2 -3,-6 -5,-12 -8,-18 -1,-2 0,-4 3,-5 2,-1 4,0 5,2 2,6 5,12 7,17 1,2 0,5 -2,6 0,0 -1,0 -1,0zm-14 -35l0 0c-2,0 -4,-1 -4,-3 -2,-5 -4,-12 -6,-18 0,-2 1,-4 3,-5 3,0 5,1 5,3 2,6 4,12 6,18 0,2 -1,4 -3,5 0,0 -1,0 -1,0zm-10 -36l0 0c-2,0 -4,-1 -4,-3 -1,-6 -2,-13 -3,-19 -1,-2 1,-4 3,-5 2,0 4,1 5,4 1,6 2,12 3,18 1,2 -1,4 -3,5 0,0 -1,0 -1,0zm-6 -37l0 0c-2,0 -4,-2 -4,-4 -1,-6 -2,-12 -2,-19 0,-2 1,-4 4,-4 2,0 4,1 4,4 1,6 1,12 2,18 0,3 -1,5 -4,5 0,0 0,0 0,0zm-3 -38l0 0c-2,0 -4,-1 -4,-3 -1,-4 -1,-8 -1,-12 0,-3 0,-5 0,-8 1,-2 2,-4 5,-4 2,1 4,2 4,5 0,2 0,4 0,7 0,3 0,7 0,11 0,2 -2,4 -4,4 0,0 0,0 0,0zm1 -37l0 0c0,0 0,0 -1,0 -2,0 -3,-2 -3,-5 0,-6 1,-12 2,-19 1,-2 3,-3 5,-3 2,1 4,3 4,5 -2,6 -2,12 -3,18 0,2 -2,4 -4,4zm7 -37l0 0c-1,0 -1,0 -1,0 -3,-1 -4,-3 -3,-5 1,-6 3,-12 5,-18 1,-3 3,-4 5,-3 3,1 4,3 3,5 -2,6 -4,12 -5,18 -1,2 -3,3 -4,3zm12 -36l0 0c-1,0 -1,0 -2,0 -2,-1 -3,-3 -2,-5 3,-6 5,-12 8,-18 1,-2 4,-2 6,-1 2,1 3,3 2,5 -3,6 -6,11 -8,17 -1,2 -3,2 -4,2zm17 -33l0 0c-1,0 -1,0 -2,0 -2,-2 -2,-4 -1,-6 3,-6 7,-11 10,-16 2,-2 4,-2 6,-1 2,1 2,4 1,6 -4,5 -7,10 -10,15 -1,1 -2,2 -4,2zm22 -30l0 0c-1,0 -2,-1 -2,-1 -2,-2 -2,-4 -1,-6 4,-5 9,-10 13,-14 2,-2 4,-2 6,0 1,1 1,4 0,6 -5,4 -9,8 -13,13 0,1 -2,2 -3,2z"/>
     </g>
    </g>
    <g>
     <g>
      <path class="fil13" d="M4517 2657c0,-2 3,-3 5,-3 5,2 8,2 8,2 2,1 3,2 4,3 0,1 -17,-1 -17,-2z"/>
     </g>
    </g>
   </g>
   <g>
    <g>
     <g>
      <path class="fil14" d="M4478 2227c-2,0 -3,0 -4,-1 -1,-2 -1,-5 2,-6 1,0 12,-4 12,-4 3,1 1,3 -1,5 -2,1 -5,3 -7,5 -1,1 -2,1 -2,1z"/>
     </g>
    </g>
    <g>
     <g>
      <path class="fil14" d="M4494 2653c-5,-3 -9,-5 -13,-8 -2,-2 -2,-4 -1,-6 1,-2 4,-2 6,-1 5,4 10,7 15,9 2,1 3,4 2,6 0,1 -1,1 -1,1 -1,1 -7,-1 -8,-1zm-25 -19l0 0c-1,0 -2,-1 -3,-1 -5,-4 -9,-9 -14,-14 -1,-2 -1,-4 1,-6 1,-1 4,-1 5,1 5,4 9,9 13,13 2,1 2,4 1,5 -1,1 -2,2 -3,2zm-25 -28l0 0c-2,0 -3,-1 -4,-2 -3,-5 -7,-10 -10,-16 -1,-2 -1,-4 1,-6 2,-1 5,0 6,2 3,5 6,10 10,15 1,2 1,5 -1,6 -1,1 -2,1 -2,1zm-19 -33l0 0c-2,0 -3,0 -4,-2 -3,-5 -5,-11 -8,-17 -1,-2 0,-5 3,-6 2,0 4,1 5,3 2,5 5,11 7,17 1,2 0,4 -2,5 0,0 -1,0 -1,0zm-14 -34l0 0c-2,0 -4,-2 -4,-3 -2,-6 -4,-12 -6,-18 0,-3 1,-5 3,-5 3,-1 5,0 5,2 2,6 4,12 6,18 0,2 -1,5 -3,5 -1,1 -1,1 -1,1zm-10 -37l0 0c-2,0 -4,-1 -4,-3 -1,-6 -2,-12 -3,-19 -1,-2 1,-4 3,-4 2,-1 4,1 5,3 1,6 2,12 3,18 1,3 -1,5 -3,5 0,0 -1,0 -1,0zm-6 -37l0 0c-2,0 -4,-1 -4,-3 -1,-6 -2,-13 -2,-19 0,-2 1,-4 4,-5 2,0 4,2 4,4 1,6 1,13 2,19 0,2 -1,4 -4,4 0,0 0,0 0,0zm-3 -37l0 0c-2,0 -4,-2 -4,-4 -1,-4 -1,-8 -1,-12 0,-2 0,-5 0,-7 1,-2 2,-4 5,-4 2,0 4,2 4,4 0,2 0,5 0,7 0,4 0,8 0,12 0,2 -2,4 -4,4 0,0 0,0 0,0zm1 -38l0 0c0,0 0,0 -1,0 -2,0 -4,-2 -3,-4 0,-7 1,-13 2,-19 1,-2 3,-4 5,-3 2,0 4,2 4,4 -2,6 -2,12 -3,19 0,2 -2,3 -4,3zm7 -37l0 0c-1,0 -1,0 -1,0 -3,0 -4,-3 -3,-5 1,-6 3,-12 5,-18 1,-2 3,-3 5,-3 3,1 4,3 3,6 -2,5 -4,11 -5,17 -1,2 -3,3 -4,3zm12 -35l0 0c-1,0 -1,0 -2,-1 -2,0 -3,-3 -2,-5 3,-6 5,-12 8,-17 1,-2 4,-3 6,-2 2,1 3,4 2,6 -3,5 -6,11 -8,16 -1,2 -3,3 -4,3zm17 -34l0 0c-1,0 -1,0 -2,0 -2,-1 -3,-4 -1,-6 3,-5 7,-11 10,-16 2,-1 4,-2 6,-1 2,2 2,4 1,6 -4,5 -7,10 -10,16 -1,1 -2,1 -4,1zm22 -30l0 0c-1,0 -2,0 -2,-1 -2,-1 -2,-4 -1,-6 4,-5 8,-9 13,-14 1,-1 4,-1 6,0 1,2 1,4 0,6 -5,4 -9,9 -13,14 -1,1 -2,1 -3,1z"/>
     </g>
    </g>
    <g>
     <g>
      <path class="fil14" d="M4513 2657c0,-2 3,-3 5,-3 5,2 8,2 8,2 2,0 3,2 4,3 0,1 -17,-1 -17,-2z"/>
     </g>
    </g>
   </g>
   <g>
    <g>
     <g>
      <path class="fil14" d="M4531 2218c-1,0 -2,0 -3,-1 -2,-2 -2,-4 0,-6 1,-1 1,-2 2,-2 1,-1 11,-1 11,-1 0,1 0,1 -1,2 -2,2 -4,5 -6,7 -1,1 -2,1 -3,1z"/>
     </g>
    </g>
    <g>
     <g>
      <path class="fil14" d="M4564 2656c-1,0 -1,0 -2,0 -6,-3 -11,-6 -17,-9 -2,-1 -2,-4 -1,-6 1,-2 4,-2 6,-1 5,3 10,6 15,8 2,1 3,3 2,5 0,2 -2,3 -3,3zm-32 -19l0 0c-1,0 -1,0 -2,-1 -5,-3 -10,-7 -14,-11 -2,-2 -2,-5 -1,-6 2,-2 4,-2 6,0 4,4 9,7 14,11 2,1 2,4 1,6 -1,1 -2,1 -4,1zm-27 -24l0 0c-1,0 -2,-1 -3,-2 -4,-4 -8,-9 -12,-14 -1,-2 -1,-4 1,-6 2,-1 5,-1 6,1 4,5 7,10 11,14 2,2 2,4 0,6 -1,0 -2,1 -3,1zm-22 -29l0 0c-1,0 -2,-1 -3,-2 -3,-5 -7,-11 -10,-16 -1,-2 0,-5 2,-6 2,-1 5,0 6,2 3,5 6,11 9,15 1,2 0,5 -1,6 -1,1 -2,1 -3,1zm-17 -32l0 0c-2,0 -3,-1 -4,-3 -2,-5 -5,-11 -7,-17 -1,-2 1,-4 3,-5 2,-1 4,0 5,2 2,6 4,12 7,17 1,2 0,4 -2,5 -1,1 -1,1 -2,1zm-13 -34l0 0c-2,0 -3,-2 -4,-3 -1,-6 -3,-12 -5,-18 0,-2 1,-5 3,-5 2,-1 5,1 5,3 2,6 3,12 5,17 1,2 0,5 -3,5 0,0 0,1 -1,1zm-9 -36l0 0c-2,0 -3,-1 -4,-3 -1,-6 -2,-12 -3,-18 0,-2 1,-5 3,-5 3,0 5,1 5,3 1,7 2,12 3,18 1,2 -1,5 -3,5 0,0 0,0 -1,0zm-5 -36l0 0c-2,0 -4,-1 -4,-4 -1,-6 -2,-12 -2,-18 0,-2 2,-4 4,-4 2,0 4,1 4,4 1,6 1,12 2,18 0,2 -2,4 -4,4 0,0 0,0 0,0zm-2 -36l0 0c0,0 0,0 0,0 -2,0 -4,-2 -4,-5 0,-6 1,-12 1,-18 1,-2 3,-4 5,-4 2,1 4,3 4,5 -1,6 -2,12 -2,18 0,2 -2,4 -4,4zm4 -37l0 0c0,0 0,0 -1,0 -2,0 -3,-2 -3,-4 1,-6 2,-13 4,-19 1,-2 3,-3 5,-2 2,0 3,2 3,5 -2,5 -3,11 -4,17 0,2 -2,3 -4,3zm9 -35l0 0c0,0 -1,0 -1,0 -2,-1 -3,-3 -3,-5 2,-6 5,-12 7,-18 1,-2 3,-3 5,-2 2,1 3,4 3,6 -3,5 -5,11 -7,16 0,2 -2,3 -4,3zm15 -33l0 0c-1,0 -2,-1 -2,-1 -2,-1 -3,-3 -2,-5 3,-6 6,-11 9,-17 1,-1 4,-2 6,-1 2,1 2,4 1,6 -3,5 -6,10 -9,15 0,2 -2,3 -3,3zm18 -32l0 0c0,0 -1,0 -2,0 -2,-2 -2,-4 -1,-6 4,-5 7,-10 11,-15 2,-2 4,-2 6,-1 2,2 2,4 1,6 -4,5 -8,10 -11,15 -1,1 -2,1 -4,1zm23 -28l0 0c-1,0 -2,-1 -3,-1 -1,-2 -2,-4 0,-6 4,-4 8,-9 12,-14 2,-1 4,-2 6,0 2,2 2,4 0,6 -4,5 -8,9 -12,13 -1,1 -2,2 -3,2z"/>
     </g>
    </g>
    <g>
     <g>
      <path class="fil14" d="M4577 2659c0,-1 0,-2 0,-3 1,-2 3,-3 5,-2 5,1 8,2 8,2 1,0 2,0 3,1 0,0 -16,2 -16,2z"/>
     </g>
    </g>
   </g>
   <g>
    <g>
     <g>
      <path class="fil15" d="M4527 2218c-1,0 -2,-1 -3,-1 -1,-2 -1,-5 0,-6 1,-1 1,-2 2,-2 1,-1 11,-1 11,-1 0,0 0,1 -1,2 -2,2 -4,4 -6,6 -1,1 -2,2 -3,2z"/>
     </g>
    </g>
    <g>
     <g>
      <path class="fil15" d="M4560 2656c-1,0 -1,0 -2,-1 -5,-2 -11,-5 -16,-8 -2,-1 -3,-4 -2,-6 1,-2 4,-3 6,-1 5,3 10,5 16,8 2,1 3,3 2,5 -1,2 -3,3 -4,3zm-31 -19l0 0c-1,0 -2,0 -3,-1 -5,-3 -10,-7 -14,-12 -2,-1 -2,-4 -1,-5 2,-2 5,-2 6,-1 5,4 9,8 14,12 2,1 2,4 1,5 -1,2 -2,2 -3,2zm-27 -24l0 0c-2,0 -3,-1 -3,-2 -5,-4 -9,-9 -12,-14 -2,-2 -1,-4 0,-6 2,-1 5,-1 6,1 4,5 8,9 12,14 1,1 1,4 -1,6 0,0 -1,1 -2,1zm-22 -29l0 0c-2,0 -3,-1 -4,-2 -3,-5 -6,-11 -9,-16 -1,-2 -1,-5 1,-6 2,-1 5,0 6,2 3,5 6,10 9,15 1,2 1,5 -1,6 -1,0 -2,1 -2,1zm-18 -33l0 0c-1,0 -3,0 -3,-2 -3,-5 -5,-11 -8,-17 0,-2 1,-5 3,-5 2,-1 4,0 5,2 2,6 5,11 7,17 1,2 0,4 -2,5 -1,0 -1,0 -2,0zm-13 -34l0 0c-1,0 -3,-1 -3,-3 -2,-5 -4,-11 -5,-17 -1,-3 0,-5 2,-5 3,-1 5,0 5,3 2,6 4,11 5,17 1,2 0,4 -2,5 -1,0 -1,0 -2,0zm-9 -35l0 0c-1,0 -3,-1 -4,-3 -1,-6 -2,-12 -3,-18 0,-3 1,-5 4,-5 2,0 4,1 4,3 1,6 2,12 3,18 1,2 -1,4 -3,5 0,0 0,0 -1,0zm-5 -36l0 0c-2,0 -4,-2 -4,-4 -1,-6 -1,-12 -2,-18 0,-2 2,-4 4,-4 3,-1 4,1 5,3 0,6 0,12 1,18 0,3 -2,5 -4,5 0,0 0,0 0,0zm-2 -37l0 0c0,0 0,0 0,0 -2,0 -4,-1 -4,-4 1,-6 1,-12 2,-18 0,-2 2,-4 4,-4 2,0 4,2 4,5 -1,5 -1,12 -1,18 -1,2 -2,3 -5,3zm4 -36l0 0c0,0 0,0 -1,0 -2,0 -3,-2 -3,-5 1,-6 3,-12 4,-18 1,-2 3,-3 5,-3 2,1 4,3 3,5 -1,6 -3,12 -4,18 0,2 -2,3 -4,3zm9 -35l0 0c0,0 0,0 -1,0 -2,-1 -3,-3 -2,-5 2,-6 4,-12 6,-18 1,-2 4,-3 6,-2 2,1 3,3 2,5 -3,6 -5,12 -7,17 0,2 -2,3 -4,3zm15 -34l0 0c-1,0 -1,0 -2,0 -2,-1 -3,-4 -2,-6 3,-5 6,-10 9,-16 1,-2 4,-2 6,-1 2,1 2,4 1,6 -3,5 -6,10 -9,15 0,2 -2,2 -3,2zm19 -31l0 0c-1,0 -2,0 -3,-1 -1,-1 -2,-3 -1,-5 4,-5 7,-10 11,-15 2,-2 4,-2 6,-1 2,2 2,4 1,6 -4,5 -8,10 -11,14 -1,2 -2,2 -3,2zm22 -29l0 0c-1,0 -2,0 -2,-1 -2,-1 -2,-4 -1,-5 4,-5 8,-9 12,-14 2,-2 5,-2 6,0 2,1 2,4 0,6 -4,4 -8,9 -12,13 -1,1 -2,1 -3,1z"/>
     </g>
    </g>
    <g>
     <g>
      <path class="fil15" d="M4573 2659c0,0 0,-1 0,-2 1,-2 3,-3 5,-3 5,2 9,2 9,2 0,0 1,1 2,1 0,1 -16,3 -16,2z"/>
     </g>
    </g>
   </g>
   <g>
    <path class="fil16" d="M4394 2293c-24,26 -39,61 -38,96 0,19 6,39 20,52 13,13 35,19 52,10 10,-6 16,-16 22,-26 11,-19 20,-41 35,-58 22,-24 57,-36 78,-62 9,-10 15,-25 10,-38 -11,-26 -64,-30 -87,-26 -33,4 -69,28 -92,52z"/>
   </g>
   <g>
    <path class="fil15" d="M4704 2504c-7,0 -14,-1 -20,-4 -24,-11 -44,-37 -53,-71 -7,-26 -9,-54 -5,-77 5,-27 17,-43 35,-49 15,-5 30,-3 44,4 21,12 38,37 45,65 13,51 8,111 -26,128 -7,3 -13,4 -20,4zm-26 -198l0 0c-5,0 -10,1 -15,3 -34,11 -40,69 -26,119 9,31 28,56 49,66 12,5 24,5 35,0 31,-15 35,-73 23,-120 -7,-27 -23,-50 -42,-61 -8,-4 -16,-7 -24,-7z"/>
   </g>
   <g>
    <path class="fil15" d="M4704 2491c-4,0 -8,-1 -12,-2 -19,-8 -37,-32 -45,-62 -7,-24 -9,-48 -7,-69 3,-23 12,-38 25,-44 11,-4 21,-4 31,2 17,8 33,31 39,57 12,45 10,98 -16,113 -4,3 -10,5 -15,5zm-37 -173l0 0c-27,10 -29,63 -17,108 9,29 25,52 43,59 9,4 17,3 24,-2 24,-14 25,-67 15,-109 -7,-25 -21,-47 -38,-55 -9,-5 -18,-5 -27,-1z"/>
   </g>
   <g>
    <g>
     <path class="fil15" d="M4670 2392l-2 -6 3 -1c1,-1 2,-1 2,-1 0,0 0,-1 0,-1 0,-1 0,-1 -1,-1 0,0 -1,0 -1,0l-8 2c-1,1 -2,1 -2,1 0,0 0,1 0,1 0,1 0,1 1,1 0,0 1,0 1,0l3 -1 2 7 -1 0c-2,1 -3,1 -4,1 -1,0 -2,-1 -3,-2 -1,-1 -1,-3 -2,-5 0,-2 -1,-4 -1,-5 1,-1 1,-3 2,-3 0,-1 2,-1 3,-2l5 -1c1,-1 2,-1 3,-1 1,0 1,0 2,1 1,0 2,1 2,2 1,1 1,2 2,4 0,2 1,4 0,5 0,2 0,3 -1,3 0,1 -1,1 -3,2l-2 0z"/>
    </g>
    <g>
     <polygon class="fil15" points="4680,2400 4667,2404 4668,2408 4665,2409 4661,2398 4678,2393 "/>
    </g>
    <g>
     <path class="fil15" d="M4686 2421l-11 3c-1,1 -2,1 -3,1 0,0 -1,0 -2,-1 0,0 -1,-1 -2,-2 0,-1 -1,-2 -1,-4 -1,-1 -1,-3 -1,-4 0,-1 0,-2 1,-3 0,-1 1,-1 1,-2 1,0 2,0 4,-1l10 -3 2 7 -13 4c-1,0 -1,0 -1,1 0,0 0,0 0,0 0,1 0,1 0,1 1,0 1,0 2,0l13 -4 1 7z"/>
    </g>
    <g>
     <path class="fil15" d="M4687 2424l2 7c1,2 1,4 1,5 0,1 0,2 0,3 -1,1 -2,1 -3,2 -1,0 -2,0 -3,0 0,-1 -1,-2 -1,-3 0,2 0,3 -1,4 0,0 -1,1 -2,1l-1 1c-2,0 -2,0 -3,0 -1,-1 -1,-1 -2,-2 0,-1 -1,-3 -2,-5l-2 -8 17 -5zm-1 8l0 0 -4 1c1,0 1,0 1,0 0,1 0,1 0,2 1,0 1,0 2,-1 1,0 1,0 1,0 0,0 1,-1 1,-1 0,0 -1,-1 -1,-1zm-6 1l0 0 -5 2c0,1 1,1 1,1 0,1 1,1 1,1l2 -1c1,0 1,0 1,-1 0,0 0,-1 0,-2z"/>
    </g>
   </g>
   <g>
    <g>
     <path class="fil15" d="M4696 2360l-2 -8 5 -1c2,-1 3,-1 3,-1 1,-1 1,-1 1,-2 -1,0 -1,-1 -1,-1 -1,0 -2,0 -4,1l-15 3c-1,1 -2,1 -3,2 0,0 0,0 0,1 0,1 0,1 1,1 0,0 2,0 3,-1l4 -1 3 9 -2 0c-3,1 -6,1 -7,1 -2,0 -3,-1 -5,-2 -1,-1 -2,-3 -3,-5 0,-3 0,-5 0,-7 1,-2 2,-3 3,-4 1,-1 4,-2 7,-3l9 -2c3,-1 5,-1 6,-1 1,0 2,0 3,0 2,1 3,2 4,3 1,1 2,3 2,5 1,2 1,4 0,6 0,2 -1,3 -3,4 -1,1 -3,2 -6,3l-3 0z"/>
    </g>
    <g>
     <path class="fil15" d="M4711 2360l1 6c1,4 2,7 2,8 0,2 -1,3 -2,4 -1,1 -3,2 -5,3 -3,1 -5,1 -6,0 -1,0 -1,-1 -2,-3 0,2 0,3 -1,4 0,1 -1,1 -2,1 0,1 -2,1 -4,2l-9 2 -2 -8 11 -3c2,0 3,0 3,-1 0,0 0,-1 0,-2l-15 4 -2 -9 33 -8zm-4 10l0 0 -7 2c0,1 1,1 1,1 0,1 1,1 3,0l2 0c1,0 1,-1 1,-1 1,-1 1,-1 0,-2z"/>
    </g>
    <g>
     <polygon class="fil15" points="4719,2390 4686,2399 4684,2390 4716,2382 "/>
    </g>
    <g>
     <path class="fil15" d="M4710 2417l-2 -8 6 -2c2,0 3,-1 3,-1 0,0 0,-1 0,-1 0,-1 0,-1 -1,-1 0,0 -2,0 -3,0l-15 4c-2,1 -3,1 -3,1 -1,0 -1,1 -1,2 0,0 1,1 1,1 1,0 2,0 4,-1l4 -1 2 8 -1 1c-4,1 -6,1 -8,1 -1,0 -3,-1 -4,-2 -1,-2 -3,-3 -3,-6 -1,-2 -1,-4 0,-6 0,-2 1,-4 3,-4 1,-1 3,-2 6,-3l10 -2c2,-1 4,-1 5,-2 1,0 3,0 4,1 1,0 2,1 3,3 1,1 2,2 3,4 0,3 0,5 0,7 -1,2 -2,3 -3,4 -1,1 -3,2 -7,2l-3 1z"/>
    </g>
    <g>
     <polygon class="fil15" points="4725,2417 4729,2431 4722,2432 4721,2427 4715,2428 4716,2433 4710,2435 4709,2430 4702,2432 4703,2438 4697,2439 4693,2425 "/>
    </g>
    <g>
     <polygon class="fil15" points="4734,2450 4727,2452 4726,2447 4700,2453 4698,2445 4724,2438 4723,2433 4729,2432 "/>
    </g>
   </g>
   <g>
    <path class="fil17" d="M4670 2240c33,39 53,90 53,146 0,125 -101,226 -226,226 -43,0 -84,-12 -118,-33 41,50 104,81 174,81 125,0 226,-101 226,-226 0,-82 -43,-154 -109,-194z"/>
   </g>
   <g>
    <g>
     <path class="fil18 str0" d="M767 1292l0 309 0 0 0 -662 0 353zm4260 491l0 5 16 0 0 -7c245,-22 387,-49 387,-77 0,-21 -80,-42 -224,-60l0 -65 -18 0 0 30 -11 0 0 -30 -23 0 0 30 -11 0 0 -30 -23 0 0 30 -10 0 0 -30 -24 0 0 30 -10 0 0 -30 -23 0 0 30 -11 0 0 -30 -23 0 0 30 -11 0 0 -30 -17 0 0 -481 62 0 -124 -340 58 0 -536 -437 -2961 0 2 3 -71 -41 0 -45 -69 -41 -115 0 14 44 0 80 78 -91 -604 709 -43 0 0 16 64 0 0 12 -557 325 82 0 0 57 0 60 0 233c-154,19 -240,40 -240,62 0,21 80,41 224,60l0 24 17 0 0 -22c37,4 77,9 122,13l0 9 17 0 0 -7c471,43 1333,73 2319,73 970,0 1821,-29 2297,-71zm-4036 -1157l29 -529 -20 -44 108 -22 118 75 -22 27 0 244 -88 102 -125 147zm4028 998l0 -5 -8 0 0 5 8 0zm34 4l0 -9 -9 0 0 8 9 1zm33 3l0 -12 -9 0 0 11 9 1zm24 -12l0 14 10 1 0 -15 -10 0zm33 0l0 18 11 1 0 -19 -11 0zm34 0l0 22 11 1 0 -23 -11 0z"/>
     <path id="1" class="fil19" d="M767 1292l0 309 0 0 0 -662 0 353zm4260 491l0 5 16 0 0 -7c245,-22 387,-49 387,-77 0,-21 -80,-42 -224,-60l0 -65 -18 0 0 30 -11 0 0 -30 -23 0 0 30 -11 0 0 -30 -23 0 0 30 -10 0 0 -30 -24 0 0 30 -10 0 0 -30 -23 0 0 30 -11 0 0 -30 -23 0 0 30 -11 0 0 -30 -17 0 0 -481 62 0 -124 -340 58 0 -536 -437 -2961 0 2 3 -71 -41 0 -45 -69 -41 -115 0 14 44 0 80 78 -91 -604 709 -43 0 0 16 64 0 0 12 -557 325 82 0 0 57 0 60 0 233c-154,19 -240,40 -240,62 0,21 80,41 224,60l0 24 17 0 0 -22c37,4 77,9 122,13l0 9 17 0 0 -7c471,43 1333,73 2319,73 970,0 1821,-29 2297,-71zm-4036 -1157l29 -529 -20 -44 108 -22 118 75 -22 27 0 244 -88 102 -125 147zm4028 998l0 -5 -8 0 0 5 8 0zm34 4l0 -9 -9 0 0 8 9 1zm33 3l0 -12 -9 0 0 11 9 1zm24 -12l0 14 10 1 0 -15 -10 0zm33 0l0 18 11 1 0 -19 -11 0zm34 0l0 22 11 1 0 -23 -11 0z"/>
    </g>
    <path class="fil20" d="M2730 1554c1491,0 2700,67 2700,150 0,83 -1209,150 -2700,150 -1490,0 -2699,-67 -2699,-150 0,-83 1209,-150 2699,-150z"/>
    <polygon class="fil21" points="2007,1098 4991,1098 4991,1692 2007,1692 "/>
    <polygon class="fil22" points="3980,1098 4520,1098 4520,1687 3980,1687 "/>
    <polygon class="fil21" points="4991,1098 4520,1098 4520,1687 4991,1687 "/>
    <polygon class="fil23" points="4627,1098 4520,1098 4520,1409 4627,1409 "/>
    <polygon class="fil24" points="4627,1284 4520,1284 4520,1409 4627,1409 "/>
    <g>
     <polygon class="fil22" points="4498,1473 4682,1473 4899,1692 4473,1692 "/>
     <polygon class="fil25" points="4470,1359 4712,1359 4849,1495 4849,1692 4837,1692 4837,1500 4707,1370 4470,1370 "/>
     <polygon class="fil26" points="4530,1363 4535,1363 4535,1676 4530,1676 "/>
     <polygon class="fil26" points="4546,1363 4551,1363 4551,1676 4546,1676 "/>
     <polygon class="fil26" points="4562,1363 4567,1363 4567,1676 4562,1676 "/>
     <polygon class="fil26" points="4578,1363 4583,1363 4583,1676 4578,1676 "/>
     <polygon class="fil26" points="4594,1363 4599,1363 4599,1676 4594,1676 "/>
     <polygon class="fil26" points="4610,1363 4615,1363 4615,1676 4610,1676 "/>
     <polygon class="fil26" points="4626,1363 4631,1363 4631,1676 4626,1676 "/>
     <polygon class="fil26" points="4642,1363 4647,1363 4647,1676 4642,1676 "/>
     <polygon class="fil26" points="4658,1363 4663,1363 4663,1676 4658,1676 "/>
     <polygon class="fil26" points="4674,1363 4679,1363 4679,1676 4674,1676 "/>
     <polygon class="fil26" points="4690,1363 4695,1363 4695,1676 4690,1676 "/>
     <polygon class="fil26" points="4706,1363 4711,1363 4711,1676 4706,1676 "/>
     <polygon class="fil26" points="4722,1381 4727,1381 4727,1676 4722,1676 "/>
     <polygon class="fil26" points="4738,1394 4743,1394 4743,1676 4738,1676 "/>
     <polygon class="fil26" points="4754,1411 4759,1411 4759,1676 4754,1676 "/>
     <polygon class="fil26" points="4770,1428 4775,1428 4775,1676 4770,1676 "/>
     <polygon class="fil26" points="4786,1441 4791,1441 4791,1676 4786,1676 "/>
     <polygon class="fil26" points="4802,1460 4807,1460 4807,1676 4802,1676 "/>
     <polygon class="fil26" points="4818,1476 4823,1476 4823,1676 4818,1676 "/>
    </g>
    <path class="fil27" d="M2470 1612l22 0 0 29 11 0 0 -29 23 0 0 29 11 0 0 -29 23 0 0 29 10 0 0 -29 24 0 0 29 10 0 0 -29 23 0 0 29 11 0 0 -29 23 0 0 29 11 0 0 -29 23 0 0 29 10 0 0 -29 24 0 0 29 10 0 0 -29 23 0 0 29 11 0 0 -29 23 0 0 29 11 0 0 -29 23 0 0 29 10 0 0 -29 24 0 0 29 10 0 0 -29 23 0 0 29 11 0 0 -29 23 0 0 29 11 0 0 -29 23 0 0 29 10 0 0 -29 24 0 0 29 10 0 0 -29 23 0 0 29 11 0 0 -29 22 0 22 0 0 29 10 0 0 -29 23 0 0 29 11 0 0 -29 23 0 0 29 11 0 0 -29 23 0 0 29 10 0 0 -29 24 0 0 29 10 0 0 -29 23 0 0 29 11 0 0 -29 23 0 0 29 11 0 0 -29 23 0 0 29 10 0 0 -29 24 0 0 29 10 0 0 -29 23 0 0 29 11 0 0 -29 23 0 0 29 11 0 0 -29 23 0 0 29 10 0 0 -29 24 0 0 29 10 0 0 -29 23 0 0 29 11 0 0 -29 23 0 0 29 11 0 0 -29 23 0 0 29 10 0 0 -29 24 0 0 29 10 0 0 -29 22 0 22 0 0 29 10 0 0 -29 24 0 0 29 10 0 0 -29 23 0 0 29 11 0 0 -29 23 0 0 29 11 0 0 -29 23 0 0 29 10 0 0 -29 24 0 0 29 10 0 0 -29 23 0 0 29 11 0 0 -29 23 0 0 29 11 0 0 -29 23 0 0 29 10 0 0 -29 24 0 0 29 10 0 0 -29 23 0 0 29 11 0 0 -29 23 0 0 29 0 10 0 31 0 10 0 31 0 10 0 29 -23 0 0 -29 -11 0 0 29 -23 0 0 -29 -10 0 0 29 -24 0 0 -29 -10 0 0 29 -23 0 0 -29 -11 0 0 29 -23 0 0 -29 -11 0 0 29 -23 0 0 -29 -10 0 0 29 -24 0 0 -29 -10 0 0 29 -23 0 0 -29 -11 0 0 29 -23 0 0 -29 -11 0 0 29 -23 0 0 -29 -10 0 0 29 -24 0 0 -29 -10 0 0 29 -22 0 -22 0 0 -29 -10 0 0 29 -24 0 0 -29 -10 0 0 29 -23 0 0 -29 -11 0 0 29 -23 0 0 -29 -11 0 0 29 -23 0 0 -29 -10 0 0 29 -24 0 0 -29 -10 0 0 29 -23 0 0 -29 -11 0 0 29 -23 0 0 -29 -11 0 0 29 -23 0 0 -29 -10 0 0 29 -24 0 0 -29 -10 0 0 29 -23 0 0 -29 -11 0 0 29 -23 0 0 -29 -11 0 0 29 -23 0 0 -29 -10 0 0 29 -24 0 0 -29 -10 0 0 29 -23 0 0 -29 -11 0 0 29 -23 0 0 -29 -11 0 0 29 -23 0 0 -29 -10 0 0 29 -22 0 -22 0 0 -29 -11 0 0 29 -23 0 0 -29 -10 0 0 29 -24 0 0 -29 -10 0 0 29 -23 0 0 -29 -11 0 0 29 -23 0 0 -29 -11 0 0 29 -23 0 0 -29 -10 0 0 29 -24 0 0 -29 -10 0 0 29 -23 0 0 -29 -11 0 0 29 -23 0 0 -29 -11 0 0 29 -23 0 0 -29 -10 0 0 29 -24 0 0 -29 -10 0 0 29 -23 0 0 -29 -11 0 0 29 -23 0 0 -29 -11 0 0 29 -23 0 0 -29 -10 0 0 29 -24 0 0 -29 -10 0 0 29 -23 0 0 -29 -11 0 0 29 -23 0 0 -29 -11 0 0 29 -22 0 0 -29 0 -10 0 -31 0 -10 0 -31 0 -10 0 -29zm2449 -33l22 0 0 30 10 0 0 -30 24 0 0 30 10 0 0 -30 23 0 0 30 11 0 0 -30 23 0 0 30 11 0 0 -30 23 0 0 30 10 0 0 -30 24 0 0 30 10 0 0 -30 23 0 0 30 11 0 0 -30 23 0 0 30 11 0 0 -30 18 0 0 151 -18 0 0 -30 -11 0 0 30 -23 0 0 -30 -11 0 0 30 -23 0 0 -30 -10 0 0 30 -24 0 0 -30 -9 0 0 23 0 10 0 29 -22 0 0 -29 -11 0 0 29 -23 0 0 -29 -10 0 0 29 -24 0 0 -29 -10 0 0 29 -23 0 0 -29 -11 0 0 29 -23 0 0 -29 -11 0 0 29 -23 0 0 -29 -10 0 0 29 -24 0 0 -29 -10 0 0 29 -23 0 0 -29 -11 0 0 29 -23 0 0 -29 -11 0 0 29 -23 0 0 -29 -11 0 0 29 -23 0 0 -29 -10 0 0 29 -24 0 0 -29 -10 0 0 29 -23 0 0 -29 -11 0 0 29 -23 0 0 -29 -11 0 0 29 -23 0 0 -29 -10 0 0 29 -24 0 0 -29 -10 0 0 29 -23 0 0 -29 -11 0 0 29 -22 0 0 -29 0 -10 0 -31 0 -10 0 -31 0 -10 0 -29 22 0 0 29 11 0 0 -29 23 0 0 29 10 0 0 -29 24 0 0 29 10 0 0 -29 23 0 0 29 11 0 0 -29 23 0 0 29 11 0 0 -29 23 0 0 29 10 0 0 -29 24 0 0 29 10 0 0 -29 23 0 0 29 11 0 0 -29 23 0 0 29 11 0 0 -29 23 0 0 29 11 0 0 -29 23 0 0 29 10 0 0 -29 24 0 0 29 10 0 0 -29 23 0 0 29 10 0 0 -22 0 -10 0 -30zm134 144l0 -23 -9 0 0 23 9 0zm-34 0l0 -23 -8 0 0 23 8 0zm-34 0l0 -23 -8 0 0 23 8 0zm-34 0l0 -23 -8 0 0 23 8 0zm-32 0l0 -23 0 -8 -10 0 0 31 10 0zm0 -41l0 -23 0 -8 -10 0 0 31 10 0zm32 -41l0 -22 -8 0 0 22 8 0zm34 0l0 -22 -8 0 0 22 8 0zm34 0l0 -22 -8 0 0 22 8 0zm34 0l0 -22 -9 0 0 22 9 0zm24 8l9 0 0 -30 -9 0 0 22 0 8zm33 -30l0 30 10 0 0 -30 -10 0zm33 0l0 30 11 0 0 -30 -11 0zm34 0l0 30 11 0 0 -30 -11 0zm11 71l0 -31 -11 0 0 31 11 0zm-34 0l0 -31 -11 0 0 31 11 0zm-34 0l0 -31 -10 0 0 31 10 0zm-34 0l0 -31 -9 0 0 23 0 8 9 0zm-33 -8l0 -23 -9 0 0 23 9 0zm-34 0l0 -23 -8 0 0 23 8 0zm-34 0l0 -23 -8 0 0 23 8 0zm-34 0l0 -23 -8 0 0 23 8 0zm-447 -31l0 31 11 0 0 -31 -11 0zm34 0l0 31 10 0 0 -31 -10 0zm34 0l0 31 10 0 0 -31 -10 0zm33 0l0 31 11 0 0 -31 -11 0zm34 0l0 31 11 0 0 -31 -11 0zm34 0l0 31 10 0 0 -31 -10 0zm34 0l0 31 10 0 0 -31 -10 0zm33 0l0 31 11 0 0 -31 -11 0zm34 0l0 31 11 0 0 -31 -11 0zm34 0l0 31 11 0 0 -31 -11 0zm34 0l0 31 10 0 0 -31 -10 0zm34 0l0 31 10 0 0 -31 -10 0zm10 72l0 -31 -10 0 0 31 10 0zm-34 0l0 -31 -10 0 0 31 10 0zm-33 0l0 -31 -11 0 0 31 11 0zm-34 0l0 -31 -11 0 0 31 11 0zm-34 0l0 -31 -11 0 0 31 11 0zm-34 0l0 -31 -10 0 0 31 10 0zm-34 0l0 -31 -10 0 0 31 10 0zm-33 0l0 -31 -11 0 0 31 11 0zm-34 0l0 -31 -11 0 0 31 11 0zm-34 0l0 -31 -10 0 0 31 10 0zm-34 0l0 -31 -10 0 0 31 10 0zm-33 0l0 -31 -11 0 0 31 11 0zm-834 -72l0 31 10 0 0 -31 -10 0zm34 0l0 31 10 0 0 -31 -10 0zm33 0l0 31 11 0 0 -31 -11 0zm34 0l0 31 11 0 0 -31 -11 0zm34 0l0 31 10 0 0 -31 -10 0zm34 0l0 31 10 0 0 -31 -10 0zm33 0l0 31 11 0 0 -31 -11 0zm34 0l0 31 11 0 0 -31 -11 0zm34 0l0 31 10 0 0 -31 -10 0zm34 0l0 31 10 0 0 -31 -10 0zm33 0l0 31 11 0 0 -31 -11 0zm11 72l0 -31 -11 0 0 31 11 0zm-34 0l0 -31 -10 0 0 31 10 0zm-34 0l0 -31 -10 0 0 31 10 0zm-33 0l0 -31 -11 0 0 31 11 0zm-34 0l0 -31 -11 0 0 31 11 0zm-34 0l0 -31 -10 0 0 31 10 0zm-34 0l0 -31 -10 0 0 31 10 0zm-33 0l0 -31 -11 0 0 31 11 0zm-34 0l0 -31 -11 0 0 31 11 0zm-34 0l0 -31 -10 0 0 31 10 0zm-34 0l0 -31 -10 0 0 31 10 0zm-604 -72l0 31 10 0 0 -31 -10 0zm33 0l0 31 11 0 0 -31 -11 0zm34 0l0 31 11 0 0 -31 -11 0zm34 0l0 31 10 0 0 -31 -10 0zm34 0l0 31 10 0 0 -31 -10 0zm33 0l0 31 11 0 0 -31 -11 0zm34 0l0 31 11 0 0 -31 -11 0zm34 0l0 31 10 0 0 -31 -10 0zm34 0l0 31 10 0 0 -31 -10 0zm33 0l0 31 11 0 0 -31 -11 0zm34 0l0 31 11 0 0 -31 -11 0zm34 0l0 31 10 0 0 -31 -10 0zm34 0l0 31 10 0 0 -31 -10 0zm33 0l0 31 11 0 0 -31 -11 0zm34 0l0 31 11 0 0 -31 -11 0zm34 0l0 31 10 0 0 -31 -10 0zm34 0l0 31 10 0 0 -31 -10 0zm10 72l0 -31 -10 0 0 31 10 0zm-34 0l0 -31 -10 0 0 31 10 0zm-33 0l0 -31 -11 0 0 31 11 0zm-34 0l0 -31 -11 0 0 31 11 0zm-34 0l0 -31 -10 0 0 31 10 0zm-34 0l0 -31 -10 0 0 31 10 0zm-33 0l0 -31 -11 0 0 31 11 0zm-34 0l0 -31 -11 0 0 31 11 0zm-34 0l0 -31 -10 0 0 31 10 0zm-34 0l0 -31 -10 0 0 31 10 0zm-33 0l0 -31 -11 0 0 31 11 0zm-34 0l0 -31 -11 0 0 31 11 0zm-34 0l0 -31 -10 0 0 31 10 0zm-34 0l0 -31 -10 0 0 31 10 0zm-33 0l0 -31 -11 0 0 31 11 0zm-34 0l0 -31 -11 0 0 31 11 0zm-34 0l0 -31 -10 0 0 31 10 0zm-605 -72l0 31 11 0 0 -31 -11 0zm34 0l0 31 11 0 0 -31 -11 0zm34 0l0 31 10 0 0 -31 -10 0zm34 0l0 31 10 0 0 -31 -10 0zm33 0l0 31 11 0 0 -31 -11 0zm34 0l0 31 11 0 0 -31 -11 0zm34 0l0 31 10 0 0 -31 -10 0zm34 0l0 31 10 0 0 -31 -10 0zm33 0l0 31 11 0 0 -31 -11 0zm34 0l0 31 11 0 0 -31 -11 0zm34 0l0 31 10 0 0 -31 -10 0zm34 0l0 31 10 0 0 -31 -10 0zm33 0l0 31 11 0 0 -31 -11 0zm34 0l0 31 11 0 0 -31 -11 0zm34 0l0 31 10 0 0 -31 -10 0zm34 0l0 31 10 0 0 -31 -10 0zm33 0l0 31 11 0 0 -31 -11 0zm11 72l0 -31 -11 0 0 31 11 0zm-34 0l0 -31 -10 0 0 31 10 0zm-34 0l0 -31 -10 0 0 31 10 0zm-33 0l0 -31 -11 0 0 31 11 0zm-34 0l0 -31 -11 0 0 31 11 0zm-34 0l0 -31 -10 0 0 31 10 0zm-34 0l0 -31 -10 0 0 31 10 0zm-33 0l0 -31 -11 0 0 31 11 0zm-34 0l0 -31 -11 0 0 31 11 0zm-34 0l0 -31 -10 0 0 31 10 0zm-34 0l0 -31 -10 0 0 31 10 0zm-33 0l0 -31 -11 0 0 31 11 0zm-34 0l0 -31 -11 0 0 31 11 0zm-34 0l0 -31 -10 0 0 31 10 0zm-34 0l0 -31 -10 0 0 31 10 0zm-33 0l0 -31 -11 0 0 31 11 0zm-34 0l0 -31 -11 0 0 31 11 0z"/>
    <polygon class="fil21" points="271,1263 767,1263 767,1696 271,1696 "/>
    <polygon class="fil28" points="767,939 725,939 1329,230 1913,962 1913,1696 767,1696 "/>
    <polygon class="fil29" points="767,939 767,1292 189,1292 746,967 746,955 682,955 682,939 "/>
    <polygon class="fil18" points="1584,847 1872,847 1872,1053 1584,1053 "/>
    <g>
     <polygon class="fil23" points="2150,1098 2490,1098 2490,1342 2150,1342 "/>
     <path class="fil30" d="M2280 1117l31 0 0 60 -31 0 0 -60zm-104 0l32 0 0 60 -32 0 0 -60zm207 0l32 0 0 60 -32 0 0 -60zm49 0l31 0 0 60 -31 0 0 -60zm31 75l0 53 -31 0 0 -53 31 0zm0 68l0 60 -31 0 0 -60 31 0zm-48 60l-32 0 0 -60 32 0 0 60zm-32 -75l0 -53 32 0 0 53 -32 0zm-158 -128l31 0 0 60 -31 0 0 -60zm31 75l0 53 -31 0 0 -53 31 0zm0 68l0 60 -31 0 0 -60 31 0zm-48 60l-32 0 0 -60 32 0 0 60zm-32 -75l0 -53 32 0 0 53 -32 0zm152 -128l32 0 0 60 -32 0 0 -60zm32 75l0 53 -32 0 0 -53 32 0zm0 68l0 60 -32 0 0 -60 32 0zm-49 60l-31 0 0 -60 31 0 0 60zm-31 -75l0 -53 31 0 0 53 -31 0z"/>
    </g>
    <g>
     <polygon class="fil23" points="3072,1098 3412,1098 3412,1342 3072,1342 "/>
     <path class="fil30" d="M3202 1117l31 0 0 60 -31 0 0 -60zm-104 0l32 0 0 60 -32 0 0 -60zm207 0l32 0 0 60 -32 0 0 -60zm49 0l31 0 0 60 -31 0 0 -60zm31 75l0 53 -31 0 0 -53 31 0zm0 68l0 60 -31 0 0 -60 31 0zm-48 60l-32 0 0 -60 32 0 0 60zm-32 -75l0 -53 32 0 0 53 -32 0zm-158 -128l31 0 0 60 -31 0 0 -60zm31 75l0 53 -31 0 0 -53 31 0zm0 68l0 60 -31 0 0 -60 31 0zm-48 60l-32 0 0 -60 32 0 0 60zm-32 -75l0 -53 32 0 0 53 -32 0zm152 -128l32 0 0 60 -32 0 0 -60zm32 75l0 53 -32 0 0 -53 32 0zm0 68l0 60 -32 0 0 -60 32 0zm-49 60l-31 0 0 -60 31 0 0 60zm-31 -75l0 -53 31 0 0 53 -31 0z"/>
    </g>
    <g>
     <polygon class="fil23" points="2637,1098 2977,1098 2977,1342 2637,1342 "/>
     <path class="fil30" d="M2767 1117l31 0 0 60 -31 0 0 -60zm-104 0l32 0 0 60 -32 0 0 -60zm207 0l32 0 0 60 -32 0 0 -60zm49 0l31 0 0 60 -31 0 0 -60zm31 75l0 53 -31 0 0 -53 31 0zm0 68l0 60 -31 0 0 -60 31 0zm-48 60l-32 0 0 -60 32 0 0 60zm-32 -75l0 -53 32 0 0 53 -32 0zm-158 -128l31 0 0 60 -31 0 0 -60zm31 75l0 53 -31 0 0 -53 31 0zm0 68l0 60 -31 0 0 -60 31 0zm-48 60l-32 0 0 -60 32 0 0 60zm-32 -75l0 -53 32 0 0 53 -32 0zm152 -128l32 0 0 60 -32 0 0 -60zm32 75l0 53 -32 0 0 -53 32 0zm0 68l0 60 -32 0 0 -60 32 0zm-49 60l-31 0 0 -60 31 0 0 60zm-31 -75l0 -53 31 0 0 53 -31 0z"/>
    </g>
    <g>
     <polygon class="fil23" points="3559,1098 3899,1098 3899,1342 3559,1342 "/>
     <path class="fil30" d="M3689 1117l31 0 0 60 -31 0 0 -60zm-104 0l32 0 0 60 -32 0 0 -60zm207 0l32 0 0 60 -32 0 0 -60zm49 0l31 0 0 60 -31 0 0 -60zm31 75l0 53 -31 0 0 -53 31 0zm0 68l0 60 -31 0 0 -60 31 0zm-48 60l-32 0 0 -60 32 0 0 60zm-32 -75l0 -53 32 0 0 53 -32 0zm-158 -128l31 0 0 60 -31 0 0 -60zm31 75l0 53 -31 0 0 -53 31 0zm0 68l0 60 -31 0 0 -60 31 0zm-48 60l-32 0 0 -60 32 0 0 60zm-32 -75l0 -53 32 0 0 53 -32 0zm152 -128l32 0 0 60 -32 0 0 -60zm32 75l0 53 -32 0 0 -53 32 0zm0 68l0 60 -32 0 0 -60 32 0zm-49 60l-31 0 0 -60 31 0 0 60zm-31 -75l0 -53 31 0 0 53 -31 0z"/>
    </g>
    <g>
     <polygon class="fil23" points="1146,774 1487,774 1487,1018 1146,1018 "/>
     <path class="fil30" d="M1277 793l31 0 0 59 -31 0 0 -59zm-104 0l32 0 0 59 -32 0 0 -59zm207 0l31 0 0 59 -31 0 0 -59zm49 0l31 0 0 59 -31 0 0 -59zm31 75l0 52 -31 0 0 -52 31 0zm0 68l0 59 -31 0 0 -59 31 0zm-49 59l-31 0 0 -59 31 0 0 59zm-31 -75l0 -52 31 0 0 52 -31 0zm-158 -127l31 0 0 59 -31 0 0 -59zm31 75l0 52 -31 0 0 -52 31 0zm0 68l0 59 -31 0 0 -59 31 0zm-48 59l-32 0 0 -59 32 0 0 59zm-32 -75l0 -52 32 0 0 52 -32 0zm152 -127l32 0 0 59 -32 0 0 -59zm32 75l0 52 -32 0 0 -52 32 0zm0 68l0 59 -32 0 0 -59 32 0zm-49 59l-31 0 0 -59 31 0 0 59zm-31 -75l0 -52 31 0 0 52 -31 0z"/>
    </g>
    <g>
     <polygon class="fil23" points="1146,1230 1487,1230 1487,1473 1146,1473 "/>
     <path class="fil30" d="M1277 1249l31 0 0 59 -31 0 0 -59zm-104 0l32 0 0 59 -32 0 0 -59zm207 0l31 0 0 59 -31 0 0 -59zm49 0l31 0 0 59 -31 0 0 -59zm31 75l0 52 -31 0 0 -52 31 0zm0 67l0 60 -31 0 0 -60 31 0zm-49 60l-31 0 0 -60 31 0 0 60zm-31 -75l0 -52 31 0 0 52 -31 0zm-158 -127l31 0 0 59 -31 0 0 -59zm31 75l0 52 -31 0 0 -52 31 0zm0 67l0 60 -31 0 0 -60 31 0zm-48 60l-32 0 0 -60 32 0 0 60zm-32 -75l0 -52 32 0 0 52 -32 0zm152 -127l32 0 0 59 -32 0 0 -59zm32 75l0 52 -32 0 0 -52 32 0zm0 67l0 60 -32 0 0 -60 32 0zm-49 60l-31 0 0 -60 31 0 0 60zm-31 -75l0 -52 31 0 0 52 -31 0z"/>
    </g>
    <path class="fil21" d="M271 1349l23 0 0 58 -10 0c-5,0 -9,1 -13,2l0 -60z"/>
    <polygon class="fil28" points="888,747 1742,747 1329,230 "/>
    <polygon class="fil31" points="1913,962 1329,230 1571,370 2058,997 "/>
    <polygon class="fil32" points="1913,1696 1913,962 2007,1098 2007,1694 "/>
    <polygon class="fil29" points="1913,962 2007,1098 5053,1098 4929,758 4987,758 4451,321 1490,321 1492,324 1571,370 2058,997 "/>
    <polygon class="fil33" points="3928,1098 3808,1098 4100,721 4216,721 "/>
    <polygon class="fil22" points="3928,1098 4216,721 4617,1098 "/>
    <polygon class="fil23" points="4875,1316 4973,1316 4973,1394 4875,1394 "/>
    <path class="fil30" d="M4590 1121l-42 0 0 50 42 0 0 -50zm-53 0l-17 0 0 50 17 0 0 -50zm-17 60l0 49 17 0 0 -49 -17 0zm28 49l42 0 0 -49 -42 0 0 49z"/>
    <polygon class="fil23" points="4083,1098 4377,1098 4377,1692 4083,1692 "/>
    <path class="fil30" d="M4319 1399l32 0 0 63 -32 0 0 -63zm-210 218l0 -58 32 0 0 58 -32 0zm210 -300l32 0 0 63 -32 0 0 -63zm-210 -62l112 0 0 42 -112 0 0 -42zm130 0l112 0 0 42 -112 0 0 -42zm-130 62l32 0 0 63 -32 0 0 -63zm0 160l32 0 0 64 -32 0 0 -64zm0 -78l32 0 0 63 -32 0 0 -63zm210 160l32 0 0 63 -32 0 0 -63zm0 -82l32 0 0 64 -32 0 0 -64z"/>
    <path class="fil34" d="M4105 1108l252 0 0 122 -254 0 0 -122 2 0zm248 5l-246 0 0 112 246 0 0 -112z"/>
    <polygon class="fil23" points="3211,1441 3310,1441 3310,1504 3211,1504 "/>
    <polygon class="fil28" points="991,626 1020,97 1000,53 1108,31 1226,106 1204,133 1204,377 "/>
    <polygon class="fil32" points="1020,97 1116,93 1116,479 991,626 "/>
    <polygon class="fil28" points="1116,479 1116,93 1204,133 1204,377 "/>
    <polygon class="fil32" points="1251,321 1251,241 1237,197 1352,197 1421,238 1421,283 1329,230 "/>
    <g>
     <polygon class="fil23" points="427,1370 636,1370 636,1519 427,1519 "/>
     <path class="fil30" d="M507 1381l19 0 0 37 -19 0 0 -37zm-64 0l20 0 0 37 -20 0 0 -37zm127 0l20 0 0 37 -20 0 0 -37zm30 0l20 0 0 37 -20 0 0 -37zm20 46l0 32 -20 0 0 -32 20 0zm0 42l0 36 -20 0 0 -36 20 0zm-30 36l-20 0 0 -36 20 0 0 36zm-20 -46l0 -32 20 0 0 32 -20 0zm-97 -78l19 0 0 37 -19 0 0 -37zm19 46l0 32 -19 0 0 -32 19 0zm0 42l0 36 -19 0 0 -36 19 0zm-29 36l-20 0 0 -36 20 0 0 36zm-20 -46l0 -32 20 0 0 32 -20 0zm94 -78l19 0 0 37 -19 0 0 -37zm19 46l0 32 -19 0 0 -32 19 0zm0 42l0 36 -19 0 0 -36 19 0zm-30 36l-19 0 0 -36 19 0 0 36zm-19 -46l0 -32 19 0 0 32 -19 0z"/>
    </g>
    <path class="fil35" d="M5225 1696l-717 0 0 17 0 75 17 0 0 -75 45 0 0 75 16 0 0 -75 441 0 0 75 16 0 0 -75 182 0 0 -17zm-1062 17l0 75 -16 0 0 -75 -386 0 0 75 -17 0 0 -75 -419 0 0 75 -17 0 0 -75 -876 0 0 75 -16 0 0 -75 -409 0 0 75 -17 0 0 -75 -408 0 0 75 -16 0 0 -75 -383 0 0 75 -17 0 0 -75 -380 0 0 75 -17 0 0 -75 -358 0 0 75 -17 0 0 -75 -122 0 0 75 -17 0 0 -75 0 -17 17 0 122 0 17 0 358 0 17 0 380 0 17 0 383 0 16 0 408 0 17 0 409 0 16 0 876 0 17 0 822 0 16 0 30 0 17 0 0 17 0 75 -17 0 0 -75 -30 0z"/>
   </g>
  </g>
 </g>
</svg>
