<?xml version="1.0" encoding="UTF-8"?>
<!DOCTYPE svg PUBLIC "-//W3C//DTD SVG 1.1//EN" "http://www.w3.org/Graphics/SVG/1.1/DTD/svg11.dtd">
<!-- Creator: CorelDRAW X8 -->
<svg xmlns="http://www.w3.org/2000/svg" xml:space="preserve" width="6.11867in" height="3.26861in" version="1.1" style="shape-rendering:geometricPrecision; text-rendering:geometricPrecision; image-rendering:optimizeQuality; fill-rule:evenodd; clip-rule:evenodd"
viewBox="0 0 6672 3564"
 xmlns:xlink="http://www.w3.org/1999/xlink">
 <defs>
  <style type="text/css">
   <![CDATA[
    .fil10 {fill:none}
    .fil14 {fill:#1B1F25}
    .fil12 {fill:#222429}
    .fil36 {fill:#2E3640}
    .fil9 {fill:#313439}
    .fil11 {fill:#526865}
    .fil7 {fill:#5A2E25}
    .fil8 {fill:#7F3C2C}
    .fil2 {fill:#883D2A}
    .fil6 {fill:#883D2A}
    .fil37 {fill:#949FA3}
    .fil4 {fill:#A0B3BA}
    .fil13 {fill:#A1553F}
    .fil1 {fill:#AF6351}
    .fil3 {fill:#B1C4CB}
    .fil25 {fill:black;fill-rule:nonzero}
    .fil17 {fill:#2E3640;fill-rule:nonzero}
    .fil21 {fill:#373735;fill-rule:nonzero}
    .fil27 {fill:#4D4D4D;fill-rule:nonzero}
    .fil15 {fill:#526865;fill-rule:nonzero}
    .fil35 {fill:#534940;fill-rule:nonzero}
    .fil20 {fill:#868682;fill-rule:nonzero}
    .fil5 {fill:#883D2A;fill-rule:nonzero}
    .fil33 {fill:#8B1813;fill-rule:nonzero}
    .fil16 {fill:#A0553F;fill-rule:nonzero}
    .fil34 {fill:#A1553F;fill-rule:nonzero}
    .fil31 {fill:#C5C5C5;fill-rule:nonzero}
    .fil19 {fill:#CECECE;fill-rule:nonzero}
    .fil29 {fill:#D32A19;fill-rule:nonzero}
    .fil26 {fill:#E0CD1A;fill-rule:nonzero}
    .fil18 {fill:#EBEBEB;fill-rule:nonzero}
    .fil28 {fill:#F33A1B;fill-rule:nonzero}
    .fil23 {fill:#FBED20;fill-rule:nonzero}
    .fil30 {fill:white;fill-rule:nonzero}
    .fil0 {fill:black;fill-opacity:0.090196}
    .fil32 {fill:white;fill-rule:nonzero;fill-opacity:0.341176}
    .fil24 {fill:white;fill-rule:nonzero;fill-opacity:0.360784}
    .fil22 {fill:white;fill-rule:nonzero;fill-opacity:0.549020}
   ]]>
  </style>
 </defs>
 <g id="Layer_x0020_1">
  <metadata id="CorelCorpID_0Corel-Layer"/>
  <path class="fil0" d="M2638 1489c1457,0 2638,65 2638,146 0,81 -1181,147 -2638,147 -1457,0 -2638,-66 -2638,-147 0,-81 1181,-146 2638,-146z"/>
  <polygon class="fil1" points="1932,1043 4848,1043 4848,1623 1932,1623 "/>
  <polygon class="fil2" points="3860,1043 4387,1043 4387,1618 3860,1618 "/>
  <polygon class="fil1" points="4848,1043 4387,1043 4387,1618 4848,1618 "/>
  <polygon class="fil3" points="4492,1043 4387,1043 4387,1346 4492,1346 "/>
  <polygon class="fil4" points="4492,1225 4387,1225 4387,1346 4492,1346 "/>
  <g id="_1676918817712">
   <polygon class="fil2" points="4366,1409 4546,1409 4757,1623 4342,1623 "/>
   <polygon class="fil5" points="4339,1298 4575,1298 4709,1431 4709,1623 4697,1623 4697,1436 4571,1309 4339,1309 "/>
   <polygon class="fil6" points="4397,1302 4402,1302 4402,1608 4397,1608 "/>
   <polygon class="fil6" points="4413,1302 4418,1302 4418,1608 4413,1608 "/>
   <polygon class="fil6" points="4429,1302 4433,1302 4433,1608 4429,1608 "/>
   <polygon class="fil6" points="4444,1302 4449,1302 4449,1608 4444,1608 "/>
   <polygon class="fil6" points="4460,1302 4465,1302 4465,1608 4460,1608 "/>
   <polygon class="fil6" points="4475,1302 4480,1302 4480,1608 4475,1608 "/>
   <polygon class="fil6" points="4491,1302 4496,1302 4496,1608 4491,1608 "/>
   <polygon class="fil6" points="4507,1302 4511,1302 4511,1608 4507,1608 "/>
   <polygon class="fil6" points="4522,1302 4527,1302 4527,1608 4522,1608 "/>
   <polygon class="fil6" points="4538,1302 4543,1302 4543,1608 4538,1608 "/>
   <polygon class="fil6" points="4553,1302 4558,1302 4558,1608 4553,1608 "/>
   <polygon class="fil6" points="4569,1302 4574,1302 4574,1608 4569,1608 "/>
   <polygon class="fil6" points="4585,1319 4590,1319 4590,1608 4585,1608 "/>
   <polygon class="fil6" points="4600,1332 4605,1332 4605,1608 4600,1608 "/>
   <polygon class="fil6" points="4616,1349 4621,1349 4621,1608 4616,1608 "/>
   <polygon class="fil6" points="4632,1365 4636,1365 4636,1608 4632,1608 "/>
   <polygon class="fil6" points="4647,1379 4652,1379 4652,1608 4647,1608 "/>
   <polygon class="fil6" points="4663,1397 4668,1397 4668,1608 4663,1608 "/>
   <polygon class="fil6" points="4678,1413 4683,1413 4683,1608 4678,1608 "/>
  </g>
  <path class="fil7" d="M2384 1545l22 0 0 29 10 0 0 -29 23 0 0 29 10 0 0 -29 23 0 0 29 10 0 0 -29 23 0 0 29 10 0 0 -29 23 0 0 29 10 0 0 -29 23 0 0 29 10 0 0 -29 23 0 0 29 10 0 0 -29 23 0 0 29 10 0 0 -29 23 0 0 29 10 0 0 -29 23 0 0 29 10 0 0 -29 22 0 0 29 11 0 0 -29 22 0 0 29 11 0 0 -29 22 0 0 29 11 0 0 -29 22 0 0 29 11 0 0 -29 22 0 0 29 11 0 0 -29 22 0 0 29 11 0 0 -29 22 0 0 29 11 0 0 -29 21 0 21 0 0 29 11 0 0 -29 22 0 0 29 11 0 0 -29 22 0 0 29 11 0 0 -29 22 0 0 29 11 0 0 -29 22 0 0 29 11 0 0 -29 22 0 0 29 11 0 0 -29 22 0 0 29 11 0 0 -29 22 0 0 29 11 0 0 -29 22 0 0 29 11 0 0 -29 22 0 0 29 11 0 0 -29 22 0 0 29 11 0 0 -29 22 0 0 29 11 0 0 -29 22 0 0 29 11 0 0 -29 22 0 0 29 11 0 0 -29 22 0 0 29 11 0 0 -29 22 0 0 29 11 0 0 -29 22 0 0 29 11 0 0 -29 21 0 21 0 0 29 11 0 0 -29 22 0 0 29 11 0 0 -29 22 0 0 29 11 0 0 -29 22 0 0 29 11 0 0 -29 22 0 0 29 11 0 0 -29 22 0 0 29 10 0 0 -29 23 0 0 29 10 0 0 -29 23 0 0 29 10 0 0 -29 23 0 0 29 10 0 0 -29 23 0 0 29 10 0 0 -29 23 0 0 29 10 0 0 -29 23 0 0 29 0 10 0 30 0 9 0 30 0 10 0 29 -23 0 0 -29 -10 0 0 29 -23 0 0 -29 -10 0 0 29 -23 0 0 -29 -10 0 0 29 -23 0 0 -29 -10 0 0 29 -23 0 0 -29 -10 0 0 29 -23 0 0 -29 -10 0 0 29 -22 0 0 -29 -11 0 0 29 -22 0 0 -29 -11 0 0 29 -22 0 0 -29 -11 0 0 29 -22 0 0 -29 -11 0 0 29 -22 0 0 -29 -11 0 0 29 -21 0 -21 0 0 -29 -11 0 0 29 -22 0 0 -29 -11 0 0 29 -22 0 0 -29 -11 0 0 29 -22 0 0 -29 -11 0 0 29 -22 0 0 -29 -11 0 0 29 -22 0 0 -29 -11 0 0 29 -22 0 0 -29 -11 0 0 29 -22 0 0 -29 -11 0 0 29 -22 0 0 -29 -11 0 0 29 -22 0 0 -29 -11 0 0 29 -22 0 0 -29 -11 0 0 29 -22 0 0 -29 -11 0 0 29 -22 0 0 -29 -11 0 0 29 -22 0 0 -29 -11 0 0 29 -22 0 0 -29 -11 0 0 29 -22 0 0 -29 -11 0 0 29 -22 0 0 -29 -11 0 0 29 -21 0 -21 0 0 -29 -11 0 0 29 -22 0 0 -29 -11 0 0 29 -22 0 0 -29 -11 0 0 29 -22 0 0 -29 -11 0 0 29 -22 0 0 -29 -11 0 0 29 -22 0 0 -29 -11 0 0 29 -22 0 0 -29 -11 0 0 29 -22 0 0 -29 -10 0 0 29 -23 0 0 -29 -10 0 0 29 -23 0 0 -29 -10 0 0 29 -23 0 0 -29 -10 0 0 29 -23 0 0 -29 -10 0 0 29 -23 0 0 -29 -10 0 0 29 -23 0 0 -29 -10 0 0 29 -23 0 0 -29 -10 0 0 29 -23 0 0 -29 -10 0 0 29 -23 0 0 -29 -10 0 0 29 -22 0 0 -29 0 -10 0 -30 0 -9 0 -30 0 -10 0 -29zm2393 -32l22 0 0 29 10 0 0 -29 23 0 0 29 10 0 0 -29 23 0 0 29 10 0 0 -29 23 0 0 29 10 0 0 -29 23 0 0 29 10 0 0 -29 23 0 0 29 10 0 0 -29 23 0 0 29 10 0 0 -29 23 0 0 29 10 0 0 -29 18 0 0 147 -18 0 0 -29 -10 0 0 29 -23 0 0 -29 -10 0 0 29 -23 0 0 -29 -10 0 0 29 -23 0 0 -29 -10 0 0 22 0 10 0 29 -21 0 0 -29 -10 0 0 29 -23 0 0 -29 -10 0 0 29 -23 0 0 -29 -10 0 0 29 -23 0 0 -29 -10 0 0 29 -23 0 0 -29 -10 0 0 29 -23 0 0 -29 -10 0 0 29 -23 0 0 -29 -10 0 0 29 -23 0 0 -29 -10 0 0 29 -23 0 0 -29 -10 0 0 29 -23 0 0 -29 -10 0 0 29 -23 0 0 -29 -10 0 0 29 -23 0 0 -29 -10 0 0 29 -23 0 0 -29 -10 0 0 29 -23 0 0 -29 -10 0 0 29 -23 0 0 -29 -10 0 0 29 -23 0 0 -29 -10 0 0 29 -23 0 0 -29 -10 0 0 29 -21 0 0 -29 0 -10 0 -30 0 -9 0 -30 0 -10 0 -29 21 0 0 29 10 0 0 -29 23 0 0 29 10 0 0 -29 23 0 0 29 10 0 0 -29 23 0 0 29 10 0 0 -29 23 0 0 29 10 0 0 -29 23 0 0 29 10 0 0 -29 23 0 0 29 10 0 0 -29 23 0 0 29 10 0 0 -29 23 0 0 29 10 0 0 -29 23 0 0 29 10 0 0 -29 23 0 0 29 10 0 0 -29 23 0 0 29 10 0 0 -29 23 0 0 29 9 0 0 -22 0 -10 0 -29zm131 140l0 -22 -8 0 0 22 8 0zm-33 0l0 -22 -8 0 0 22 8 0zm-33 0l0 -22 -8 0 0 22 8 0zm-33 0l0 -22 -8 0 0 22 8 0zm-32 0l0 -22 0 -8 -9 0 0 30 9 0zm0 -39l0 -23 0 -7 -9 0 0 30 9 0zm32 -40l0 -22 -8 0 0 22 8 0zm33 0l0 -22 -8 0 0 22 8 0zm33 0l0 -22 -8 0 0 22 8 0zm33 0l0 -22 -8 0 0 22 8 0zm23 8l10 0 0 -30 -10 0 0 22 0 8zm33 -30l0 30 10 0 0 -30 -10 0zm33 0l0 30 10 0 0 -30 -10 0zm33 0l0 30 10 0 0 -30 -10 0zm10 69l0 -30 -10 0 0 30 10 0zm-33 0l0 -30 -10 0 0 30 10 0zm-33 0l0 -30 -10 0 0 30 10 0zm-33 0l0 -30 -10 0 0 23 0 7 10 0zm-33 -7l0 -23 -8 0 0 23 8 0zm-33 0l0 -23 -8 0 0 23 8 0zm-33 0l0 -23 -8 0 0 23 8 0zm-33 0l0 -23 -8 0 0 23 8 0zm-437 -30l0 30 10 0 0 -30 -10 0zm33 0l0 30 10 0 0 -30 -10 0zm33 0l0 30 10 0 0 -30 -10 0zm33 0l0 30 10 0 0 -30 -10 0zm33 0l0 30 10 0 0 -30 -10 0zm33 0l0 30 10 0 0 -30 -10 0zm33 0l0 30 10 0 0 -30 -10 0zm33 0l0 30 10 0 0 -30 -10 0zm33 0l0 30 10 0 0 -30 -10 0zm33 0l0 30 10 0 0 -30 -10 0zm33 0l0 30 10 0 0 -30 -10 0zm33 0l0 30 10 0 0 -30 -10 0zm10 69l0 -30 -10 0 0 30 10 0zm-33 0l0 -30 -10 0 0 30 10 0zm-33 0l0 -30 -10 0 0 30 10 0zm-33 0l0 -30 -10 0 0 30 10 0zm-33 0l0 -30 -10 0 0 30 10 0zm-33 0l0 -30 -10 0 0 30 10 0zm-33 0l0 -30 -10 0 0 30 10 0zm-33 0l0 -30 -10 0 0 30 10 0zm-33 0l0 -30 -10 0 0 30 10 0zm-33 0l0 -30 -10 0 0 30 10 0zm-33 0l0 -30 -10 0 0 30 10 0zm-33 0l0 -30 -10 0 0 30 10 0zm-815 -69l0 30 11 0 0 -30 -11 0zm33 0l0 30 11 0 0 -30 -11 0zm33 0l0 30 11 0 0 -30 -11 0zm33 0l0 30 11 0 0 -30 -11 0zm33 0l0 30 11 0 0 -30 -11 0zm33 0l0 30 10 0 0 -30 -10 0zm33 0l0 30 10 0 0 -30 -10 0zm33 0l0 30 10 0 0 -30 -10 0zm33 0l0 30 10 0 0 -30 -10 0zm33 0l0 30 10 0 0 -30 -10 0zm33 0l0 30 10 0 0 -30 -10 0zm10 69l0 -30 -10 0 0 30 10 0zm-33 0l0 -30 -10 0 0 30 10 0zm-33 0l0 -30 -10 0 0 30 10 0zm-33 0l0 -30 -10 0 0 30 10 0zm-33 0l0 -30 -10 0 0 30 10 0zm-33 0l0 -30 -10 0 0 30 10 0zm-32 0l0 -30 -11 0 0 30 11 0zm-33 0l0 -30 -11 0 0 30 11 0zm-33 0l0 -30 -11 0 0 30 11 0zm-33 0l0 -30 -11 0 0 30 11 0zm-33 0l0 -30 -11 0 0 30 11 0zm-592 -69l0 30 11 0 0 -30 -11 0zm33 0l0 30 11 0 0 -30 -11 0zm33 0l0 30 11 0 0 -30 -11 0zm33 0l0 30 11 0 0 -30 -11 0zm33 0l0 30 11 0 0 -30 -11 0zm33 0l0 30 11 0 0 -30 -11 0zm33 0l0 30 11 0 0 -30 -11 0zm33 0l0 30 11 0 0 -30 -11 0zm33 0l0 30 11 0 0 -30 -11 0zm33 0l0 30 11 0 0 -30 -11 0zm33 0l0 30 11 0 0 -30 -11 0zm33 0l0 30 11 0 0 -30 -11 0zm33 0l0 30 11 0 0 -30 -11 0zm33 0l0 30 11 0 0 -30 -11 0zm33 0l0 30 11 0 0 -30 -11 0zm33 0l0 30 11 0 0 -30 -11 0zm33 0l0 30 11 0 0 -30 -11 0zm11 69l0 -30 -11 0 0 30 11 0zm-33 0l0 -30 -11 0 0 30 11 0zm-33 0l0 -30 -11 0 0 30 11 0zm-33 0l0 -30 -11 0 0 30 11 0zm-33 0l0 -30 -11 0 0 30 11 0zm-33 0l0 -30 -11 0 0 30 11 0zm-33 0l0 -30 -11 0 0 30 11 0zm-33 0l0 -30 -11 0 0 30 11 0zm-33 0l0 -30 -11 0 0 30 11 0zm-33 0l0 -30 -11 0 0 30 11 0zm-33 0l0 -30 -11 0 0 30 11 0zm-33 0l0 -30 -11 0 0 30 11 0zm-33 0l0 -30 -11 0 0 30 11 0zm-33 0l0 -30 -11 0 0 30 11 0zm-33 0l0 -30 -11 0 0 30 11 0zm-33 0l0 -30 -11 0 0 30 11 0zm-33 0l0 -30 -11 0 0 30 11 0zm-591 -69l0 30 10 0 0 -30 -10 0zm33 0l0 30 10 0 0 -30 -10 0zm33 0l0 30 10 0 0 -30 -10 0zm33 0l0 30 10 0 0 -30 -10 0zm33 0l0 30 10 0 0 -30 -10 0zm33 0l0 30 10 0 0 -30 -10 0zm33 0l0 30 10 0 0 -30 -10 0zm33 0l0 30 10 0 0 -30 -10 0zm33 0l0 30 10 0 0 -30 -10 0zm33 0l0 30 10 0 0 -30 -10 0zm32 0l0 30 11 0 0 -30 -11 0zm33 0l0 30 11 0 0 -30 -11 0zm33 0l0 30 11 0 0 -30 -11 0zm33 0l0 30 11 0 0 -30 -11 0zm33 0l0 30 11 0 0 -30 -11 0zm33 0l0 30 11 0 0 -30 -11 0zm33 0l0 30 11 0 0 -30 -11 0zm11 69l0 -30 -11 0 0 30 11 0zm-33 0l0 -30 -11 0 0 30 11 0zm-33 0l0 -30 -11 0 0 30 11 0zm-33 0l0 -30 -11 0 0 30 11 0zm-33 0l0 -30 -11 0 0 30 11 0zm-33 0l0 -30 -11 0 0 30 11 0zm-33 0l0 -30 -11 0 0 30 11 0zm-33 0l0 -30 -10 0 0 30 10 0zm-33 0l0 -30 -10 0 0 30 10 0zm-33 0l0 -30 -10 0 0 30 10 0zm-33 0l0 -30 -10 0 0 30 10 0zm-33 0l0 -30 -10 0 0 30 10 0zm-33 0l0 -30 -10 0 0 30 10 0zm-33 0l0 -30 -10 0 0 30 10 0zm-33 0l0 -30 -10 0 0 30 10 0zm-33 0l0 -30 -10 0 0 30 10 0zm-33 0l0 -30 -10 0 0 30 10 0z"/>
  <polygon class="fil1" points="234,1205 719,1205 719,1627 234,1627 "/>
  <polygon class="fil8" points="720,887 678,887 1269,194 1840,910 1840,1627 719,1627 "/>
  <polygon class="fil9" points="720,887 719,1233 155,1233 699,915 699,903 636,903 636,887 "/>
  <polygon class="fil10" points="1518,798 1799,798 1799,999 1518,999 "/>
  <g id="_1676918827184">
   <polygon class="fil3" points="2071,1043 2403,1043 2403,1281 2071,1281 "/>
   <path class="fil11" d="M2198 1062l31 0 0 58 -31 0 0 -58zm-101 0l31 0 0 58 -31 0 0 -58zm202 0l31 0 0 58 -31 0 0 -58zm48 0l30 0 0 58 -30 0 0 -58zm30 73l0 51 -30 0 0 -51 30 0zm0 66l0 59 -30 0 0 -59 30 0zm-47 59l-31 0 0 -59 31 0 0 59zm-31 -74l0 -51 31 0 0 51 -31 0zm-155 -124l31 0 0 58 -31 0 0 -58zm31 73l0 51 -31 0 0 -51 31 0zm0 66l0 59 -31 0 0 -59 31 0zm-47 59l-31 0 0 -59 31 0 0 59zm-31 -74l0 -51 31 0 0 51 -31 0zm148 -124l31 0 0 58 -31 0 0 -58zm31 73l0 51 -31 0 0 -51 31 0zm0 66l0 59 -31 0 0 -59 31 0zm-47 59l-31 0 0 -59 31 0 0 59zm-31 -74l0 -51 31 0 0 51 -31 0z"/>
  </g>
  <g id="_1676918833872">
   <polygon class="fil3" points="2972,1043 3304,1043 3304,1281 2972,1281 "/>
   <path class="fil11" d="M3099 1062l31 0 0 58 -31 0 0 -58zm-101 0l31 0 0 58 -31 0 0 -58zm202 0l31 0 0 58 -31 0 0 -58zm48 0l30 0 0 58 -30 0 0 -58zm30 73l0 51 -30 0 0 -51 30 0zm0 66l0 59 -30 0 0 -59 30 0zm-47 59l-31 0 0 -59 31 0 0 59zm-31 -74l0 -51 31 0 0 51 -31 0zm-155 -124l31 0 0 58 -31 0 0 -58zm31 73l0 51 -31 0 0 -51 31 0zm0 66l0 59 -31 0 0 -59 31 0zm-47 59l-31 0 0 -59 31 0 0 59zm-31 -74l0 -51 31 0 0 51 -31 0zm149 -124l30 0 0 58 -30 0 0 -58zm30 73l0 51 -30 0 0 -51 30 0zm0 66l0 59 -30 0 0 -59 30 0zm-47 59l-31 0 0 -59 31 0 0 59zm-31 -74l0 -51 31 0 0 51 -31 0z"/>
  </g>
  <g id="_1676918835216">
   <polygon class="fil3" points="2547,1043 2879,1043 2879,1281 2547,1281 "/>
   <path class="fil11" d="M2674 1062l31 0 0 58 -31 0 0 -58zm-101 0l30 0 0 58 -30 0 0 -58zm202 0l31 0 0 58 -31 0 0 -58zm47 0l31 0 0 58 -31 0 0 -58zm31 73l0 51 -31 0 0 -51 31 0zm0 66l0 59 -31 0 0 -59 31 0zm-47 59l-31 0 0 -59 31 0 0 59zm-31 -74l0 -51 31 0 0 51 -31 0zm-155 -124l31 0 0 58 -31 0 0 -58zm31 73l0 51 -31 0 0 -51 31 0zm0 66l0 59 -31 0 0 -59 31 0zm-48 59l-30 0 0 -59 30 0 0 59zm-30 -74l0 -51 30 0 0 51 -30 0zm148 -124l31 0 0 58 -31 0 0 -58zm31 73l0 51 -31 0 0 -51 31 0zm0 66l0 59 -31 0 0 -59 31 0zm-47 59l-31 0 0 -59 31 0 0 59zm-31 -74l0 -51 31 0 0 51 -31 0z"/>
  </g>
  <g id="_1676918836688">
   <polygon class="fil3" points="3448,1043 3780,1043 3780,1281 3448,1281 "/>
   <path class="fil11" d="M3575 1062l31 0 0 58 -31 0 0 -58zm-101 0l31 0 0 58 -31 0 0 -58zm202 0l31 0 0 58 -31 0 0 -58zm48 0l30 0 0 58 -30 0 0 -58zm30 73l0 51 -30 0 0 -51 30 0zm0 66l0 59 -30 0 0 -59 30 0zm-47 59l-31 0 0 -59 31 0 0 59zm-31 -74l0 -51 31 0 0 51 -31 0zm-155 -124l31 0 0 58 -31 0 0 -58zm31 73l0 51 -31 0 0 -51 31 0zm0 66l0 59 -31 0 0 -59 31 0zm-47 59l-31 0 0 -59 31 0 0 59zm-31 -74l0 -51 31 0 0 51 -31 0zm148 -124l31 0 0 58 -31 0 0 -58zm31 73l0 51 -31 0 0 -51 31 0zm0 66l0 59 -31 0 0 -59 31 0zm-47 59l-31 0 0 -59 31 0 0 59zm-31 -74l0 -51 31 0 0 51 -31 0z"/>
  </g>
  <g id="_1676918835728">
   <polygon class="fil3" points="1090,726 1423,726 1423,964 1090,964 "/>
   <path class="fil11" d="M1217 745l31 0 0 58 -31 0 0 -58zm-101 0l31 0 0 58 -31 0 0 -58zm203 0l30 0 0 58 -30 0 0 -58zm47 0l31 0 0 58 -31 0 0 -58zm31 73l0 51 -31 0 0 -51 31 0zm0 66l0 58 -31 0 0 -58 31 0zm-48 58l-30 0 0 -58 30 0 0 58zm-30 -73l0 -51 30 0 0 51 -30 0zm-155 -124l30 0 0 58 -30 0 0 -58zm30 73l0 51 -30 0 0 -51 30 0zm0 66l0 58 -30 0 0 -58 30 0zm-47 58l-31 0 0 -58 31 0 0 58zm-31 -73l0 -51 31 0 0 51 -31 0zm149 -124l31 0 0 58 -31 0 0 -58zm31 73l0 51 -31 0 0 -51 31 0zm0 66l0 58 -31 0 0 -58 31 0zm-48 58l-31 0 0 -58 31 0 0 58zm-31 -73l0 -51 31 0 0 51 -31 0z"/>
  </g>
  <g id="_1676918837136">
   <polygon class="fil3" points="1090,1172 1423,1172 1423,1410 1090,1410 "/>
   <path class="fil11" d="M1217 1190l31 0 0 58 -31 0 0 -58zm-101 0l31 0 0 58 -31 0 0 -58zm203 0l30 0 0 58 -30 0 0 -58zm47 0l31 0 0 58 -31 0 0 -58zm31 73l0 52 -31 0 0 -52 31 0zm0 67l0 58 -31 0 0 -58 31 0zm-48 58l-30 0 0 -58 30 0 0 58zm-30 -73l0 -52 30 0 0 52 -30 0zm-155 -125l30 0 0 58 -30 0 0 -58zm30 73l0 52 -30 0 0 -52 30 0zm0 67l0 58 -30 0 0 -58 30 0zm-47 58l-31 0 0 -58 31 0 0 58zm-31 -73l0 -52 31 0 0 52 -31 0zm149 -125l31 0 0 58 -31 0 0 -58zm31 73l0 52 -31 0 0 -52 31 0zm0 67l0 58 -31 0 0 -58 31 0zm-48 58l-31 0 0 -58 31 0 0 58zm-31 -73l0 -52 31 0 0 52 -31 0z"/>
  </g>
  <path class="fil1" d="M234 1288l23 0 0 57 -10 0c-4,0 -9,0 -13,2l0 -59z"/>
  <polygon class="fil8" points="838,700 1672,700 1269,194 "/>
  <polygon class="fil12" points="1840,910 1269,194 1506,332 1981,944 "/>
  <polygon class="fil13" points="1840,1627 1840,910 1932,1043 1932,1625 "/>
  <polygon class="fil9" points="1840,910 1932,1043 4908,1043 4787,710 4843,710 4320,284 1426,284 1428,286 1506,332 1981,944 "/>
  <polygon class="fil14" points="3809,1043 3692,1043 3977,675 4090,675 "/>
  <polygon class="fil2" points="3809,1043 4090,675 4483,1043 "/>
  <polygon class="fil3" points="4735,1256 4830,1256 4830,1332 4735,1332 "/>
  <path class="fil11" d="M4456 1066l-42 0 0 48 42 0 0 -48zm-52 0l-17 0 0 48 17 0 0 -48zm-17 58l0 48 17 0 0 -48 -17 0zm27 48l42 0 0 -48 -42 0 0 48z"/>
  <polygon class="fil3" points="3960,1043 4248,1043 4248,1623 3960,1623 "/>
  <path class="fil11" d="M4191 1337l31 0 0 62 -31 0 0 -62zm-205 213l0 -56 31 0 0 56 -31 0zm205 -293l31 0 0 62 -31 0 0 -62zm-205 -60l110 0 0 40 -110 0 0 -40zm126 0l110 0 0 40 -110 0 0 -40zm-126 60l31 0 0 62 -31 0 0 -62zm0 157l31 0 0 61 -31 0 0 -61zm0 -77l31 0 0 62 -31 0 0 -62zm205 157l31 0 0 61 -31 0 0 -61zm0 -80l31 0 0 61 -31 0 0 -61z"/>
  <path class="fil15" d="M3982 1053l246 0 0 119 -248 0 0 -119 2 0zm242 4l-240 0 0 110 240 0 0 -110z"/>
  <polygon class="fil3" points="3108,1378 3204,1378 3204,1440 3108,1440 "/>
  <polygon class="fil8" points="938,582 967,65 947,22 1053,0 1168,74 1146,100 1146,338 "/>
  <polygon class="fil13" points="967,65 1061,61 1061,438 938,582 "/>
  <polygon class="fil8" points="1061,438 1061,61 1146,100 1146,338 "/>
  <polygon class="fil13" points="1192,284 1192,205 1179,162 1291,162 1358,202 1358,246 1269,194 "/>
  <path class="fil16" d="M492 3105l-12 109 -43 0 -23 -204 31 0 17 161 16 -161 30 0 16 162 17 -162 28 0 -23 204 -42 0 -12 -109zm122 62c0,7 2,13 5,16 3,3 7,4 12,4 5,0 9,-1 12,-4 3,-3 4,-9 4,-16l0 -110c0,-7 -1,-12 -4,-15 -3,-3 -7,-5 -12,-5 -5,0 -9,2 -12,5 -3,3 -5,8 -5,15l0 110zm-32 -108c0,-16 4,-29 13,-38 8,-9 20,-13 36,-13 15,0 27,4 36,13 8,9 12,22 12,38l0 106c0,16 -4,29 -12,38 -9,9 -21,13 -36,13 -16,0 -28,-4 -36,-13 -9,-9 -13,-22 -13,-38l0 -106zm185 155c-1,-2 -1,-3 -1,-4 -1,-1 -1,-3 -1,-4 -1,-2 -1,-4 -1,-7 0,-3 0,-6 0,-10l0 -32c0,-10 -2,-16 -5,-20 -3,-4 -9,-6 -16,-6l-11 0 0 83 -32 0 0 -204 48 0c17,0 29,4 36,12 8,8 11,19 11,35l0 16c0,21 -7,35 -20,41 8,4 13,9 16,16 3,8 5,17 5,28l0 31c0,5 0,9 0,13 1,4 2,8 3,12l-32 0zm-35 -175l0 63 12 0c6,0 11,-2 14,-5 4,-3 5,-9 5,-17l0 -20c0,-7 -1,-12 -3,-16 -3,-3 -7,-5 -13,-5l-15 0zm132 -29c16,0 28,5 36,13 7,9 11,21 11,38l0 26c0,17 -4,29 -11,38 -8,8 -20,12 -36,12l-15 0 0 77 -32 0 0 -204 47 0zm-15 29l0 69 15 0c5,0 9,-1 11,-4 3,-3 4,-8 4,-15l0 -30c0,-8 -1,-13 -4,-16 -2,-2 -6,-4 -11,-4l-15 0zm79 -29l32 0 0 175 52 0 0 29 -84 0 0 -204zm130 86l44 0 0 29 -44 0 0 60 55 0 0 29 -87 0 0 -204 87 0 0 29 -55 0 0 57zm71 -37c0,-16 4,-29 12,-38 8,-9 19,-13 35,-13 16,0 28,4 35,13 8,9 12,22 12,38l0 7 -30 0 0 -9c0,-7 -1,-12 -4,-15 -3,-3 -7,-5 -12,-5 -5,0 -9,2 -12,5 -3,3 -4,8 -4,15 0,7 2,13 5,19 3,5 7,10 11,15 5,4 10,9 15,14 6,5 11,10 15,15 5,6 9,12 12,20 3,7 5,15 5,25 0,16 -4,29 -13,38 -8,9 -19,13 -35,13 -16,0 -28,-4 -36,-13 -8,-9 -12,-22 -12,-38l0 -13 30 0 0 15c0,7 2,12 5,15 3,3 7,5 12,5 5,0 9,-2 12,-5 3,-3 5,-8 5,-15 0,-7 -2,-13 -5,-18 -3,-6 -7,-11 -12,-16 -4,-4 -9,-9 -15,-14 -5,-5 -10,-10 -15,-15 -4,-6 -8,-12 -11,-20 -3,-7 -5,-15 -5,-25zm113 -49l50 0c16,0 28,5 36,13 8,9 12,21 12,38l0 102c0,17 -4,29 -12,38 -8,8 -20,13 -36,13l-50 0 0 -204zm32 29l0 146 18 0c5,0 9,-2 12,-5 3,-3 4,-8 4,-15l0 -106c0,-7 -1,-12 -4,-15 -3,-3 -7,-5 -12,-5l-18 0zm116 128c0,7 1,13 4,16 3,3 7,4 12,4 5,0 9,-1 12,-4 3,-3 5,-9 5,-16l0 -110c0,-7 -2,-12 -5,-15 -3,-3 -7,-5 -12,-5 -5,0 -9,2 -12,5 -3,3 -4,8 -4,15l0 110zm-32 -108c0,-16 4,-29 12,-38 9,-9 21,-13 36,-13 16,0 28,4 36,13 9,9 13,22 13,38l0 106c0,16 -4,29 -13,38 -8,9 -20,13 -36,13 -15,0 -27,-4 -36,-13 -8,-9 -12,-22 -12,-38l0 -106zm146 7l0 148 -29 0 0 -204 40 0 33 122 0 -122 29 0 0 204 -33 0 -40 -148zm208 89l22 -145 45 0 0 204 -31 0 0 -146 -22 146 -30 0 -24 -144 0 144 -28 0 0 -204 45 0 23 145zm122 -59l44 0 0 29 -44 0 0 60 55 0 0 29 -87 0 0 -204 87 0 0 29 -55 0 0 57zm142 59l22 -145 45 0 0 204 -30 0 0 -146 -23 146 -30 0 -24 -144 0 144 -28 0 0 -204 45 0 23 145zm119 12c0,7 2,13 5,16 3,3 7,4 12,4 5,0 9,-1 12,-4 3,-3 4,-9 4,-16l0 -110c0,-7 -1,-12 -4,-15 -3,-3 -7,-5 -12,-5 -5,0 -9,2 -12,5 -3,3 -5,8 -5,15l0 110zm-32 -108c0,-16 5,-29 13,-38 8,-9 20,-13 36,-13 16,0 28,4 36,13 8,9 12,22 12,38l0 106c0,16 -4,29 -12,38 -8,9 -20,13 -36,13 -16,0 -28,-4 -36,-13 -8,-9 -13,-22 -13,-38l0 -106zm185 155c0,-2 -1,-3 -1,-4 -1,-1 -1,-3 -1,-4 -1,-2 -1,-4 -1,-7 0,-3 0,-6 0,-10l0 -32c0,-10 -2,-16 -5,-20 -3,-4 -9,-6 -16,-6l-11 0 0 83 -32 0 0 -204 48 0c17,0 29,4 36,12 8,8 12,19 12,35l0 16c0,21 -7,35 -21,41 8,4 13,9 16,16 3,8 5,17 5,28l0 31c0,5 0,9 1,13 0,4 1,8 2,12l-32 0zm-35 -175l0 63 13 0c6,0 10,-2 14,-5 3,-3 5,-9 5,-17l0 -20c0,-7 -2,-12 -4,-16 -3,-3 -7,-5 -13,-5l-15 0zm85 -29l32 0 0 204 -32 0 0 -204zm159 204l-33 0 -5 -37 -39 0 -6 37 -29 0 32 -204 47 0 33 204zm-73 -65l30 0 -15 -103 -15 103zm87 -139l32 0 0 175 53 0 0 29 -85 0 0 -204zm176 204l-32 0 0 -204 32 0 0 88 36 0 0 -88 33 0 0 204 -33 0 0 -87 -36 0 0 87zm195 0l-32 0 -5 -37 -40 0 -5 37 -29 0 32 -204 47 0 32 204zm-72 -65l30 0 -15 -103 -15 103zm87 -139l32 0 0 175 53 0 0 29 -85 0 0 -204zm99 0l32 0 0 175 52 0 0 29 -84 0 0 -204zm144 139c0,-11 1,-19 5,-27 3,-7 9,-12 17,-16 -15,-6 -22,-20 -22,-42l0 -3c0,-17 4,-29 11,-38 8,-8 20,-13 36,-13l37 0 0 29 -36 0c-5,0 -9,2 -12,5 -3,3 -4,8 -4,15l0 13c0,8 1,13 5,16 3,4 8,5 14,5l14 0 0 -23 32 0 0 23 8 0 0 29 -8 0 0 67c0,5 0,9 0,13 1,4 2,8 3,12l-32 0c-1,-2 -2,-4 -2,-7 0,-2 -1,-5 -1,-9 -6,12 -16,18 -30,18 -12,0 -21,-4 -26,-12 -6,-8 -9,-19 -9,-34l0 -21zm32 18c0,7 1,13 4,16 3,3 7,4 12,4 5,0 9,-1 12,-4 3,-3 4,-7 5,-14l0 -47 -12 0c-8,0 -13,2 -16,6 -4,4 -5,11 -5,20l0 19zm200 47c-1,-2 -1,-3 -2,-4 0,-1 0,-3 -1,-4 0,-2 0,-4 0,-7 0,-3 0,-6 0,-10l0 -32c0,-10 -2,-16 -5,-20 -4,-4 -9,-6 -16,-6l-11 0 0 83 -32 0 0 -204 48 0c17,0 29,4 36,12 8,8 11,19 11,35l0 16c0,21 -7,35 -21,41 9,4 14,9 17,16 3,8 5,17 5,28l0 31c0,5 0,9 0,13 1,4 2,8 3,12l-32 0zm-35 -175l0 63 12 0c6,0 11,-2 14,-5 4,-3 5,-9 5,-17l0 -20c0,-7 -1,-12 -4,-16 -2,-3 -6,-5 -12,-5l-15 0zm117 57l43 0 0 29 -43 0 0 60 55 0 0 29 -87 0 0 -204 87 0 0 29 -55 0 0 57zm167 42l0 27c0,16 -4,29 -12,38 -8,9 -20,13 -35,13 -16,0 -28,-4 -36,-13 -8,-9 -12,-22 -12,-38l0 -106c0,-16 4,-29 12,-38 8,-9 20,-13 36,-13 15,0 27,4 35,13 8,9 12,22 12,38l0 20 -30 0 0 -22c0,-7 -2,-12 -5,-15 -3,-3 -7,-5 -12,-5 -5,0 -9,2 -12,5 -3,3 -4,8 -4,15l0 110c0,7 1,12 4,15 3,3 7,5 12,5 5,0 9,-2 12,-5 3,-3 5,-8 5,-15l0 -29 30 0zm87 76c-1,-2 -1,-3 -2,-4 0,-1 0,-3 -1,-4 0,-2 0,-4 0,-7 0,-3 0,-6 0,-10l0 -32c0,-10 -2,-16 -5,-20 -4,-4 -9,-6 -16,-6l-11 0 0 83 -32 0 0 -204 48 0c17,0 29,4 36,12 8,8 11,19 11,35l0 16c0,21 -7,35 -21,41 9,4 14,9 17,16 3,8 5,17 5,28l0 31c0,5 0,9 0,13 1,4 2,8 3,12l-32 0zm-35 -175l0 63 12 0c6,0 11,-2 14,-5 4,-3 5,-9 5,-17l0 -20c0,-7 -1,-12 -4,-16 -2,-3 -6,-5 -12,-5l-15 0zm116 57l44 0 0 29 -44 0 0 60 56 0 0 29 -87 0 0 -204 87 0 0 29 -56 0 0 57zm179 118l-32 0 -6 -37 -39 0 -6 37 -29 0 33 -204 46 0 33 204zm-73 -65l31 0 -16 -103 -15 103zm78 -139l99 0 0 29 -33 0 0 175 -32 0 0 -175 -34 0 0 -29zm113 0l32 0 0 204 -32 0 0 -204zm85 157c0,7 1,13 4,16 3,3 7,4 12,4 5,0 9,-1 12,-4 3,-3 5,-9 5,-16l0 -110c0,-7 -2,-12 -5,-15 -3,-3 -7,-5 -12,-5 -5,0 -9,2 -12,5 -3,3 -4,8 -4,15l0 110zm-32 -108c0,-16 4,-29 12,-38 9,-9 21,-13 36,-13 16,0 28,4 36,13 9,9 13,22 13,38l0 106c0,16 -4,29 -13,38 -8,9 -20,13 -36,13 -15,0 -27,-4 -36,-13 -8,-9 -12,-22 -12,-38l0 -106zm146 7l0 148 -29 0 0 -204 40 0 33 122 0 -122 29 0 0 204 -33 0 -40 -148zm189 34l44 0 0 65c0,16 -4,29 -12,38 -8,9 -20,13 -35,13 -16,0 -28,-4 -36,-13 -8,-9 -12,-22 -12,-38l0 -106c0,-16 4,-29 12,-38 8,-9 20,-13 36,-13 15,0 27,4 35,13 8,9 12,22 12,38l0 20 -30 0 0 -22c0,-7 -1,-12 -4,-15 -3,-3 -7,-5 -12,-5 -6,0 -10,2 -13,5 -3,3 -4,8 -4,15l0 110c0,7 1,12 4,15 3,3 7,5 13,5 5,0 9,-2 12,-5 3,-3 4,-8 4,-15l0 -38 -14 0 0 -29zm132 114c-1,-2 -1,-3 -1,-4 -1,-1 -1,-3 -1,-4 -1,-2 -1,-4 -1,-7 0,-3 0,-6 0,-10l0 -32c0,-10 -2,-16 -5,-20 -3,-4 -9,-6 -16,-6l-11 0 0 83 -32 0 0 -204 48 0c17,0 29,4 36,12 8,8 12,19 12,35l0 16c0,21 -7,35 -21,41 8,4 13,9 16,16 3,8 5,17 5,28l0 31c0,5 0,9 0,13 1,4 2,8 3,12l-32 0zm-35 -175l0 63 12 0c6,0 11,-2 15,-5 3,-3 5,-9 5,-17l0 -20c0,-7 -2,-12 -4,-16 -3,-3 -7,-5 -13,-5l-15 0zm114 128c0,7 2,13 5,16 3,3 7,4 12,4 5,0 9,-1 12,-4 3,-3 4,-9 4,-16l0 -110c0,-7 -1,-12 -4,-15 -3,-3 -7,-5 -12,-5 -5,0 -9,2 -12,5 -3,3 -5,8 -5,15l0 110zm-32 -108c0,-16 4,-29 13,-38 8,-9 20,-13 36,-13 15,0 27,4 36,13 8,9 12,22 12,38l0 106c0,16 -4,29 -12,38 -9,9 -21,13 -36,13 -16,0 -28,-4 -36,-13 -9,-9 -13,-22 -13,-38l0 -106zm148 -49l0 157c0,8 2,13 5,16 3,3 7,4 12,4 5,0 9,-1 12,-4 3,-3 4,-8 4,-16l0 -157 31 0 0 155c0,17 -4,29 -12,38 -8,9 -20,13 -36,13 -16,0 -28,-4 -36,-13 -8,-9 -12,-21 -12,-38l0 -155 32 0zm114 56l0 148 -29 0 0 -204 40 0 33 122 0 -122 29 0 0 204 -33 0 -40 -148zm96 -56l50 0c16,0 28,5 36,13 8,9 12,21 12,38l0 102c0,17 -4,29 -12,38 -8,8 -20,13 -36,13l-50 0 0 -204zm32 29l0 146 18 0c5,0 9,-2 11,-5 3,-3 5,-8 5,-15l0 -106c0,-7 -2,-12 -5,-15 -2,-3 -6,-5 -11,-5l-18 0z"/>
  <g id="_1676918845584">
   <polygon class="fil17" points="856,2850 513,2850 94,1845 414,1845 673,2513 678,2513 906,1845 1243,1845 1468,2513 1732,1845 2052,1845 1633,2850 1292,2850 1074,2147 "/>
   <polygon class="fil17" points="2997,2850 2786,2850 2415,2119 2411,2119 2411,2850 2119,2850 2119,1845 2609,1845 2887,2431 2891,2436 3170,1845 3658,1845 3658,2850 3368,2850 3368,2119 3363,2119 "/>
   <polygon class="fil17" points="4083,2476 4083,2850 3770,2850 3770,1845 4083,1845 4083,2207 4753,2207 4753,1845 5067,1845 5067,2850 4753,2850 4753,2476 "/>
  </g>
  <g id="_1676918844144">
   <path class="fil17" d="M4686 2348c0,148 -120,268 -268,268 -148,0 -268,-120 -268,-268 0,-148 120,-268 268,-268 148,0 268,120 268,268z"/>
  </g>
  <path class="fil17" d="M3157 2348c0,149 -120,269 -268,269 -148,0 -268,-120 -268,-269 0,-148 120,-268 268,-268 148,0 268,120 268,268z"/>
  <path class="fil17" d="M1341 2348c0,148 -120,268 -268,268 -148,0 -268,-120 -268,-268 0,-148 120,-268 268,-268 148,0 268,120 268,268z"/>
  <g id="_1676918852848">
   <g>
    <path class="fil18" d="M1306 2348c0,127 -103,230 -230,230 -128,0 -231,-103 -231,-230 0,-128 103,-231 231,-231 127,0 230,103 230,231z"/>
   </g>
   <g>
    <path class="fil19" d="M1196 2153c33,40 54,92 54,148 0,128 -104,231 -231,231 -44,0 -85,-12 -120,-33 42,50 106,82 177,82 127,0 230,-103 230,-231 0,-83 -44,-156 -110,-197z"/>
   </g>
   <g>
    <g>
     <path class="fil20" d="M1065 2569l0 -3c0,0 10,-1 21,-11 11,-9 25,-28 33,-65 16,-79 -4,-141 -4,-142l2 -1c1,1 21,64 4,144 -8,38 -22,57 -33,66 -12,10 -22,12 -23,12z"/>
    </g>
   </g>
   <g>
    <g>
     <path class="fil20" d="M1291 2395c-28,-71 -76,-104 -111,-119 -38,-17 -70,-17 -70,-17l0 -2c0,0 32,-1 71,16 23,10 43,24 61,41 21,21 39,48 52,80l-3 1z"/>
    </g>
   </g>
   <g>
    <g>
     <path class="fil20" d="M1115 2252l-2 -2c9,-13 25,-40 41,-65 9,-17 19,-32 26,-43l2 1c-7,11 -16,27 -26,43 -15,26 -31,52 -41,66z"/>
    </g>
   </g>
   <g>
    <g>
     <path class="fil20" d="M1100 2255c0,-1 -14,-27 -44,-49 -27,-21 -72,-42 -135,-27l-1 -3c29,-7 56,-7 81,0 20,5 40,14 57,28 30,22 45,49 45,49l-3 2z"/>
    </g>
   </g>
   <g>
    <g>
     <path class="fil20" d="M882 2471l-3 -1c32,-164 154,-175 206,-180 6,-1 11,-1 14,-2l1 3c-4,0 -9,1 -15,1 -51,5 -171,17 -203,179z"/>
    </g>
   </g>
   <g>
    <polygon class="fil21" points="1155,2186 1048,2197 1025,2303 1119,2357 1199,2285 "/>
   </g>
   <g>
    <path class="fil21" d="M891 2209l62 -36 0 -21c-22,15 -45,36 -62,57z"/>
   </g>
   <g>
    <path class="fil21" d="M1139 2126l34 30 45 11c0,0 -18,-16 -29,-23 -21,-12 -50,-18 -50,-18z"/>
   </g>
   <g>
    <g>
     <path class="fil20" d="M1051 2545c-65,0 -125,-59 -136,-74l2 -1c11,14 70,72 134,72l0 3z"/>
    </g>
   </g>
   <g>
    <g>
     <path class="fil20" d="M1196 2525l-1 -2c26,-18 47,-42 60,-71l3 1c-14,30 -35,54 -62,72z"/>
    </g>
   </g>
   <g>
    <g>
     <path class="fil20" d="M1294 2345l-3 0c6,-24 1,-60 -15,-99 -14,-32 -36,-60 -42,-66 8,7 31,32 44,65 16,39 22,76 16,100z"/>
    </g>
   </g>
   <g>
    <g>
     <path class="fil20" d="M861 2364c-9,-46 0,-117 28,-152 -12,15 -21,42 -26,71 -4,27 -4,57 1,80l-3 1z"/>
    </g>
   </g>
   <g>
    <path class="fil21" d="M893 2491l43 -2 -11 -126 -66 -18 -14 18c0,44 22,102 48,128z"/>
   </g>
   <g>
    <path class="fil21" d="M1021 2538l25 38c10,2 20,2 30,2 42,0 81,-11 115,-30l14 -31 -83 -46 -101 67z"/>
   </g>
   <g>
    <path class="fil21" d="M1247 2471l24 0c22,-36 35,-78 35,-123 0,-1 0,-12 0,-13l-11 -10 -35 9 -13 137z"/>
   </g>
   <g>
    <path class="fil22" d="M948 2199c-21,22 -34,52 -33,82 0,16 5,33 17,45 11,11 30,16 44,8 9,-5 15,-14 19,-22 10,-17 17,-35 30,-49 20,-21 49,-31 67,-53 8,-9 13,-22 9,-33 -10,-22 -55,-26 -75,-23 -28,4 -59,25 -78,45z"/>
   </g>
  </g>
  <g id="_1676918813328">
   <g>
    <path class="fil23" d="M3105 2343c0,119 -97,216 -216,216 -119,0 -216,-97 -216,-216 0,-119 97,-216 216,-216 119,0 216,97 216,216z"/>
   </g>
   <g>
    <path class="fil24" d="M2762 2190c-22,20 -37,49 -38,78 -1,16 3,33 13,45 11,12 29,18 43,11 9,-4 15,-12 20,-20 11,-16 19,-33 33,-46 20,-20 50,-27 69,-48 8,-8 14,-20 11,-31 -8,-22 -52,-29 -72,-27 -28,1 -59,20 -79,38z"/>
   </g>
   <g>
    <g>
     <path class="fil25" d="M2849 2477c-10,0 -20,-1 -31,-3 -25,-4 -49,-14 -68,-27 -21,-15 -36,-34 -43,-56 -17,-56 19,-117 47,-165 17,-29 36,-62 27,-69 0,0 18,-12 20,-11 5,4 6,22 0,39 -5,15 -15,32 -27,52 -27,45 -60,101 -45,148 10,33 46,59 93,67 42,7 81,-3 97,-25 25,-34 25,-74 25,-116 0,-25 0,-50 5,-74 6,-31 27,-50 59,-57 7,-1 19,-1 24,1 7,1 19,20 19,20 0,0 -20,-3 -39,1 -23,5 -37,18 -41,40 -5,21 -5,44 -5,69 0,44 1,90 -29,129 -11,15 -29,27 -52,32 -11,3 -23,5 -36,5z"/>
    </g>
   </g>
   <g>
    <path class="fil26" d="M3001 2159c32,37 51,86 51,138 0,120 -97,216 -216,216 -41,0 -80,-11 -113,-31 40,47 100,77 166,77 119,0 216,-97 216,-216 0,-78 -42,-146 -104,-184z"/>
   </g>
   <g>
    <path class="fil27" d="M3029 2201c12,-1 22,0 22,1 -6,-8 -13,-15 -21,-21 -3,-1 -9,-1 -14,-1 5,7 9,14 13,21z"/>
   </g>
  </g>
  <g id="_1640726555040">
   <path class="fil28" d="M4641 2348c0,123 -99,222 -222,222 -122,0 -221,-99 -221,-222 0,-122 99,-221 221,-221 123,0 222,99 222,221z"/>
  </g>
  <g id="_1640726555328">
   <g>
    <g>
     <path class="fil29" d="M4350 2147c-1,0 -2,0 -3,-1 -2,-2 -1,-5 1,-6 1,0 12,-4 13,-4 2,1 0,3 -2,5 -2,1 -4,3 -6,5 -1,1 -2,1 -3,1z"/>
    </g>
   </g>
   <g>
    <g>
     <path class="fil29" d="M4366 2563c-5,-2 -9,-5 -13,-8 -2,-1 -2,-4 -1,-5 2,-2 4,-3 6,-1 5,3 10,6 15,9 2,1 3,3 2,5 0,1 -1,1 -2,2 0,0 -6,-1 -7,-2zm-25 -18l0 0c-1,0 -2,-1 -3,-1 -4,-5 -9,-9 -13,-14 -1,-2 -1,-4 1,-5 1,-2 4,-2 5,0 4,4 8,9 13,13 1,1 2,4 0,5 -1,1 -2,2 -3,2zm-24 -28l0 0c-1,0 -3,0 -3,-2 -4,-4 -7,-10 -11,-15 -1,-2 0,-5 2,-6 2,-1 4,0 5,2 3,5 7,10 10,15 1,2 1,4 -1,5 -1,1 -1,1 -2,1zm-19 -31l0 0c-1,0 -3,-1 -3,-3 -3,-5 -6,-11 -8,-17 -1,-2 0,-4 2,-5 2,-1 5,0 5,2 3,6 5,12 8,17 1,2 0,4 -2,5 -1,0 -1,1 -2,1zm-13 -35l0 0c-2,0 -4,-1 -4,-2 -2,-6 -4,-12 -6,-18 0,-2 1,-4 3,-5 2,-1 5,1 5,3 2,6 4,12 5,17 1,2 0,5 -2,5 -1,0 -1,0 -1,0zm-10 -35l0 0c-2,0 -3,-1 -4,-3 -1,-6 -2,-12 -3,-18 -1,-3 1,-5 3,-5 2,0 4,1 5,3 1,6 2,12 3,18 0,2 -1,4 -3,5 0,0 -1,0 -1,0zm-6 -36l0 0c-2,0 -4,-2 -4,-4 -1,-6 -1,-12 -2,-18 0,-2 2,-4 4,-4 2,-1 4,1 4,3 1,6 1,12 2,18 0,2 -1,4 -3,5 -1,0 -1,0 -1,0zm-3 -37l0 0c-2,0 -4,-1 -4,-4 0,-3 0,-7 0,-11 0,-3 0,-5 0,-7 0,-2 2,-4 4,-4 2,0 4,2 4,4 0,2 0,4 0,7 0,3 0,7 0,11 0,2 -2,4 -4,4 0,0 0,0 0,0zm1 -36l0 0c0,0 0,-1 0,-1 -3,0 -4,-2 -4,-4 1,-6 2,-12 3,-18 0,-3 2,-4 4,-4 3,1 4,3 4,5 -1,6 -2,12 -3,18 0,2 -2,4 -4,4zm7 -37l0 0c-1,0 -1,0 -1,0 -2,0 -4,-2 -3,-5 1,-6 3,-12 5,-17 1,-3 3,-4 5,-3 2,1 4,3 3,5 -2,6 -4,12 -5,17 -1,2 -3,3 -4,3zm12 -34l0 0c-1,0 -1,0 -2,-1 -2,-1 -3,-3 -2,-5 2,-6 5,-11 8,-17 1,-2 3,-2 5,-1 2,1 3,3 2,5 -3,5 -5,11 -8,16 0,2 -2,3 -3,3zm17 -33l0 0c-1,0 -2,0 -2,0 -2,-2 -3,-4 -2,-6 3,-5 7,-10 11,-16 1,-1 3,-2 5,0 2,1 2,3 1,5 -3,5 -7,10 -10,15 -1,1 -2,2 -3,2zm21 -30l0 0c-1,0 -2,0 -2,-1 -2,-1 -2,-4 -1,-5 4,-5 8,-10 13,-14 1,-2 4,-2 5,0 2,1 2,4 0,6 -4,4 -8,8 -12,13 -1,1 -2,1 -3,1z"/>
    </g>
   </g>
   <g>
    <g>
     <path class="fil29" d="M4384 2567c1,-3 3,-4 5,-3 5,2 8,2 8,2 2,0 3,1 4,3 0,0 -17,-2 -17,-2z"/>
    </g>
   </g>
  </g>
  <g id="_1640726558560">
   <g>
    <g>
     <path class="fil30" d="M4346 2147c-1,0 -2,-1 -3,-2 -2,-1 -1,-5 1,-5 1,-1 12,-4 13,-4 2,0 0,3 -2,4 -2,2 -4,4 -6,6 -1,0 -2,1 -3,1z"/>
    </g>
   </g>
   <g>
    <g>
     <path class="fil30" d="M4362 2562c-5,-2 -9,-5 -13,-7 -1,-2 -2,-4 -1,-6 2,-2 4,-2 6,-1 5,3 10,7 15,9 2,1 3,4 2,6 0,0 -1,1 -2,1 0,1 -6,-1 -7,-2zm-25 -18l0 0c-1,0 -2,0 -2,-1 -5,-4 -9,-9 -14,-13 -1,-2 -1,-5 1,-6 1,-2 4,-1 5,0 4,5 9,9 13,13 2,1 2,4 0,6 -1,0 -2,1 -3,1zm-24 -27l0 0c-1,0 -3,-1 -3,-2 -4,-5 -7,-10 -11,-16 -1,-2 0,-4 2,-5 2,-1 4,-1 5,1 3,5 7,10 10,15 1,2 1,4 -1,6 -1,0 -1,1 -2,1zm-19 -32l0 0c-1,0 -3,-1 -3,-2 -3,-6 -6,-12 -8,-17 -1,-2 0,-5 2,-6 2,0 5,1 6,3 2,5 4,11 7,16 1,2 0,5 -2,6 -1,0 -1,0 -2,0zm-13 -34l0 0c-2,0 -4,-1 -4,-3 -2,-6 -4,-12 -5,-18 -1,-2 0,-4 2,-5 3,0 5,1 5,3 2,6 4,12 5,18 1,2 0,4 -2,5 -1,0 -1,0 -1,0zm-10 -36l0 0c-2,0 -3,-1 -4,-3 -1,-6 -2,-12 -3,-18 0,-2 1,-4 3,-5 2,0 4,2 5,4 1,6 2,12 3,18 1,2 -1,4 -3,4 0,0 -1,0 -1,0zm-6 -36l0 0c-2,0 -3,-1 -4,-3 0,-6 -1,-13 -2,-19 0,-2 2,-4 4,-4 2,0 4,1 4,4 1,6 1,12 2,18 0,2 -1,4 -3,4 0,0 -1,0 -1,0zm-3 -36l0 0c-2,0 -4,-2 -4,-4 0,-4 0,-8 0,-12 0,-2 0,-5 0,-7 0,-2 2,-4 4,-4 2,0 4,2 4,4 0,3 0,5 0,7 0,4 0,8 0,11 0,3 -2,4 -4,5 0,0 0,0 0,0zm1 -37l0 0c0,0 0,0 0,0 -2,0 -4,-2 -4,-5 1,-6 2,-12 3,-18 0,-2 2,-4 4,-3 3,0 4,2 4,4 -1,6 -2,12 -3,18 0,2 -2,4 -4,4zm7 -36l0 0c-1,0 -1,0 -1,0 -2,-1 -4,-3 -3,-5 1,-6 3,-12 5,-18 1,-2 3,-3 5,-3 3,1 4,3 3,6 -2,5 -4,11 -5,17 -1,2 -2,3 -4,3zm12 -35l0 0c-1,0 -1,0 -2,0 -2,-1 -3,-3 -2,-6 3,-5 5,-11 8,-16 1,-2 3,-3 5,-2 2,1 3,3 2,5 -3,6 -5,11 -8,17 0,1 -2,2 -3,2zm17 -33l0 0c-1,0 -2,0 -2,0 -2,-1 -3,-4 -2,-6 4,-5 7,-10 11,-15 1,-2 3,-2 5,-1 2,1 2,4 1,6 -3,4 -7,9 -10,15 -1,1 -2,1 -3,1zm21 -29l0 0c-1,0 -2,-1 -2,-1 -2,-2 -2,-4 -1,-6 4,-5 8,-9 13,-14 1,-1 4,-1 5,0 2,2 2,4 0,6 -4,4 -8,9 -12,13 -1,1 -2,2 -3,2z"/>
    </g>
   </g>
   <g>
    <g>
     <path class="fil30" d="M4381 2567c0,-3 3,-4 5,-3 5,1 8,2 8,2 1,0 3,1 3,3 0,0 -16,-2 -16,-2z"/>
    </g>
   </g>
  </g>
  <g id="_1640726558304">
   <g>
    <g>
     <path class="fil30" d="M4398 2137c-1,0 -2,0 -3,-1 -1,-1 -1,-4 0,-5 1,-1 1,-2 2,-3 1,0 11,0 11,0 0,0 0,1 -1,2 -2,2 -4,4 -6,6 -1,1 -2,1 -3,1z"/>
    </g>
   </g>
   <g>
    <g>
     <path class="fil30" d="M4430 2566c0,0 -1,-1 -1,-1 -6,-2 -11,-5 -17,-8 -2,-1 -2,-4 -1,-6 1,-2 3,-2 5,-1 5,3 11,6 16,8 2,1 3,3 2,5 -1,2 -2,3 -4,3zm-30 -19l0 0c-1,0 -2,0 -3,0 -5,-4 -9,-8 -14,-12 -2,-2 -2,-4 0,-6 1,-1 4,-1 5,0 5,4 9,8 14,11 2,1 2,4 1,6 -1,1 -2,1 -3,1zm-27 -24l0 0c-1,0 -2,0 -3,-1 -4,-4 -8,-9 -11,-14 -2,-2 -1,-4 0,-6 2,-1 5,-1 6,1 4,5 7,9 11,14 2,1 2,4 0,5 -1,1 -2,1 -3,1zm-21 -28l0 0c-2,0 -3,-1 -4,-2 -3,-5 -6,-10 -9,-15 -1,-2 0,-5 2,-6 2,-1 4,0 5,2 3,5 6,10 9,15 1,2 1,4 -1,5 -1,1 -2,1 -2,1zm-17 -31l0 0c-2,0 -3,-1 -4,-3 -2,-5 -5,-11 -7,-16 -1,-3 0,-5 3,-6 2,0 4,1 5,3 2,5 4,11 6,16 1,2 0,4 -2,5 0,1 -1,1 -1,1zm-13 -34l0 0c-2,0 -3,-1 -4,-3 -1,-5 -3,-11 -5,-17 0,-2 1,-4 3,-5 3,0 5,1 5,3 2,6 3,12 5,17 1,2 -1,4 -3,5 0,0 0,0 -1,0zm-9 -34l0 0c-1,0 -3,-2 -4,-3 -1,-6 -2,-12 -3,-18 0,-2 1,-4 4,-5 2,0 4,1 4,4 1,5 2,11 3,17 1,2 -1,4 -3,5 0,0 0,0 -1,0zm-5 -36l0 0c-2,0 -4,-1 -4,-3 -1,-6 -1,-12 -1,-18 0,-2 1,-4 3,-4 3,0 5,1 5,4 0,5 0,11 1,17 0,2 -1,4 -4,4 0,0 0,0 0,0zm-1 -35l0 0c-1,0 -1,0 -1,0 -2,0 -4,-2 -3,-4 0,-6 0,-12 1,-18 0,-3 2,-4 4,-4 2,0 4,2 4,4 -1,6 -1,12 -1,18 -1,2 -2,4 -4,4zm3 -36l0 0c0,0 0,0 0,0 -3,0 -4,-2 -4,-4 1,-6 3,-12 4,-18 1,-2 3,-3 5,-3 2,1 4,3 3,5 -2,6 -3,11 -4,17 0,2 -2,3 -4,3zm9 -34l0 0c0,0 -1,0 -1,0 -2,-1 -3,-3 -3,-5 2,-6 5,-12 7,-17 1,-2 3,-3 5,-2 2,0 3,3 2,5 -2,5 -4,11 -6,16 -1,2 -2,3 -4,3zm14 -33l0 0c0,0 -1,0 -2,0 -2,-1 -2,-4 -1,-6 2,-5 5,-10 9,-15 1,-2 3,-3 5,-2 2,1 3,4 1,6 -3,5 -5,10 -8,15 -1,1 -2,2 -4,2zm19 -30l0 0c-1,0 -2,-1 -3,-1 -1,-1 -2,-4 -1,-6 4,-4 7,-9 11,-14 2,-2 4,-2 6,-1 2,2 2,4 1,6 -4,4 -8,9 -11,14 -1,1 -2,2 -3,2zm22 -28l0 0c-1,0 -2,-1 -3,-1 -2,-2 -2,-4 0,-6 3,-4 7,-9 12,-13 1,-2 4,-2 5,-1 2,2 2,4 1,6 -5,5 -9,9 -12,13 -1,1 -2,2 -3,2z"/>
    </g>
   </g>
   <g>
    <g>
     <path class="fil30" d="M4443 2568c0,0 0,-1 0,-2 1,-2 3,-3 5,-3 5,2 8,2 8,2 1,0 2,1 2,1 1,1 -15,3 -15,2z"/>
    </g>
   </g>
  </g>
  <g id="_1640726559488">
   <g>
    <g>
     <path class="fil31" d="M4394 2137c-1,0 -2,0 -2,-1 -2,-1 -2,-4 -1,-6 1,0 2,-1 3,-2 0,0 10,-1 10,-1 0,1 0,2 -1,3 -2,2 -4,4 -6,6 -1,1 -2,1 -3,1z"/>
    </g>
   </g>
   <g>
    <g>
     <path class="fil31" d="M4426 2565c0,0 -1,0 -1,0 -6,-3 -11,-5 -16,-9 -2,-1 -3,-3 -2,-5 1,-2 4,-3 6,-1 5,3 10,5 15,8 2,1 3,3 2,5 -1,1 -2,2 -4,2zm-30 -18l0 0c-1,0 -2,0 -3,-1 -4,-3 -9,-7 -14,-11 -1,-2 -1,-4 0,-6 2,-2 4,-2 6,0 4,4 9,7 13,11 2,1 2,4 1,6 -1,1 -2,1 -3,1zm-27 -24l0 0c-1,0 -2,0 -2,-1 -5,-5 -8,-9 -12,-14 -1,-2 -1,-4 1,-6 1,-1 4,-1 5,1 4,5 8,9 11,13 2,2 2,5 0,6 -1,1 -2,1 -3,1zm-21 -28l0 0c-1,0 -3,-1 -3,-2 -4,-5 -7,-10 -10,-16 -1,-2 0,-4 2,-5 2,-1 4,0 5,2 3,5 6,10 9,15 1,2 1,4 -1,5 -1,1 -1,1 -2,1zm-17 -32l0 0c-2,0 -3,0 -4,-2 -2,-5 -4,-11 -7,-17 0,-2 1,-4 3,-5 2,-1 4,0 5,3 2,5 4,11 7,16 1,2 0,4 -2,5 -1,0 -1,0 -2,0zm-13 -33l0 0c-1,0 -3,-1 -3,-3 -2,-5 -4,-11 -5,-17 -1,-2 1,-4 3,-5 2,-1 4,1 5,3 1,6 3,11 4,17 1,2 0,4 -2,5 -1,0 -1,0 -2,0zm-8 -34l0 0c-2,0 -4,-2 -4,-4 -1,-5 -2,-11 -3,-17 -1,-3 1,-5 3,-5 2,0 4,1 5,3 0,6 1,12 3,18 0,2 -1,4 -3,4 -1,1 -1,1 -1,1zm-6 -36l0 0c-2,0 -4,-1 -4,-3 0,-6 -1,-12 -1,-18 0,-3 2,-4 4,-4 2,-1 4,1 4,3 0,6 1,12 1,18 0,2 -1,4 -3,4 -1,0 -1,0 -1,0zm-1 -35l0 0c0,0 0,0 0,0 -3,0 -4,-2 -4,-4 0,-6 0,-13 1,-19 0,-2 2,-3 4,-3 3,0 4,2 4,4 -1,6 -1,12 -1,18 0,2 -2,4 -4,4zm4 -36l0 0c-1,0 -1,0 -1,0 -2,0 -4,-2 -3,-4 1,-6 2,-12 4,-18 0,-2 2,-4 4,-3 3,1 4,3 3,5 -1,5 -2,11 -4,17 0,2 -2,3 -3,3zm9 -34l0 0c-1,0 -1,0 -2,0 -2,-1 -3,-3 -2,-6 2,-5 4,-11 6,-16 1,-2 4,-3 6,-3 2,1 3,4 2,6 -3,5 -5,11 -7,16 0,2 -2,3 -3,3zm14 -33l0 0c-1,0 -2,0 -2,0 -2,-1 -3,-4 -2,-6 3,-5 6,-10 9,-16 1,-2 4,-2 5,-1 2,1 3,4 2,6 -3,5 -6,10 -9,15 -1,1 -2,2 -3,2zm18 -31l0 0c-1,0 -2,0 -2,0 -2,-1 -2,-4 -1,-6 3,-5 7,-10 11,-14 1,-2 3,-2 5,-1 2,1 2,4 1,6 -4,4 -7,9 -11,14 0,1 -2,1 -3,1zm22 -28l0 0c-1,0 -2,0 -3,-1 -1,-1 -1,-4 0,-5 4,-4 8,-9 12,-14 2,-1 4,-1 6,0 1,2 1,4 0,6 -4,5 -8,9 -12,13 -1,1 -2,1 -3,1z"/>
    </g>
   </g>
   <g>
    <g>
     <path class="fil31" d="M4439 2569c0,-1 0,-2 0,-2 1,-3 3,-4 5,-3 5,1 8,2 9,2 0,0 1,0 2,1 0,1 -15,2 -16,2z"/>
    </g>
   </g>
  </g>
  <g id="_1640726561408">
   <path class="fil32" d="M4265 2211c-24,25 -39,59 -38,94 0,18 6,38 19,51 13,13 35,18 51,9 10,-6 17,-15 22,-25 11,-19 19,-40 34,-56 22,-25 56,-36 77,-61 8,-10 14,-25 9,-38 -10,-25 -62,-29 -85,-25 -32,4 -67,28 -89,51z"/>
  </g>
  <g id="_1640726563328">
   <path class="fil31" d="M4568 2417c-7,0 -14,-1 -21,-4 -23,-10 -42,-36 -51,-69 -7,-26 -9,-53 -5,-76 5,-25 17,-42 34,-48 15,-4 30,-3 43,5 20,11 37,36 44,63 13,50 8,108 -26,125 -6,3 -12,4 -18,4zm-26 -193l0 0c-5,0 -10,1 -15,2 -33,11 -39,68 -25,116 8,31 27,56 48,65 12,5 23,5 34,0 30,-15 34,-71 22,-117 -6,-26 -22,-49 -41,-60 -7,-4 -15,-6 -23,-6z"/>
  </g>
  <g id="_1640726563136">
   <path class="fil31" d="M4567 2404c-4,0 -8,0 -12,-2 -18,-7 -35,-30 -44,-60 -6,-23 -8,-48 -6,-67 3,-23 11,-38 24,-43 11,-5 21,-4 31,1 16,8 31,30 38,56 11,44 9,95 -16,111 -4,3 -10,4 -15,4zm-36 -169l0 0c-26,10 -29,62 -16,106 8,29 24,51 42,58 8,3 16,2 23,-2 24,-15 25,-66 14,-107 -6,-25 -20,-46 -36,-54 -9,-4 -18,-5 -27,-1z"/>
  </g>
  <g id="_1640726562880">
   <g>
    <path class="fil31" d="M4534 2308l-1 -7 2 -1c1,0 2,0 2,0 0,0 0,-1 0,-1 0,-1 0,-1 -1,-1 0,0 -1,0 -1,0l-8 2c-1,0 -1,1 -2,1 0,0 0,0 0,1 0,0 1,1 1,1 0,0 1,0 2,0l2 -1 2 7 -1 0c-2,0 -3,1 -4,0 -1,0 -2,0 -2,-2 -1,-1 -2,-2 -3,-4 0,-2 0,-4 0,-5 0,-2 0,-3 1,-3 1,-1 2,-1 3,-2l5 -1c2,-1 2,-1 3,-1 1,0 1,0 2,1 1,0 2,1 2,2 1,1 1,2 2,4 0,2 1,3 0,5 0,1 0,2 -1,3 0,1 -1,1 -3,2l-2 0z"/>
   </g>
   <g>
    <polygon class="fil31" points="4544,2315 4531,2319 4532,2323 4529,2324 4526,2313 4542,2308 "/>
   </g>
   <g>
    <path class="fil31" d="M4550 2336l-11 3c-1,1 -2,1 -3,1 0,0 -1,0 -2,-1 0,0 -1,-1 -2,-2 0,-1 -1,-2 -1,-4 0,-1 -1,-3 -1,-4 0,-1 1,-2 1,-3 0,-1 1,-1 1,-1 1,-1 2,-1 4,-2l10 -2 2 6 -13 4c-1,0 -1,0 -1,1 0,0 0,0 0,0 0,1 0,1 0,1 1,0 1,0 2,0l12 -4 2 7z"/>
   </g>
   <g>
    <path class="fil31" d="M4551 2339l2 6c0,3 1,4 1,5 0,2 0,3 -1,3 0,1 -1,2 -3,2 -1,1 -1,0 -2,0 0,0 -1,-1 -2,-2 1,1 1,2 0,3 0,1 -1,1 -2,2l-1 0c-2,0 -3,0 -3,0 -1,0 -1,-1 -2,-2 0,0 -1,-2 -2,-5l-2 -8 17 -4zm-1 7l0 0 -4 1c0,1 0,1 0,1 1,1 1,1 1,1 0,0 1,0 2,0 0,0 1,0 1,-1 0,0 0,0 0,0 0,-1 0,-1 0,-2zm-6 2l0 0 -5 1c0,1 0,2 1,2 0,0 0,0 1,0l2 0c0,-1 1,-1 1,-1 0,0 0,-1 0,-2z"/>
   </g>
  </g>
  <g id="_1640726568704">
   <g>
    <path class="fil31" d="M4559 2277l-2 -8 6 -2c1,0 2,-1 3,-1 0,0 0,-1 0,-1 0,-1 -1,-1 -1,-1 -1,0 -2,0 -3,0l-15 4c-2,0 -3,1 -3,1 0,0 -1,1 0,1 0,1 0,1 1,1 0,1 1,0 3,0l4 -1 2 8 -1 0c-3,1 -6,2 -7,2 -2,-1 -3,-1 -5,-3 -1,-1 -2,-3 -3,-5 0,-2 0,-5 0,-6 1,-2 1,-4 3,-4 1,-1 4,-2 7,-3l9 -2c2,-1 4,-1 5,-1 1,-1 3,0 4,0 1,1 2,1 3,3 1,1 2,2 2,4 1,3 1,5 0,7 0,1 -1,3 -2,4 -2,0 -4,1 -7,2l-3 1z"/>
   </g>
   <g>
    <path class="fil31" d="M4574 2276l1 6c1,4 2,7 2,8 0,2 0,3 -1,4 -1,1 -3,2 -6,3 -3,0 -4,1 -5,0 -1,0 -2,-1 -3,-3 0,2 0,3 0,4 -1,0 -2,1 -2,1 -1,0 -2,1 -5,2l-8 2 -2 -8 10 -3c2,0 3,0 4,-1 0,0 0,-1 0,-2l-15 4 -2 -9 32 -8zm-3 10l0 0 -7 2c0,1 0,1 0,2 1,0 2,0 3,-1l2 0c1,0 1,-1 2,-1 0,-1 0,-1 0,-2z"/>
   </g>
   <g>
    <polygon class="fil31" points="4582,2306 4550,2314 4548,2306 4579,2298 "/>
   </g>
   <g>
    <path class="fil31" d="M4574 2332l-3 -8 6 -2c2,0 3,0 3,-1 0,0 0,0 0,-1 0,-1 0,-1 -1,-1 0,0 -1,0 -3,1l-15 3c-1,1 -2,1 -3,1 0,1 0,1 0,2 0,0 0,1 1,1 0,0 2,0 3,-1l4 -1 2 8 -1 1c-3,1 -6,1 -7,1 -2,0 -3,-1 -4,-2 -2,-2 -3,-3 -3,-6 -1,-2 -1,-4 -1,-6 1,-2 2,-3 3,-4 2,-1 4,-2 7,-3l9 -2c2,-1 4,-1 5,-1 2,0 3,0 4,0 1,1 2,2 3,3 1,1 2,3 2,5 1,2 1,4 1,6 -1,2 -2,3 -3,4 -1,1 -3,2 -6,2l-3 1z"/>
   </g>
   <g>
    <polygon class="fil31" points="4588,2332 4592,2345 4585,2347 4584,2341 4578,2343 4579,2348 4573,2350 4572,2345 4565,2346 4566,2352 4560,2354 4556,2340 "/>
   </g>
   <g>
    <polygon class="fil31" points="4597,2364 4590,2366 4589,2361 4564,2368 4561,2359 4587,2353 4586,2348 4592,2346 "/>
   </g>
  </g>
  <g id="_1640726570816">
   <path class="fil33" d="M4534 2159c33,39 52,88 52,142 0,123 -99,222 -221,222 -42,0 -82,-12 -115,-32 40,48 101,79 169,79 123,0 222,-99 222,-222 0,-80 -43,-150 -107,-189z"/>
  </g>
  <path class="fil17" d="M5529 2637l-100 0 0 -380c-37,35 -80,60 -130,77l0 -92c26,-8 55,-24 85,-49 31,-23 52,-51 64,-83l81 0 0 527zm321 -527c51,0 90,18 119,54 34,43 51,115 51,214 0,100 -17,171 -51,215 -29,36 -68,54 -119,54 -51,0 -92,-20 -124,-59 -31,-39 -47,-110 -47,-211 0,-99 18,-170 52,-213 28,-36 68,-54 119,-54zm0 83c-12,0 -23,4 -32,12 -10,8 -17,22 -22,42 -7,26 -10,70 -10,131 0,62 3,105 9,128 6,23 14,38 23,46 9,8 20,11 32,11 12,0 23,-4 32,-11 9,-8 17,-22 22,-42 7,-26 10,-70 10,-132 0,-61 -3,-104 -9,-127 -6,-23 -14,-38 -23,-46 -10,-8 -20,-12 -32,-12zm407 -83c51,0 91,18 120,54 34,43 51,115 51,214 0,100 -17,171 -52,215 -28,36 -68,54 -119,54 -51,0 -92,-20 -123,-59 -31,-39 -47,-110 -47,-211 0,-99 17,-170 52,-213 28,-36 68,-54 118,-54zm0 83c-12,0 -22,4 -32,12 -9,8 -16,22 -21,42 -7,26 -11,70 -11,131 0,62 3,105 9,128 7,23 14,38 24,46 9,8 19,11 31,11 12,0 23,-4 33,-11 9,-8 16,-22 21,-42 7,-26 11,-70 11,-132 0,-61 -4,-104 -10,-127 -6,-23 -13,-38 -23,-46 -9,-8 -20,-12 -32,-12z"/>
  <path class="fil34" d="M6362 2024l44 -47 21 -103 26 25 -15 69 67 -20 26 25 -102 26 -45 46 -22 -21zm93 111l140 -63 47 103 -24 11 -34 -75 -31 14 32 70 -24 11 -32 -70 -37 17 35 78 -24 10 -48 -106zm65 313l-1 -33 35 -14 -2 -62 -35 -12 -1 -33 155 56 1 33 -152 65zm60 -58l56 -23 -58 -19 2 42zm-76 117l142 56 -23 61c-6,15 -12,26 -17,32 -6,6 -12,9 -21,11 -8,1 -16,1 -25,-3 -10,-4 -18,-11 -23,-20 -4,-9 -5,-20 -2,-33 -6,5 -12,8 -18,11 -6,2 -16,4 -29,7l-35 6 14 -34 39 -9c14,-3 23,-5 27,-7 4,-1 7,-3 9,-6 2,-3 5,-7 8,-14l2 -6 -60 -23 12 -29zm71 61l-9 21c-5,14 -8,23 -8,27 0,4 1,7 3,11 2,3 5,5 9,7 5,2 9,2 13,0 4,-1 8,-4 10,-8 2,-2 4,-9 9,-21l9 -23 -36 -14zm-120 145l-20 23c-9,-6 -16,-9 -24,-8 -7,0 -14,4 -21,10 -7,7 -11,14 -12,20 0,7 1,12 5,16 3,3 5,4 9,5 3,0 7,-1 12,-3 4,-2 11,-6 23,-12 15,-9 27,-13 36,-13 12,-1 23,3 31,12 6,6 9,13 11,21 1,8 0,16 -3,24 -4,9 -10,17 -19,25 -13,13 -27,20 -40,21 -13,0 -24,-5 -34,-15l21 -22c7,5 13,7 18,7 6,-1 12,-4 18,-10 6,-6 10,-12 11,-19 1,-4 0,-7 -3,-10 -2,-2 -6,-4 -10,-3 -5,0 -14,4 -27,12 -14,8 -24,13 -32,15 -8,2 -16,2 -23,0 -8,-2 -15,-6 -21,-13 -6,-7 -10,-14 -12,-23 -2,-9 -1,-18 3,-27 4,-9 11,-18 20,-27 14,-14 28,-21 42,-21 14,-1 27,4 41,15z"/>
  <g id="_1640726571168">
   <path class="fil35" d="M3652 3509l35 0 22 -87 1 0 23 87 34 0 44 -135 -35 0 -26 89 -1 0 -22 -89 -35 0 -23 89 0 0 -25 -89 -35 0 43 135zm176 -135l0 135 36 0 0 -66c0,-19 1,-26 4,-32 4,-8 14,-13 23,-13 19,0 19,14 19,37l0 74 35 0 0 -65c0,-16 2,-23 5,-31 3,-9 13,-15 22,-15 19,0 19,18 19,34l0 77 36 0 0 -86c0,-15 0,-52 -44,-52 -22,0 -35,14 -41,21 -4,-6 -13,-21 -39,-21 -10,0 -26,1 -41,21l-1 0 0 -18 -33 0zm270 -52l-36 0 0 187 36 0 0 -68c0,-15 0,-43 29,-43 22,0 22,17 22,40l0 71 36 0 0 -79c0,-16 0,-38 -14,-49 -11,-8 -24,-10 -32,-10 -7,0 -25,1 -41,20l0 -69zm124 187l36 0 0 -35 -36 0 0 35zm64 -69c0,63 49,72 70,72 44,0 70,-34 70,-71 0,-34 -23,-70 -70,-70 -48,0 -70,37 -70,69zm37 2c0,-29 16,-42 33,-42 18,0 33,14 33,41 0,30 -17,42 -33,42 -17,0 -33,-13 -33,-41zm166 67l0 -41c0,-38 1,-65 25,-65 6,0 13,4 16,6l12 -32c-7,-3 -16,-6 -24,-6 -15,0 -23,9 -31,22l0 0 0 -19 -33 0 0 135 35 0zm60 9c-2,39 31,46 63,46 59,0 64,-31 64,-69l0 -121 -33 0 0 19 -1 0c-4,-6 -16,-22 -41,-22 -22,0 -57,14 -57,70 0,38 21,68 56,68 16,0 31,-9 40,-22l0 0 0 20c0,16 0,30 -29,30 -10,0 -15,-2 -16,-3 -5,-4 -5,-10 -5,-11l-41 -5zm32 -79c0,-10 2,-41 29,-41 25,0 31,24 31,42 0,35 -22,40 -31,40 -23,0 -29,-23 -29,-41zm131 70l36 0 0 -35 -36 0 0 35zm162 0l34 0 0 -135 -36 0 0 57c0,26 -1,34 -4,39 -5,10 -15,15 -25,15 -7,0 -14,-2 -19,-9 -3,-5 -4,-10 -4,-40l0 -62 -36 0 0 85c0,16 2,25 8,36 7,11 23,17 37,17 18,0 35,-8 45,-23l0 0 0 20zm70 0l35 0 0 -43 17 -18 34 61 39 0 -50 -86 47 -49 -44 0 -43 47 0 -99 -35 0 0 187z"/>
   <polygon class="fil36" points="445,3450 3508,3450 3508,3464 445,3464 "/>
  </g>
  <g id="_1640726572864">
   <polygon class="fil3" points="387,1308 591,1308 591,1455 387,1455 "/>
   <path class="fil11" d="M465 1320l19 0 0 35 -19 0 0 -35zm-62 0l19 0 0 35 -19 0 0 -35zm124 0l19 0 0 35 -19 0 0 -35zm29 0l19 0 0 35 -19 0 0 -35zm19 45l0 31 -19 0 0 -31 19 0zm0 40l0 36 -19 0 0 -36 19 0zm-29 36l-19 0 0 -36 19 0 0 36zm-19 -45l0 -31 19 0 0 31 -19 0zm-95 -76l19 0 0 35 -19 0 0 -35zm19 45l0 31 -19 0 0 -31 19 0zm0 40l0 36 -19 0 0 -36 19 0zm-29 36l-19 0 0 -36 19 0 0 36zm-19 -45l0 -31 19 0 0 31 -19 0zm91 -76l19 0 0 35 -19 0 0 -35zm19 45l0 31 -19 0 0 -31 19 0zm0 40l0 36 -19 0 0 -36 19 0zm-29 36l-19 0 0 -36 19 0 0 36zm-19 -45l0 -31 19 0 0 31 -19 0z"/>
  </g>
  <path class="fil37" d="M5077 1627l-701 0 0 17 0 73 16 0 0 -73 44 0 0 73 16 0 0 -73 431 0 0 73 16 0 0 -73 178 0 0 -17zm-1038 17l0 73 -16 0 0 -73 -378 0 0 73 -16 0 0 -73 -410 0 0 73 -16 0 0 -73 -856 0 0 73 -16 0 0 -73 -400 0 0 73 -16 0 0 -73 -399 0 0 73 -16 0 0 -73 -374 0 0 73 -17 0 0 -73 -371 0 0 73 -17 0 0 -73 -350 0 0 73 -16 0 0 -73 -120 0 0 73 -16 0 0 -73 0 -17 16 0 120 0 16 0 350 0 17 0 371 0 17 0 374 0 16 0 399 0 16 0 400 0 16 0 856 0 16 0 804 0 16 0 29 0 16 0 0 17 0 73 -16 0 0 -73 -29 0z"/>
 </g>
</svg>
