<?xml version="1.0" encoding="UTF-8"?>
<!DOCTYPE svg PUBLIC "-//W3C//DTD SVG 1.1//EN" "http://www.w3.org/Graphics/SVG/1.1/DTD/svg11.dtd">
<!-- Creator: CorelDRAW X8 -->
<svg xmlns="http://www.w3.org/2000/svg" xml:space="preserve" width="4.89437in" height="1.68935in" version="1.1" style="shape-rendering:geometricPrecision; text-rendering:geometricPrecision; image-rendering:optimizeQuality; fill-rule:evenodd; clip-rule:evenodd"
viewBox="0 0 5461 1885"
 xmlns:xlink="http://www.w3.org/1999/xlink">
 <defs>
  <style type="text/css">
   <![CDATA[
    .str0 {stroke:white;stroke-width:61.9819;stroke-linecap:round;stroke-linejoin:round}
    .fil0 {fill:none}
    .fil1 {fill:black}
    .fil15 {fill:#1B1F25}
    .fil13 {fill:#222429}
    .fil11 {fill:#313439}
    .fil2 {fill:#4D5259}
    .fil12 {fill:#526865}
    .fil9 {fill:#5A2E25}
    .fil10 {fill:#7F3C2C}
    .fil4 {fill:#883D2A}
    .fil8 {fill:#883D2A}
    .fil17 {fill:#949FA3}
    .fil6 {fill:#A0B3BA}
    .fil14 {fill:#A1553F}
    .fil3 {fill:#AF6351}
    .fil5 {fill:#B1C4CB}
    .fil16 {fill:#526865;fill-rule:nonzero}
    .fil7 {fill:#883D2A;fill-rule:nonzero}
   ]]>
  </style>
 </defs>
 <g id="Layer_x0020_1">
  <metadata id="CorelCorpID_0Corel-Layer"/>
  <g id="_1640728334960">
   <g>
    <path class="fil0 str0" d="M767 1292l0 309 0 0 0 -662 0 353zm4260 491l0 5 16 0 0 -7c245,-22 387,-49 387,-77 0,-21 -80,-42 -224,-60l0 -65 -18 0 0 30 -11 0 0 -30 -23 0 0 30 -11 0 0 -30 -23 0 0 30 -10 0 0 -30 -24 0 0 30 -10 0 0 -30 -23 0 0 30 -11 0 0 -30 -23 0 0 30 -11 0 0 -30 -17 0 0 -481 62 0 -124 -340 58 0 -536 -437 -2961 0 2 3 -71 -41 0 -45 -69 -41 -115 0 14 44 0 80 78 -91 -604 709 -43 0 0 16 64 0 0 12 -557 325 82 0 0 57 0 60 0 233c-154,19 -240,40 -240,62 0,21 80,41 224,60l0 24 17 0 0 -22c37,4 77,9 122,13l0 9 17 0 0 -7c471,43 1333,73 2319,73 970,0 1821,-29 2297,-71zm-4036 -1157l29 -529 -20 -44 108 -22 118 75 -22 27 0 244 -88 102 -125 147zm4028 998l0 -5 -8 0 0 5 8 0zm34 4l0 -9 -9 0 0 8 9 1zm33 3l0 -12 -9 0 0 11 9 1zm24 -12l0 14 10 1 0 -15 -10 0zm33 0l0 18 11 1 0 -19 -11 0zm34 0l0 22 11 1 0 -23 -11 0z"/>
    <path id="1" class="fil1" d="M767 1292l0 309 0 0 0 -662 0 353zm4260 491l0 5 16 0 0 -7c245,-22 387,-49 387,-77 0,-21 -80,-42 -224,-60l0 -65 -18 0 0 30 -11 0 0 -30 -23 0 0 30 -11 0 0 -30 -23 0 0 30 -10 0 0 -30 -24 0 0 30 -10 0 0 -30 -23 0 0 30 -11 0 0 -30 -23 0 0 30 -11 0 0 -30 -17 0 0 -481 62 0 -124 -340 58 0 -536 -437 -2961 0 2 3 -71 -41 0 -45 -69 -41 -115 0 14 44 0 80 78 -91 -604 709 -43 0 0 16 64 0 0 12 -557 325 82 0 0 57 0 60 0 233c-154,19 -240,40 -240,62 0,21 80,41 224,60l0 24 17 0 0 -22c37,4 77,9 122,13l0 9 17 0 0 -7c471,43 1333,73 2319,73 970,0 1821,-29 2297,-71zm-4036 -1157l29 -529 -20 -44 108 -22 118 75 -22 27 0 244 -88 102 -125 147zm4028 998l0 -5 -8 0 0 5 8 0zm34 4l0 -9 -9 0 0 8 9 1zm33 3l0 -12 -9 0 0 11 9 1zm24 -12l0 14 10 1 0 -15 -10 0zm33 0l0 18 11 1 0 -19 -11 0zm34 0l0 22 11 1 0 -23 -11 0z"/>
   </g>
   <path class="fil2" d="M2730 1554c1491,0 2700,67 2700,150 0,83 -1209,150 -2700,150 -1490,0 -2699,-67 -2699,-150 0,-83 1209,-150 2699,-150z"/>
   <polygon class="fil3" points="2007,1098 4991,1098 4991,1692 2007,1692 "/>
   <polygon class="fil4" points="3980,1098 4520,1098 4520,1687 3980,1687 "/>
   <polygon class="fil3" points="4991,1098 4520,1098 4520,1687 4991,1687 "/>
   <polygon class="fil5" points="4627,1098 4520,1098 4520,1409 4627,1409 "/>
   <polygon class="fil6" points="4627,1284 4520,1284 4520,1409 4627,1409 "/>
   <g id="_1640728362288">
    <polygon class="fil4" points="4498,1473 4682,1473 4899,1692 4473,1692 "/>
    <polygon class="fil7" points="4470,1359 4712,1359 4849,1495 4849,1692 4837,1692 4837,1500 4707,1370 4470,1370 "/>
    <polygon class="fil8" points="4530,1363 4535,1363 4535,1676 4530,1676 "/>
    <polygon class="fil8" points="4546,1363 4551,1363 4551,1676 4546,1676 "/>
    <polygon class="fil8" points="4562,1363 4567,1363 4567,1676 4562,1676 "/>
    <polygon class="fil8" points="4578,1363 4583,1363 4583,1676 4578,1676 "/>
    <polygon class="fil8" points="4594,1363 4599,1363 4599,1676 4594,1676 "/>
    <polygon class="fil8" points="4610,1363 4615,1363 4615,1676 4610,1676 "/>
    <polygon class="fil8" points="4626,1363 4631,1363 4631,1676 4626,1676 "/>
    <polygon class="fil8" points="4642,1363 4647,1363 4647,1676 4642,1676 "/>
    <polygon class="fil8" points="4658,1363 4663,1363 4663,1676 4658,1676 "/>
    <polygon class="fil8" points="4674,1363 4679,1363 4679,1676 4674,1676 "/>
    <polygon class="fil8" points="4690,1363 4695,1363 4695,1676 4690,1676 "/>
    <polygon class="fil8" points="4706,1363 4711,1363 4711,1676 4706,1676 "/>
    <polygon class="fil8" points="4722,1381 4727,1381 4727,1676 4722,1676 "/>
    <polygon class="fil8" points="4738,1394 4743,1394 4743,1676 4738,1676 "/>
    <polygon class="fil8" points="4754,1411 4759,1411 4759,1676 4754,1676 "/>
    <polygon class="fil8" points="4770,1428 4775,1428 4775,1676 4770,1676 "/>
    <polygon class="fil8" points="4786,1441 4791,1441 4791,1676 4786,1676 "/>
    <polygon class="fil8" points="4802,1460 4807,1460 4807,1676 4802,1676 "/>
    <polygon class="fil8" points="4818,1476 4823,1476 4823,1676 4818,1676 "/>
   </g>
   <path class="fil9" d="M2470 1612l22 0 0 29 11 0 0 -29 23 0 0 29 11 0 0 -29 23 0 0 29 10 0 0 -29 24 0 0 29 10 0 0 -29 23 0 0 29 11 0 0 -29 23 0 0 29 11 0 0 -29 23 0 0 29 10 0 0 -29 24 0 0 29 10 0 0 -29 23 0 0 29 11 0 0 -29 23 0 0 29 11 0 0 -29 23 0 0 29 10 0 0 -29 24 0 0 29 10 0 0 -29 23 0 0 29 11 0 0 -29 23 0 0 29 11 0 0 -29 23 0 0 29 10 0 0 -29 24 0 0 29 10 0 0 -29 23 0 0 29 11 0 0 -29 22 0 22 0 0 29 10 0 0 -29 23 0 0 29 11 0 0 -29 23 0 0 29 11 0 0 -29 23 0 0 29 10 0 0 -29 24 0 0 29 10 0 0 -29 23 0 0 29 11 0 0 -29 23 0 0 29 11 0 0 -29 23 0 0 29 10 0 0 -29 24 0 0 29 10 0 0 -29 23 0 0 29 11 0 0 -29 23 0 0 29 11 0 0 -29 23 0 0 29 10 0 0 -29 24 0 0 29 10 0 0 -29 23 0 0 29 11 0 0 -29 23 0 0 29 11 0 0 -29 23 0 0 29 10 0 0 -29 24 0 0 29 10 0 0 -29 22 0 22 0 0 29 10 0 0 -29 24 0 0 29 10 0 0 -29 23 0 0 29 11 0 0 -29 23 0 0 29 11 0 0 -29 23 0 0 29 10 0 0 -29 24 0 0 29 10 0 0 -29 23 0 0 29 11 0 0 -29 23 0 0 29 11 0 0 -29 23 0 0 29 10 0 0 -29 24 0 0 29 10 0 0 -29 23 0 0 29 11 0 0 -29 23 0 0 29 0 10 0 31 0 10 0 31 0 10 0 29 -23 0 0 -29 -11 0 0 29 -23 0 0 -29 -10 0 0 29 -24 0 0 -29 -10 0 0 29 -23 0 0 -29 -11 0 0 29 -23 0 0 -29 -11 0 0 29 -23 0 0 -29 -10 0 0 29 -24 0 0 -29 -10 0 0 29 -23 0 0 -29 -11 0 0 29 -23 0 0 -29 -11 0 0 29 -23 0 0 -29 -10 0 0 29 -24 0 0 -29 -10 0 0 29 -22 0 -22 0 0 -29 -10 0 0 29 -24 0 0 -29 -10 0 0 29 -23 0 0 -29 -11 0 0 29 -23 0 0 -29 -11 0 0 29 -23 0 0 -29 -10 0 0 29 -24 0 0 -29 -10 0 0 29 -23 0 0 -29 -11 0 0 29 -23 0 0 -29 -11 0 0 29 -23 0 0 -29 -10 0 0 29 -24 0 0 -29 -10 0 0 29 -23 0 0 -29 -11 0 0 29 -23 0 0 -29 -11 0 0 29 -23 0 0 -29 -10 0 0 29 -24 0 0 -29 -10 0 0 29 -23 0 0 -29 -11 0 0 29 -23 0 0 -29 -11 0 0 29 -23 0 0 -29 -10 0 0 29 -22 0 -22 0 0 -29 -11 0 0 29 -23 0 0 -29 -10 0 0 29 -24 0 0 -29 -10 0 0 29 -23 0 0 -29 -11 0 0 29 -23 0 0 -29 -11 0 0 29 -23 0 0 -29 -10 0 0 29 -24 0 0 -29 -10 0 0 29 -23 0 0 -29 -11 0 0 29 -23 0 0 -29 -11 0 0 29 -23 0 0 -29 -10 0 0 29 -24 0 0 -29 -10 0 0 29 -23 0 0 -29 -11 0 0 29 -23 0 0 -29 -11 0 0 29 -23 0 0 -29 -10 0 0 29 -24 0 0 -29 -10 0 0 29 -23 0 0 -29 -11 0 0 29 -23 0 0 -29 -11 0 0 29 -22 0 0 -29 0 -10 0 -31 0 -10 0 -31 0 -10 0 -29zm2449 -33l22 0 0 30 10 0 0 -30 24 0 0 30 10 0 0 -30 23 0 0 30 11 0 0 -30 23 0 0 30 11 0 0 -30 23 0 0 30 10 0 0 -30 24 0 0 30 10 0 0 -30 23 0 0 30 11 0 0 -30 23 0 0 30 11 0 0 -30 18 0 0 151 -18 0 0 -30 -11 0 0 30 -23 0 0 -30 -11 0 0 30 -23 0 0 -30 -10 0 0 30 -24 0 0 -30 -9 0 0 23 0 10 0 29 -22 0 0 -29 -11 0 0 29 -23 0 0 -29 -10 0 0 29 -24 0 0 -29 -10 0 0 29 -23 0 0 -29 -11 0 0 29 -23 0 0 -29 -11 0 0 29 -23 0 0 -29 -10 0 0 29 -24 0 0 -29 -10 0 0 29 -23 0 0 -29 -11 0 0 29 -23 0 0 -29 -11 0 0 29 -23 0 0 -29 -11 0 0 29 -23 0 0 -29 -10 0 0 29 -24 0 0 -29 -10 0 0 29 -23 0 0 -29 -11 0 0 29 -23 0 0 -29 -11 0 0 29 -23 0 0 -29 -10 0 0 29 -24 0 0 -29 -10 0 0 29 -23 0 0 -29 -11 0 0 29 -22 0 0 -29 0 -10 0 -31 0 -10 0 -31 0 -10 0 -29 22 0 0 29 11 0 0 -29 23 0 0 29 10 0 0 -29 24 0 0 29 10 0 0 -29 23 0 0 29 11 0 0 -29 23 0 0 29 11 0 0 -29 23 0 0 29 10 0 0 -29 24 0 0 29 10 0 0 -29 23 0 0 29 11 0 0 -29 23 0 0 29 11 0 0 -29 23 0 0 29 11 0 0 -29 23 0 0 29 10 0 0 -29 24 0 0 29 10 0 0 -29 23 0 0 29 10 0 0 -22 0 -10 0 -30zm134 144l0 -23 -9 0 0 23 9 0zm-34 0l0 -23 -8 0 0 23 8 0zm-34 0l0 -23 -8 0 0 23 8 0zm-34 0l0 -23 -8 0 0 23 8 0zm-32 0l0 -23 0 -8 -10 0 0 31 10 0zm0 -41l0 -23 0 -8 -10 0 0 31 10 0zm32 -41l0 -22 -8 0 0 22 8 0zm34 0l0 -22 -8 0 0 22 8 0zm34 0l0 -22 -8 0 0 22 8 0zm34 0l0 -22 -9 0 0 22 9 0zm24 8l9 0 0 -30 -9 0 0 22 0 8zm33 -30l0 30 10 0 0 -30 -10 0zm33 0l0 30 11 0 0 -30 -11 0zm34 0l0 30 11 0 0 -30 -11 0zm11 71l0 -31 -11 0 0 31 11 0zm-34 0l0 -31 -11 0 0 31 11 0zm-34 0l0 -31 -10 0 0 31 10 0zm-34 0l0 -31 -9 0 0 23 0 8 9 0zm-33 -8l0 -23 -9 0 0 23 9 0zm-34 0l0 -23 -8 0 0 23 8 0zm-34 0l0 -23 -8 0 0 23 8 0zm-34 0l0 -23 -8 0 0 23 8 0zm-447 -31l0 31 11 0 0 -31 -11 0zm34 0l0 31 10 0 0 -31 -10 0zm34 0l0 31 10 0 0 -31 -10 0zm33 0l0 31 11 0 0 -31 -11 0zm34 0l0 31 11 0 0 -31 -11 0zm34 0l0 31 10 0 0 -31 -10 0zm34 0l0 31 10 0 0 -31 -10 0zm33 0l0 31 11 0 0 -31 -11 0zm34 0l0 31 11 0 0 -31 -11 0zm34 0l0 31 11 0 0 -31 -11 0zm34 0l0 31 10 0 0 -31 -10 0zm34 0l0 31 10 0 0 -31 -10 0zm10 72l0 -31 -10 0 0 31 10 0zm-34 0l0 -31 -10 0 0 31 10 0zm-33 0l0 -31 -11 0 0 31 11 0zm-34 0l0 -31 -11 0 0 31 11 0zm-34 0l0 -31 -11 0 0 31 11 0zm-34 0l0 -31 -10 0 0 31 10 0zm-34 0l0 -31 -10 0 0 31 10 0zm-33 0l0 -31 -11 0 0 31 11 0zm-34 0l0 -31 -11 0 0 31 11 0zm-34 0l0 -31 -10 0 0 31 10 0zm-34 0l0 -31 -10 0 0 31 10 0zm-33 0l0 -31 -11 0 0 31 11 0zm-834 -72l0 31 10 0 0 -31 -10 0zm34 0l0 31 10 0 0 -31 -10 0zm33 0l0 31 11 0 0 -31 -11 0zm34 0l0 31 11 0 0 -31 -11 0zm34 0l0 31 10 0 0 -31 -10 0zm34 0l0 31 10 0 0 -31 -10 0zm33 0l0 31 11 0 0 -31 -11 0zm34 0l0 31 11 0 0 -31 -11 0zm34 0l0 31 10 0 0 -31 -10 0zm34 0l0 31 10 0 0 -31 -10 0zm33 0l0 31 11 0 0 -31 -11 0zm11 72l0 -31 -11 0 0 31 11 0zm-34 0l0 -31 -10 0 0 31 10 0zm-34 0l0 -31 -10 0 0 31 10 0zm-33 0l0 -31 -11 0 0 31 11 0zm-34 0l0 -31 -11 0 0 31 11 0zm-34 0l0 -31 -10 0 0 31 10 0zm-34 0l0 -31 -10 0 0 31 10 0zm-33 0l0 -31 -11 0 0 31 11 0zm-34 0l0 -31 -11 0 0 31 11 0zm-34 0l0 -31 -10 0 0 31 10 0zm-34 0l0 -31 -10 0 0 31 10 0zm-604 -72l0 31 10 0 0 -31 -10 0zm33 0l0 31 11 0 0 -31 -11 0zm34 0l0 31 11 0 0 -31 -11 0zm34 0l0 31 10 0 0 -31 -10 0zm34 0l0 31 10 0 0 -31 -10 0zm33 0l0 31 11 0 0 -31 -11 0zm34 0l0 31 11 0 0 -31 -11 0zm34 0l0 31 10 0 0 -31 -10 0zm34 0l0 31 10 0 0 -31 -10 0zm33 0l0 31 11 0 0 -31 -11 0zm34 0l0 31 11 0 0 -31 -11 0zm34 0l0 31 10 0 0 -31 -10 0zm34 0l0 31 10 0 0 -31 -10 0zm33 0l0 31 11 0 0 -31 -11 0zm34 0l0 31 11 0 0 -31 -11 0zm34 0l0 31 10 0 0 -31 -10 0zm34 0l0 31 10 0 0 -31 -10 0zm10 72l0 -31 -10 0 0 31 10 0zm-34 0l0 -31 -10 0 0 31 10 0zm-33 0l0 -31 -11 0 0 31 11 0zm-34 0l0 -31 -11 0 0 31 11 0zm-34 0l0 -31 -10 0 0 31 10 0zm-34 0l0 -31 -10 0 0 31 10 0zm-33 0l0 -31 -11 0 0 31 11 0zm-34 0l0 -31 -11 0 0 31 11 0zm-34 0l0 -31 -10 0 0 31 10 0zm-34 0l0 -31 -10 0 0 31 10 0zm-33 0l0 -31 -11 0 0 31 11 0zm-34 0l0 -31 -11 0 0 31 11 0zm-34 0l0 -31 -10 0 0 31 10 0zm-34 0l0 -31 -10 0 0 31 10 0zm-33 0l0 -31 -11 0 0 31 11 0zm-34 0l0 -31 -11 0 0 31 11 0zm-34 0l0 -31 -10 0 0 31 10 0zm-605 -72l0 31 11 0 0 -31 -11 0zm34 0l0 31 11 0 0 -31 -11 0zm34 0l0 31 10 0 0 -31 -10 0zm34 0l0 31 10 0 0 -31 -10 0zm33 0l0 31 11 0 0 -31 -11 0zm34 0l0 31 11 0 0 -31 -11 0zm34 0l0 31 10 0 0 -31 -10 0zm34 0l0 31 10 0 0 -31 -10 0zm33 0l0 31 11 0 0 -31 -11 0zm34 0l0 31 11 0 0 -31 -11 0zm34 0l0 31 10 0 0 -31 -10 0zm34 0l0 31 10 0 0 -31 -10 0zm33 0l0 31 11 0 0 -31 -11 0zm34 0l0 31 11 0 0 -31 -11 0zm34 0l0 31 10 0 0 -31 -10 0zm34 0l0 31 10 0 0 -31 -10 0zm33 0l0 31 11 0 0 -31 -11 0zm11 72l0 -31 -11 0 0 31 11 0zm-34 0l0 -31 -10 0 0 31 10 0zm-34 0l0 -31 -10 0 0 31 10 0zm-33 0l0 -31 -11 0 0 31 11 0zm-34 0l0 -31 -11 0 0 31 11 0zm-34 0l0 -31 -10 0 0 31 10 0zm-34 0l0 -31 -10 0 0 31 10 0zm-33 0l0 -31 -11 0 0 31 11 0zm-34 0l0 -31 -11 0 0 31 11 0zm-34 0l0 -31 -10 0 0 31 10 0zm-34 0l0 -31 -10 0 0 31 10 0zm-33 0l0 -31 -11 0 0 31 11 0zm-34 0l0 -31 -11 0 0 31 11 0zm-34 0l0 -31 -10 0 0 31 10 0zm-34 0l0 -31 -10 0 0 31 10 0zm-33 0l0 -31 -11 0 0 31 11 0zm-34 0l0 -31 -11 0 0 31 11 0z"/>
   <polygon class="fil3" points="271,1263 767,1263 767,1696 271,1696 "/>
   <polygon class="fil10" points="767,939 725,939 1329,230 1913,962 1913,1696 767,1696 "/>
   <polygon class="fil11" points="767,939 767,1292 189,1292 746,967 746,955 682,955 682,939 "/>
   <polygon class="fil0" points="1584,847 1872,847 1872,1053 1584,1053 "/>
   <g id="_1640728361232">
    <polygon class="fil5" points="2150,1098 2490,1098 2490,1342 2150,1342 "/>
    <path class="fil12" d="M2280 1117l31 0 0 60 -31 0 0 -60zm-104 0l32 0 0 60 -32 0 0 -60zm207 0l32 0 0 60 -32 0 0 -60zm49 0l31 0 0 60 -31 0 0 -60zm31 75l0 53 -31 0 0 -53 31 0zm0 68l0 60 -31 0 0 -60 31 0zm-48 60l-32 0 0 -60 32 0 0 60zm-32 -75l0 -53 32 0 0 53 -32 0zm-158 -128l31 0 0 60 -31 0 0 -60zm31 75l0 53 -31 0 0 -53 31 0zm0 68l0 60 -31 0 0 -60 31 0zm-48 60l-32 0 0 -60 32 0 0 60zm-32 -75l0 -53 32 0 0 53 -32 0zm152 -128l32 0 0 60 -32 0 0 -60zm32 75l0 53 -32 0 0 -53 32 0zm0 68l0 60 -32 0 0 -60 32 0zm-49 60l-31 0 0 -60 31 0 0 60zm-31 -75l0 -53 31 0 0 53 -31 0z"/>
   </g>
   <g id="_1640728360656">
    <polygon class="fil5" points="3072,1098 3412,1098 3412,1342 3072,1342 "/>
    <path class="fil12" d="M3202 1117l31 0 0 60 -31 0 0 -60zm-104 0l32 0 0 60 -32 0 0 -60zm207 0l32 0 0 60 -32 0 0 -60zm49 0l31 0 0 60 -31 0 0 -60zm31 75l0 53 -31 0 0 -53 31 0zm0 68l0 60 -31 0 0 -60 31 0zm-48 60l-32 0 0 -60 32 0 0 60zm-32 -75l0 -53 32 0 0 53 -32 0zm-158 -128l31 0 0 60 -31 0 0 -60zm31 75l0 53 -31 0 0 -53 31 0zm0 68l0 60 -31 0 0 -60 31 0zm-48 60l-32 0 0 -60 32 0 0 60zm-32 -75l0 -53 32 0 0 53 -32 0zm152 -128l32 0 0 60 -32 0 0 -60zm32 75l0 53 -32 0 0 -53 32 0zm0 68l0 60 -32 0 0 -60 32 0zm-49 60l-31 0 0 -60 31 0 0 60zm-31 -75l0 -53 31 0 0 53 -31 0z"/>
   </g>
   <g id="_1640728358512">
    <polygon class="fil5" points="2637,1098 2977,1098 2977,1342 2637,1342 "/>
    <path class="fil12" d="M2767 1117l31 0 0 60 -31 0 0 -60zm-104 0l32 0 0 60 -32 0 0 -60zm207 0l32 0 0 60 -32 0 0 -60zm49 0l31 0 0 60 -31 0 0 -60zm31 75l0 53 -31 0 0 -53 31 0zm0 68l0 60 -31 0 0 -60 31 0zm-48 60l-32 0 0 -60 32 0 0 60zm-32 -75l0 -53 32 0 0 53 -32 0zm-158 -128l31 0 0 60 -31 0 0 -60zm31 75l0 53 -31 0 0 -53 31 0zm0 68l0 60 -31 0 0 -60 31 0zm-48 60l-32 0 0 -60 32 0 0 60zm-32 -75l0 -53 32 0 0 53 -32 0zm152 -128l32 0 0 60 -32 0 0 -60zm32 75l0 53 -32 0 0 -53 32 0zm0 68l0 60 -32 0 0 -60 32 0zm-49 60l-31 0 0 -60 31 0 0 60zm-31 -75l0 -53 31 0 0 53 -31 0z"/>
   </g>
   <g id="_1640728357712">
    <polygon class="fil5" points="3559,1098 3899,1098 3899,1342 3559,1342 "/>
    <path class="fil12" d="M3689 1117l31 0 0 60 -31 0 0 -60zm-104 0l32 0 0 60 -32 0 0 -60zm207 0l32 0 0 60 -32 0 0 -60zm49 0l31 0 0 60 -31 0 0 -60zm31 75l0 53 -31 0 0 -53 31 0zm0 68l0 60 -31 0 0 -60 31 0zm-48 60l-32 0 0 -60 32 0 0 60zm-32 -75l0 -53 32 0 0 53 -32 0zm-158 -128l31 0 0 60 -31 0 0 -60zm31 75l0 53 -31 0 0 -53 31 0zm0 68l0 60 -31 0 0 -60 31 0zm-48 60l-32 0 0 -60 32 0 0 60zm-32 -75l0 -53 32 0 0 53 -32 0zm152 -128l32 0 0 60 -32 0 0 -60zm32 75l0 53 -32 0 0 -53 32 0zm0 68l0 60 -32 0 0 -60 32 0zm-49 60l-31 0 0 -60 31 0 0 60zm-31 -75l0 -53 31 0 0 53 -31 0z"/>
   </g>
   <g id="_1640728358768">
    <polygon class="fil5" points="1146,774 1487,774 1487,1018 1146,1018 "/>
    <path class="fil12" d="M1277 793l31 0 0 59 -31 0 0 -59zm-104 0l32 0 0 59 -32 0 0 -59zm207 0l31 0 0 59 -31 0 0 -59zm49 0l31 0 0 59 -31 0 0 -59zm31 75l0 52 -31 0 0 -52 31 0zm0 68l0 59 -31 0 0 -59 31 0zm-49 59l-31 0 0 -59 31 0 0 59zm-31 -75l0 -52 31 0 0 52 -31 0zm-158 -127l31 0 0 59 -31 0 0 -59zm31 75l0 52 -31 0 0 -52 31 0zm0 68l0 59 -31 0 0 -59 31 0zm-48 59l-32 0 0 -59 32 0 0 59zm-32 -75l0 -52 32 0 0 52 -32 0zm152 -127l32 0 0 59 -32 0 0 -59zm32 75l0 52 -32 0 0 -52 32 0zm0 68l0 59 -32 0 0 -59 32 0zm-49 59l-31 0 0 -59 31 0 0 59zm-31 -75l0 -52 31 0 0 52 -31 0z"/>
   </g>
   <g id="_1640728356688">
    <polygon class="fil5" points="1146,1230 1487,1230 1487,1473 1146,1473 "/>
    <path class="fil12" d="M1277 1249l31 0 0 59 -31 0 0 -59zm-104 0l32 0 0 59 -32 0 0 -59zm207 0l31 0 0 59 -31 0 0 -59zm49 0l31 0 0 59 -31 0 0 -59zm31 75l0 52 -31 0 0 -52 31 0zm0 67l0 60 -31 0 0 -60 31 0zm-49 60l-31 0 0 -60 31 0 0 60zm-31 -75l0 -52 31 0 0 52 -31 0zm-158 -127l31 0 0 59 -31 0 0 -59zm31 75l0 52 -31 0 0 -52 31 0zm0 67l0 60 -31 0 0 -60 31 0zm-48 60l-32 0 0 -60 32 0 0 60zm-32 -75l0 -52 32 0 0 52 -32 0zm152 -127l32 0 0 59 -32 0 0 -59zm32 75l0 52 -32 0 0 -52 32 0zm0 67l0 60 -32 0 0 -60 32 0zm-49 60l-31 0 0 -60 31 0 0 60zm-31 -75l0 -52 31 0 0 52 -31 0z"/>
   </g>
   <path class="fil3" d="M271 1349l23 0 0 58 -10 0c-5,0 -9,1 -13,2l0 -60z"/>
   <polygon class="fil10" points="888,747 1742,747 1329,230 "/>
   <polygon class="fil13" points="1913,962 1329,230 1571,370 2058,997 "/>
   <polygon class="fil14" points="1913,1696 1913,962 2007,1098 2007,1694 "/>
   <polygon class="fil11" points="1913,962 2007,1098 5053,1098 4929,758 4987,758 4451,321 1490,321 1492,324 1571,370 2058,997 "/>
   <polygon class="fil15" points="3928,1098 3808,1098 4100,721 4216,721 "/>
   <polygon class="fil4" points="3928,1098 4216,721 4617,1098 "/>
   <polygon class="fil5" points="4875,1316 4973,1316 4973,1394 4875,1394 "/>
   <path class="fil12" d="M4590 1121l-42 0 0 50 42 0 0 -50zm-53 0l-17 0 0 50 17 0 0 -50zm-17 60l0 49 17 0 0 -49 -17 0zm28 49l42 0 0 -49 -42 0 0 49z"/>
   <polygon class="fil5" points="4083,1098 4377,1098 4377,1692 4083,1692 "/>
   <path class="fil12" d="M4319 1399l32 0 0 63 -32 0 0 -63zm-210 218l0 -58 32 0 0 58 -32 0zm210 -300l32 0 0 63 -32 0 0 -63zm-210 -62l112 0 0 42 -112 0 0 -42zm130 0l112 0 0 42 -112 0 0 -42zm-130 62l32 0 0 63 -32 0 0 -63zm0 160l32 0 0 64 -32 0 0 -64zm0 -78l32 0 0 63 -32 0 0 -63zm210 160l32 0 0 63 -32 0 0 -63zm0 -82l32 0 0 64 -32 0 0 -64z"/>
   <path class="fil16" d="M4105 1108l252 0 0 122 -254 0 0 -122 2 0zm248 5l-246 0 0 112 246 0 0 -112z"/>
   <polygon class="fil5" points="3211,1441 3310,1441 3310,1504 3211,1504 "/>
   <polygon class="fil10" points="991,626 1020,97 1000,53 1108,31 1226,106 1204,133 1204,377 "/>
   <polygon class="fil14" points="1020,97 1116,93 1116,479 991,626 "/>
   <polygon class="fil10" points="1116,479 1116,93 1204,133 1204,377 "/>
   <polygon class="fil14" points="1251,321 1251,241 1237,197 1352,197 1421,238 1421,283 1329,230 "/>
   <g id="_1640728336368">
    <polygon class="fil5" points="427,1370 636,1370 636,1519 427,1519 "/>
    <path class="fil12" d="M507 1381l19 0 0 37 -19 0 0 -37zm-64 0l20 0 0 37 -20 0 0 -37zm127 0l20 0 0 37 -20 0 0 -37zm30 0l20 0 0 37 -20 0 0 -37zm20 46l0 32 -20 0 0 -32 20 0zm0 42l0 36 -20 0 0 -36 20 0zm-30 36l-20 0 0 -36 20 0 0 36zm-20 -46l0 -32 20 0 0 32 -20 0zm-97 -78l19 0 0 37 -19 0 0 -37zm19 46l0 32 -19 0 0 -32 19 0zm0 42l0 36 -19 0 0 -36 19 0zm-29 36l-20 0 0 -36 20 0 0 36zm-20 -46l0 -32 20 0 0 32 -20 0zm94 -78l19 0 0 37 -19 0 0 -37zm19 46l0 32 -19 0 0 -32 19 0zm0 42l0 36 -19 0 0 -36 19 0zm-30 36l-19 0 0 -36 19 0 0 36zm-19 -46l0 -32 19 0 0 32 -19 0z"/>
   </g>
   <path class="fil17" d="M5225 1696l-717 0 0 17 0 75 17 0 0 -75 45 0 0 75 16 0 0 -75 441 0 0 75 16 0 0 -75 182 0 0 -17zm-1062 17l0 75 -16 0 0 -75 -386 0 0 75 -17 0 0 -75 -419 0 0 75 -17 0 0 -75 -876 0 0 75 -16 0 0 -75 -409 0 0 75 -17 0 0 -75 -408 0 0 75 -16 0 0 -75 -383 0 0 75 -17 0 0 -75 -380 0 0 75 -17 0 0 -75 -358 0 0 75 -17 0 0 -75 -122 0 0 75 -17 0 0 -75 0 -17 17 0 122 0 17 0 358 0 17 0 380 0 17 0 383 0 16 0 408 0 17 0 409 0 16 0 876 0 17 0 822 0 16 0 30 0 17 0 0 17 0 75 -17 0 0 -75 -30 0z"/>
  </g>
 </g>
</svg>
