<?xml version="1.0" encoding="UTF-8"?>
<!DOCTYPE svg PUBLIC "-//W3C//DTD SVG 1.1//EN" "http://www.w3.org/Graphics/SVG/1.1/DTD/svg11.dtd">
<!-- Creator: CorelDRAW X8 -->
<svg xmlns="http://www.w3.org/2000/svg" xml:space="preserve" width="4.83881in" height="2.61391in" version="1.1" style="shape-rendering:geometricPrecision; text-rendering:geometricPrecision; image-rendering:optimizeQuality; fill-rule:evenodd; clip-rule:evenodd"
viewBox="0 0 5406 2920"
 xmlns:xlink="http://www.w3.org/1999/xlink">
 <defs>
  <style type="text/css">
   <![CDATA[
    .fil10 {fill:none}
    .fil14 {fill:#1B1F25}
    .fil12 {fill:#222429}
    .fil9 {fill:#313439}
    .fil11 {fill:#526865}
    .fil7 {fill:#5A2E25}
    .fil8 {fill:#7F3C2C}
    .fil2 {fill:#883D2A}
    .fil6 {fill:#883D2A}
    .fil33 {fill:#949FA3}
    .fil4 {fill:#A0B3BA}
    .fil13 {fill:#A1553F}
    .fil1 {fill:#AF6351}
    .fil3 {fill:#B1C4CB}
    .fil24 {fill:black;fill-rule:nonzero}
    .fil16 {fill:#2E3640;fill-rule:nonzero}
    .fil20 {fill:#373735;fill-rule:nonzero}
    .fil26 {fill:#4D4D4D;fill-rule:nonzero}
    .fil15 {fill:#526865;fill-rule:nonzero}
    .fil19 {fill:#868682;fill-rule:nonzero}
    .fil5 {fill:#883D2A;fill-rule:nonzero}
    .fil32 {fill:#8B1813;fill-rule:nonzero}
    .fil30 {fill:#C5C5C5;fill-rule:nonzero}
    .fil18 {fill:#CECECE;fill-rule:nonzero}
    .fil28 {fill:#D32A19;fill-rule:nonzero}
    .fil25 {fill:#E0CD1A;fill-rule:nonzero}
    .fil17 {fill:#EBEBEB;fill-rule:nonzero}
    .fil27 {fill:#F33A1B;fill-rule:nonzero}
    .fil22 {fill:#FBED20;fill-rule:nonzero}
    .fil29 {fill:white;fill-rule:nonzero}
    .fil0 {fill:black;fill-opacity:0.090196}
    .fil31 {fill:white;fill-rule:nonzero;fill-opacity:0.341176}
    .fil23 {fill:white;fill-rule:nonzero;fill-opacity:0.360784}
    .fil21 {fill:white;fill-rule:nonzero;fill-opacity:0.549020}
   ]]>
  </style>
 </defs>
 <g id="Layer_x0020_1">
  <metadata id="CorelCorpID_0Corel-Layer"/>
  <g id="_1640730014128">
   <path class="fil0" d="M2703 1525c1493,0 2703,67 2703,150 0,83 -1210,150 -2703,150 -1493,0 -2703,-67 -2703,-150 0,-83 1210,-150 2703,-150z"/>
   <polygon class="fil1" points="1979,1069 4967,1069 4967,1663 1979,1663 "/>
   <polygon class="fil2" points="3954,1069 4495,1069 4495,1658 3954,1658 "/>
   <polygon class="fil1" points="4967,1069 4495,1069 4495,1658 4967,1658 "/>
   <polygon class="fil3" points="4602,1069 4495,1069 4495,1379 4602,1379 "/>
   <polygon class="fil4" points="4602,1255 4495,1255 4495,1379 4602,1379 "/>
   <g>
    <polygon class="fil2" points="4473,1443 4658,1443 4874,1663 4448,1663 "/>
    <polygon class="fil5" points="4445,1329 4687,1329 4824,1466 4824,1663 4812,1663 4812,1471 4683,1341 4445,1341 "/>
    <polygon class="fil6" points="4505,1333 4510,1333 4510,1647 4505,1647 "/>
    <polygon class="fil6" points="4521,1333 4526,1333 4526,1647 4521,1647 "/>
    <polygon class="fil6" points="4537,1333 4542,1333 4542,1647 4537,1647 "/>
    <polygon class="fil6" points="4553,1333 4558,1333 4558,1647 4553,1647 "/>
    <polygon class="fil6" points="4569,1333 4574,1333 4574,1647 4569,1647 "/>
    <polygon class="fil6" points="4585,1333 4590,1333 4590,1647 4585,1647 "/>
    <polygon class="fil6" points="4601,1333 4606,1333 4606,1647 4601,1647 "/>
    <polygon class="fil6" points="4617,1333 4622,1333 4622,1647 4617,1647 "/>
    <polygon class="fil6" points="4633,1333 4638,1333 4638,1647 4633,1647 "/>
    <polygon class="fil6" points="4649,1333 4654,1333 4654,1647 4649,1647 "/>
    <polygon class="fil6" points="4665,1333 4670,1333 4670,1647 4665,1647 "/>
    <polygon class="fil6" points="4681,1333 4686,1333 4686,1647 4681,1647 "/>
    <polygon class="fil6" points="4697,1352 4702,1352 4702,1647 4697,1647 "/>
    <polygon class="fil6" points="4713,1364 4718,1364 4718,1647 4713,1647 "/>
    <polygon class="fil6" points="4729,1382 4734,1382 4734,1647 4729,1647 "/>
    <polygon class="fil6" points="4745,1398 4750,1398 4750,1647 4745,1647 "/>
    <polygon class="fil6" points="4761,1412 4766,1412 4766,1647 4761,1647 "/>
    <polygon class="fil6" points="4777,1431 4782,1431 4782,1647 4777,1647 "/>
    <polygon class="fil6" points="4793,1447 4798,1447 4798,1647 4793,1647 "/>
   </g>
   <path class="fil7" d="M2443 1583l22 0 0 30 10 0 0 -30 23 0 0 30 11 0 0 -30 23 0 0 30 11 0 0 -30 23 0 0 30 10 0 0 -30 24 0 0 30 10 0 0 -30 24 0 0 30 10 0 0 -30 23 0 0 30 11 0 0 -30 23 0 0 30 11 0 0 -30 23 0 0 30 10 0 0 -30 24 0 0 30 10 0 0 -30 24 0 0 30 10 0 0 -30 23 0 0 30 11 0 0 -30 23 0 0 30 11 0 0 -30 23 0 0 30 10 0 0 -30 24 0 0 30 10 0 0 -30 24 0 0 30 10 0 0 -30 23 0 0 30 11 0 0 -30 22 0 22 0 0 30 10 0 0 -30 23 0 0 30 11 0 0 -30 23 0 0 30 11 0 0 -30 23 0 0 30 11 0 0 -30 23 0 0 30 10 0 0 -30 24 0 0 30 10 0 0 -30 23 0 0 30 11 0 0 -30 23 0 0 30 11 0 0 -30 23 0 0 30 11 0 0 -30 23 0 0 30 10 0 0 -30 24 0 0 30 10 0 0 -30 23 0 0 30 11 0 0 -30 23 0 0 30 11 0 0 -30 23 0 0 30 11 0 0 -30 23 0 0 30 10 0 0 -30 24 0 0 30 10 0 0 -30 23 0 0 30 11 0 0 -30 22 0 22 0 0 30 10 0 0 -30 23 0 0 30 11 0 0 -30 23 0 0 30 11 0 0 -30 23 0 0 30 11 0 0 -30 23 0 0 30 10 0 0 -30 24 0 0 30 10 0 0 -30 23 0 0 30 11 0 0 -30 23 0 0 30 11 0 0 -30 23 0 0 30 11 0 0 -30 23 0 0 30 10 0 0 -30 24 0 0 30 10 0 0 -30 23 0 0 30 0 10 0 30 0 10 0 31 0 10 0 30 -23 0 0 -30 -10 0 0 30 -24 0 0 -30 -10 0 0 30 -23 0 0 -30 -11 0 0 30 -23 0 0 -30 -11 0 0 30 -23 0 0 -30 -11 0 0 30 -23 0 0 -30 -10 0 0 30 -24 0 0 -30 -10 0 0 30 -23 0 0 -30 -11 0 0 30 -23 0 0 -30 -11 0 0 30 -23 0 0 -30 -11 0 0 30 -23 0 0 -30 -10 0 0 30 -22 0 -22 0 0 -30 -11 0 0 30 -23 0 0 -30 -10 0 0 30 -24 0 0 -30 -10 0 0 30 -23 0 0 -30 -11 0 0 30 -23 0 0 -30 -11 0 0 30 -23 0 0 -30 -11 0 0 30 -23 0 0 -30 -10 0 0 30 -24 0 0 -30 -10 0 0 30 -23 0 0 -30 -11 0 0 30 -23 0 0 -30 -11 0 0 30 -23 0 0 -30 -11 0 0 30 -23 0 0 -30 -10 0 0 30 -24 0 0 -30 -10 0 0 30 -23 0 0 -30 -11 0 0 30 -23 0 0 -30 -11 0 0 30 -23 0 0 -30 -11 0 0 30 -23 0 0 -30 -10 0 0 30 -22 0 -22 0 0 -30 -11 0 0 30 -23 0 0 -30 -10 0 0 30 -24 0 0 -30 -10 0 0 30 -24 0 0 -30 -10 0 0 30 -23 0 0 -30 -11 0 0 30 -23 0 0 -30 -11 0 0 30 -23 0 0 -30 -10 0 0 30 -24 0 0 -30 -10 0 0 30 -24 0 0 -30 -10 0 0 30 -23 0 0 -30 -11 0 0 30 -23 0 0 -30 -11 0 0 30 -23 0 0 -30 -10 0 0 30 -24 0 0 -30 -10 0 0 30 -24 0 0 -30 -10 0 0 30 -23 0 0 -30 -11 0 0 30 -23 0 0 -30 -11 0 0 30 -23 0 0 -30 -10 0 0 30 -22 0 0 -30 0 -10 0 -31 0 -10 0 -30 0 -10 0 -30zm2451 -33l22 0 0 30 11 0 0 -30 23 0 0 30 11 0 0 -30 23 0 0 30 10 0 0 -30 24 0 0 30 10 0 0 -30 24 0 0 30 10 0 0 -30 23 0 0 30 11 0 0 -30 23 0 0 30 11 0 0 -30 23 0 0 30 10 0 0 -30 19 0 0 151 -19 0 0 -30 -10 0 0 30 -23 0 0 -30 -11 0 0 30 -23 0 0 -30 -11 0 0 30 -23 0 0 -30 -10 0 0 23 0 10 0 30 -22 0 0 -30 -10 0 0 30 -23 0 0 -30 -11 0 0 30 -23 0 0 -30 -11 0 0 30 -23 0 0 -30 -10 0 0 30 -24 0 0 -30 -10 0 0 30 -24 0 0 -30 -10 0 0 30 -23 0 0 -30 -11 0 0 30 -23 0 0 -30 -11 0 0 30 -23 0 0 -30 -10 0 0 30 -24 0 0 -30 -10 0 0 30 -24 0 0 -30 -10 0 0 30 -23 0 0 -30 -11 0 0 30 -23 0 0 -30 -11 0 0 30 -23 0 0 -30 -10 0 0 30 -24 0 0 -30 -10 0 0 30 -24 0 0 -30 -10 0 0 30 -23 0 0 -30 -11 0 0 30 -22 0 0 -30 0 -10 0 -31 0 -10 0 -30 0 -10 0 -30 22 0 0 30 11 0 0 -30 23 0 0 30 10 0 0 -30 24 0 0 30 10 0 0 -30 24 0 0 30 10 0 0 -30 23 0 0 30 11 0 0 -30 23 0 0 30 11 0 0 -30 23 0 0 30 10 0 0 -30 24 0 0 30 10 0 0 -30 24 0 0 30 10 0 0 -30 23 0 0 30 11 0 0 -30 23 0 0 30 11 0 0 -30 23 0 0 30 10 0 0 -30 24 0 0 30 9 0 0 -23 0 -10 0 -30zm134 144l0 -23 -8 0 0 23 8 0zm-34 0l0 -23 -8 0 0 23 8 0zm-33 0l0 -23 -9 0 0 23 9 0zm-34 0l0 -23 -8 0 0 23 8 0zm-33 0l0 -23 0 -8 -9 0 0 31 9 0zm0 -41l0 -23 0 -7 -9 0 0 30 9 0zm33 -40l0 -23 -8 0 0 23 8 0zm34 0l0 -23 -9 0 0 23 9 0zm33 0l0 -23 -8 0 0 23 8 0zm34 0l0 -23 -8 0 0 23 8 0zm24 7l10 0 0 -30 -10 0 0 23 0 7zm33 -30l0 30 11 0 0 -30 -11 0zm34 0l0 30 11 0 0 -30 -11 0zm34 0l0 30 10 0 0 -30 -10 0zm10 71l0 -31 -10 0 0 31 10 0zm-33 0l0 -31 -11 0 0 31 11 0zm-34 0l0 -31 -11 0 0 31 11 0zm-34 0l0 -31 -10 0 0 23 0 8 10 0zm-34 -8l0 -23 -8 0 0 23 8 0zm-34 0l0 -23 -8 0 0 23 8 0zm-33 0l0 -23 -9 0 0 23 9 0zm-34 0l0 -23 -8 0 0 23 8 0zm-448 -30l0 30 11 0 0 -30 -11 0zm34 0l0 30 10 0 0 -30 -10 0zm34 0l0 30 10 0 0 -30 -10 0zm34 0l0 30 10 0 0 -30 -10 0zm33 0l0 30 11 0 0 -30 -11 0zm34 0l0 30 11 0 0 -30 -11 0zm34 0l0 30 10 0 0 -30 -10 0zm34 0l0 30 10 0 0 -30 -10 0zm34 0l0 30 10 0 0 -30 -10 0zm33 0l0 30 11 0 0 -30 -11 0zm34 0l0 30 11 0 0 -30 -11 0zm34 0l0 30 10 0 0 -30 -10 0zm10 71l0 -31 -10 0 0 31 10 0zm-33 0l0 -31 -11 0 0 31 11 0zm-34 0l0 -31 -11 0 0 31 11 0zm-34 0l0 -31 -10 0 0 31 10 0zm-34 0l0 -31 -10 0 0 31 10 0zm-34 0l0 -31 -10 0 0 31 10 0zm-33 0l0 -31 -11 0 0 31 11 0zm-34 0l0 -31 -11 0 0 31 11 0zm-34 0l0 -31 -10 0 0 31 10 0zm-34 0l0 -31 -10 0 0 31 10 0zm-34 0l0 -31 -10 0 0 31 10 0zm-33 0l0 -31 -11 0 0 31 11 0zm-835 -71l0 30 10 0 0 -30 -10 0zm33 0l0 30 11 0 0 -30 -11 0zm34 0l0 30 11 0 0 -30 -11 0zm34 0l0 30 11 0 0 -30 -11 0zm34 0l0 30 10 0 0 -30 -10 0zm34 0l0 30 10 0 0 -30 -10 0zm33 0l0 30 11 0 0 -30 -11 0zm34 0l0 30 11 0 0 -30 -11 0zm34 0l0 30 11 0 0 -30 -11 0zm34 0l0 30 10 0 0 -30 -10 0zm34 0l0 30 10 0 0 -30 -10 0zm10 71l0 -31 -10 0 0 31 10 0zm-34 0l0 -31 -10 0 0 31 10 0zm-33 0l0 -31 -11 0 0 31 11 0zm-34 0l0 -31 -11 0 0 31 11 0zm-34 0l0 -31 -11 0 0 31 11 0zm-34 0l0 -31 -10 0 0 31 10 0zm-34 0l0 -31 -10 0 0 31 10 0zm-33 0l0 -31 -11 0 0 31 11 0zm-34 0l0 -31 -11 0 0 31 11 0zm-34 0l0 -31 -11 0 0 31 11 0zm-34 0l0 -31 -10 0 0 31 10 0zm-605 -71l0 30 10 0 0 -30 -10 0zm33 0l0 30 11 0 0 -30 -11 0zm34 0l0 30 11 0 0 -30 -11 0zm34 0l0 30 11 0 0 -30 -11 0zm34 0l0 30 10 0 0 -30 -10 0zm34 0l0 30 10 0 0 -30 -10 0zm33 0l0 30 11 0 0 -30 -11 0zm34 0l0 30 11 0 0 -30 -11 0zm34 0l0 30 11 0 0 -30 -11 0zm34 0l0 30 10 0 0 -30 -10 0zm34 0l0 30 10 0 0 -30 -10 0zm33 0l0 30 11 0 0 -30 -11 0zm34 0l0 30 11 0 0 -30 -11 0zm34 0l0 30 11 0 0 -30 -11 0zm34 0l0 30 10 0 0 -30 -10 0zm34 0l0 30 10 0 0 -30 -10 0zm33 0l0 30 11 0 0 -30 -11 0zm11 71l0 -31 -11 0 0 31 11 0zm-34 0l0 -31 -10 0 0 31 10 0zm-34 0l0 -31 -10 0 0 31 10 0zm-33 0l0 -31 -11 0 0 31 11 0zm-34 0l0 -31 -11 0 0 31 11 0zm-34 0l0 -31 -11 0 0 31 11 0zm-34 0l0 -31 -10 0 0 31 10 0zm-34 0l0 -31 -10 0 0 31 10 0zm-33 0l0 -31 -11 0 0 31 11 0zm-34 0l0 -31 -11 0 0 31 11 0zm-34 0l0 -31 -11 0 0 31 11 0zm-34 0l0 -31 -10 0 0 31 10 0zm-34 0l0 -31 -10 0 0 31 10 0zm-33 0l0 -31 -11 0 0 31 11 0zm-34 0l0 -31 -11 0 0 31 11 0zm-34 0l0 -31 -11 0 0 31 11 0zm-34 0l0 -31 -10 0 0 31 10 0zm-605 -71l0 30 10 0 0 -30 -10 0zm33 0l0 30 11 0 0 -30 -11 0zm34 0l0 30 11 0 0 -30 -11 0zm34 0l0 30 10 0 0 -30 -10 0zm34 0l0 30 10 0 0 -30 -10 0zm34 0l0 30 10 0 0 -30 -10 0zm33 0l0 30 11 0 0 -30 -11 0zm34 0l0 30 11 0 0 -30 -11 0zm34 0l0 30 10 0 0 -30 -10 0zm34 0l0 30 10 0 0 -30 -10 0zm34 0l0 30 10 0 0 -30 -10 0zm33 0l0 30 11 0 0 -30 -11 0zm34 0l0 30 11 0 0 -30 -11 0zm34 0l0 30 10 0 0 -30 -10 0zm34 0l0 30 10 0 0 -30 -10 0zm34 0l0 30 10 0 0 -30 -10 0zm33 0l0 30 11 0 0 -30 -11 0zm11 71l0 -31 -11 0 0 31 11 0zm-34 0l0 -31 -10 0 0 31 10 0zm-34 0l0 -31 -10 0 0 31 10 0zm-34 0l0 -31 -10 0 0 31 10 0zm-33 0l0 -31 -11 0 0 31 11 0zm-34 0l0 -31 -11 0 0 31 11 0zm-34 0l0 -31 -10 0 0 31 10 0zm-34 0l0 -31 -10 0 0 31 10 0zm-34 0l0 -31 -10 0 0 31 10 0zm-33 0l0 -31 -11 0 0 31 11 0zm-34 0l0 -31 -11 0 0 31 11 0zm-34 0l0 -31 -10 0 0 31 10 0zm-34 0l0 -31 -10 0 0 31 10 0zm-34 0l0 -31 -10 0 0 31 10 0zm-33 0l0 -31 -11 0 0 31 11 0zm-34 0l0 -31 -11 0 0 31 11 0zm-34 0l0 -31 -10 0 0 31 10 0z"/>
   <polygon class="fil1" points="240,1234 737,1234 737,1667 240,1667 "/>
   <polygon class="fil8" points="737,909 694,909 1300,199 1885,933 1885,1667 737,1667 "/>
   <polygon class="fil9" points="737,909 737,1263 158,1263 716,937 716,925 652,925 652,909 "/>
   <polygon class="fil10" points="1555,817 1843,817 1843,1024 1555,1024 "/>
   <g>
    <polygon class="fil3" points="2122,1069 2462,1069 2462,1313 2122,1313 "/>
    <path class="fil11" d="M2252 1088l31 0 0 59 -31 0 0 -59zm-104 0l32 0 0 59 -32 0 0 -59zm207 0l32 0 0 59 -32 0 0 -59zm49 0l31 0 0 59 -31 0 0 -59zm31 75l0 52 -31 0 0 -52 31 0zm0 68l0 59 -31 0 0 -59 31 0zm-48 59l-32 0 0 -59 32 0 0 59zm-32 -75l0 -52 32 0 0 52 -32 0zm-158 -127l31 0 0 59 -31 0 0 -59zm31 75l0 52 -31 0 0 -52 31 0zm0 68l0 59 -31 0 0 -59 31 0zm-48 59l-32 0 0 -59 32 0 0 59zm-32 -75l0 -52 32 0 0 52 -32 0zm153 -127l31 0 0 59 -31 0 0 -59zm31 75l0 52 -31 0 0 -52 31 0zm0 68l0 59 -31 0 0 -59 31 0zm-49 59l-31 0 0 -59 31 0 0 59zm-31 -75l0 -52 31 0 0 52 -31 0z"/>
   </g>
   <g>
    <polygon class="fil3" points="3045,1069 3385,1069 3385,1313 3045,1313 "/>
    <path class="fil11" d="M3175 1088l31 0 0 59 -31 0 0 -59zm-104 0l32 0 0 59 -32 0 0 -59zm208 0l31 0 0 59 -31 0 0 -59zm48 0l32 0 0 59 -32 0 0 -59zm32 75l0 52 -32 0 0 -52 32 0zm0 68l0 59 -32 0 0 -59 32 0zm-49 59l-31 0 0 -59 31 0 0 59zm-31 -75l0 -52 31 0 0 52 -31 0zm-159 -127l31 0 0 59 -31 0 0 -59zm31 75l0 52 -31 0 0 -52 31 0zm0 68l0 59 -31 0 0 -59 31 0zm-48 59l-32 0 0 -59 32 0 0 59zm-32 -75l0 -52 32 0 0 52 -32 0zm153 -127l31 0 0 59 -31 0 0 -59zm31 75l0 52 -31 0 0 -52 31 0zm0 68l0 59 -31 0 0 -59 31 0zm-49 59l-31 0 0 -59 31 0 0 59zm-31 -75l0 -52 31 0 0 52 -31 0z"/>
   </g>
   <g>
    <polygon class="fil3" points="2609,1069 2950,1069 2950,1313 2609,1313 "/>
    <path class="fil11" d="M2739 1088l32 0 0 59 -32 0 0 -59zm-103 0l31 0 0 59 -31 0 0 -59zm207 0l31 0 0 59 -31 0 0 -59zm49 0l31 0 0 59 -31 0 0 -59zm31 75l0 52 -31 0 0 -52 31 0zm0 68l0 59 -31 0 0 -59 31 0zm-49 59l-31 0 0 -59 31 0 0 59zm-31 -75l0 -52 31 0 0 52 -31 0zm-159 -127l32 0 0 59 -32 0 0 -59zm32 75l0 52 -32 0 0 -52 32 0zm0 68l0 59 -32 0 0 -59 32 0zm-49 59l-31 0 0 -59 31 0 0 59zm-31 -75l0 -52 31 0 0 52 -31 0zm152 -127l31 0 0 59 -31 0 0 -59zm31 75l0 52 -31 0 0 -52 31 0zm0 68l0 59 -31 0 0 -59 31 0zm-48 59l-32 0 0 -59 32 0 0 59zm-32 -75l0 -52 32 0 0 52 -32 0z"/>
   </g>
   <g>
    <polygon class="fil3" points="3532,1069 3873,1069 3873,1313 3532,1313 "/>
    <path class="fil11" d="M3663 1088l31 0 0 59 -31 0 0 -59zm-104 0l31 0 0 59 -31 0 0 -59zm207 0l32 0 0 59 -32 0 0 -59zm49 0l31 0 0 59 -31 0 0 -59zm31 75l0 52 -31 0 0 -52 31 0zm0 68l0 59 -31 0 0 -59 31 0zm-48 59l-32 0 0 -59 32 0 0 59zm-32 -75l0 -52 32 0 0 52 -32 0zm-158 -127l31 0 0 59 -31 0 0 -59zm31 75l0 52 -31 0 0 -52 31 0zm0 68l0 59 -31 0 0 -59 31 0zm-49 59l-31 0 0 -59 31 0 0 59zm-31 -75l0 -52 31 0 0 52 -31 0zm152 -127l32 0 0 59 -32 0 0 -59zm32 75l0 52 -32 0 0 -52 32 0zm0 68l0 59 -32 0 0 -59 32 0zm-49 59l-31 0 0 -59 31 0 0 59zm-31 -75l0 -52 31 0 0 52 -31 0z"/>
   </g>
   <g>
    <polygon class="fil3" points="1117,744 1458,744 1458,988 1117,988 "/>
    <path class="fil11" d="M1247 763l32 0 0 59 -32 0 0 -59zm-103 0l31 0 0 59 -31 0 0 -59zm207 0l31 0 0 59 -31 0 0 -59zm49 0l31 0 0 59 -31 0 0 -59zm31 75l0 52 -31 0 0 -52 31 0zm0 68l0 59 -31 0 0 -59 31 0zm-49 59l-31 0 0 -59 31 0 0 59zm-31 -75l0 -52 31 0 0 52 -31 0zm-159 -127l32 0 0 59 -32 0 0 -59zm32 75l0 52 -32 0 0 -52 32 0zm0 68l0 59 -32 0 0 -59 32 0zm-49 59l-31 0 0 -59 31 0 0 59zm-31 -75l0 -52 31 0 0 52 -31 0zm152 -127l31 0 0 59 -31 0 0 -59zm31 75l0 52 -31 0 0 -52 31 0zm0 68l0 59 -31 0 0 -59 31 0zm-48 59l-32 0 0 -59 32 0 0 59zm-32 -75l0 -52 32 0 0 52 -32 0z"/>
   </g>
   <g>
    <polygon class="fil3" points="1117,1200 1458,1200 1458,1444 1117,1444 "/>
    <path class="fil11" d="M1247 1219l32 0 0 60 -32 0 0 -60zm-103 0l31 0 0 60 -31 0 0 -60zm207 0l31 0 0 60 -31 0 0 -60zm49 0l31 0 0 60 -31 0 0 -60zm31 75l0 53 -31 0 0 -53 31 0zm0 68l0 60 -31 0 0 -60 31 0zm-49 60l-31 0 0 -60 31 0 0 60zm-31 -75l0 -53 31 0 0 53 -31 0zm-159 -128l32 0 0 60 -32 0 0 -60zm32 75l0 53 -32 0 0 -53 32 0zm0 68l0 60 -32 0 0 -60 32 0zm-49 60l-31 0 0 -60 31 0 0 60zm-31 -75l0 -53 31 0 0 53 -31 0zm152 -128l31 0 0 60 -31 0 0 -60zm31 75l0 53 -31 0 0 -53 31 0zm0 68l0 60 -31 0 0 -60 31 0zm-48 60l-32 0 0 -60 32 0 0 60zm-32 -75l0 -53 32 0 0 53 -32 0z"/>
   </g>
   <path class="fil1" d="M240 1320l24 0 0 58 -11 0c-4,0 -9,0 -13,2l0 -60z"/>
   <polygon class="fil8" points="858,717 1713,717 1300,199 "/>
   <polygon class="fil12" points="1885,933 1300,199 1542,340 2030,967 "/>
   <polygon class="fil13" points="1885,1667 1885,933 1979,1069 1979,1665 "/>
   <polygon class="fil9" points="1885,933 1979,1069 5029,1069 4904,727 4962,727 4426,291 1461,291 1463,293 1542,340 2030,967 "/>
   <polygon class="fil14" points="3902,1069 3782,1069 4075,691 4190,691 "/>
   <polygon class="fil2" points="3902,1069 4190,691 4593,1069 "/>
   <polygon class="fil3" points="4851,1286 4949,1286 4949,1365 4851,1365 "/>
   <path class="fil11" d="M4565 1092l-42 0 0 49 42 0 0 -49zm-53 0l-17 0 0 49 17 0 0 -49zm-17 60l0 49 17 0 0 -49 -17 0zm28 49l42 0 0 -49 -42 0 0 49z"/>
   <polygon class="fil3" points="4057,1069 4352,1069 4352,1663 4057,1663 "/>
   <path class="fil11" d="M4294 1370l32 0 0 63 -32 0 0 -63zm-210 218l0 -58 32 0 0 58 -32 0zm210 -300l32 0 0 63 -32 0 0 -63zm-210 -62l112 0 0 42 -112 0 0 -42zm129 0l113 0 0 42 -113 0 0 -42zm-129 62l32 0 0 63 -32 0 0 -63zm0 160l32 0 0 64 -32 0 0 -64zm0 -78l32 0 0 63 -32 0 0 -63zm210 160l32 0 0 64 -32 0 0 -64zm0 -82l32 0 0 64 -32 0 0 -64z"/>
   <path class="fil15" d="M4079 1079l253 0 0 121 -255 0 0 -121 2 0zm249 4l-246 0 0 113 246 0 0 -113z"/>
   <polygon class="fil3" points="3184,1412 3283,1412 3283,1475 3184,1475 "/>
   <polygon class="fil8" points="961,596 990,66 970,22 1079,0 1196,75 1174,102 1174,346 "/>
   <polygon class="fil13" points="990,66 1087,62 1087,449 961,596 "/>
   <polygon class="fil8" points="1087,449 1087,62 1174,102 1174,346 "/>
   <polygon class="fil13" points="1222,290 1222,211 1207,166 1323,166 1391,207 1391,252 1300,199 "/>
   <g>
    <polygon class="fil16" points="877,2920 525,2920 97,1890 424,1890 689,2574 694,2574 928,1890 1274,1890 1504,2574 1774,1890 2102,1890 1673,2920 1324,2920 1101,2199 "/>
    <polygon class="fil16" points="3071,2920 2854,2920 2474,2171 2470,2171 2470,2920 2171,2920 2171,1890 2673,1890 2958,2490 2962,2496 3247,1890 3748,1890 3748,2920 3451,2920 3451,2171 3445,2171 "/>
    <polygon class="fil16" points="4183,2536 4183,2920 3862,2920 3862,1890 4183,1890 4183,2261 4870,2261 4870,1890 5191,1890 5191,2920 4870,2920 4870,2536 "/>
   </g>
   <g>
    <path class="fil16" d="M4801 2405c0,152 -123,275 -274,275 -152,0 -275,-123 -275,-275 0,-152 123,-274 275,-274 151,0 274,122 274,274z"/>
   </g>
   <path class="fil16" d="M3234 2406c0,152 -123,275 -274,275 -152,0 -275,-123 -275,-275 0,-152 123,-275 275,-275 151,0 274,123 274,275z"/>
   <path class="fil16" d="M1374 2405c0,152 -123,275 -275,275 -151,0 -274,-123 -274,-275 0,-152 123,-274 274,-274 152,0 275,122 275,274z"/>
   <g>
    <g>
     <path class="fil17" d="M1338 2405c0,131 -105,237 -236,237 -130,0 -236,-106 -236,-237 0,-130 106,-236 236,-236 131,0 236,106 236,236z"/>
    </g>
    <g>
     <path class="fil18" d="M1225 2206c34,41 55,94 55,152 0,130 -106,236 -236,236 -45,0 -87,-12 -123,-34 43,51 108,84 181,84 131,0 236,-105 236,-236 0,-85 -45,-160 -113,-202z"/>
    </g>
    <g>
     <g>
      <path class="fil19" d="M1091 2632l0 -3c0,0 10,-2 22,-12 11,-9 25,-28 33,-66 17,-81 -4,-145 -4,-145l3 -1c0,1 21,65 4,147 -8,39 -23,58 -35,68 -12,10 -22,11 -23,12z"/>
     </g>
    </g>
    <g>
     <g>
      <path class="fil19" d="M1323 2454c-29,-73 -78,-107 -114,-123 -39,-17 -72,-16 -72,-16l0 -3c0,0 33,0 73,17 23,10 44,24 62,41 22,22 40,50 53,83l-2 1z"/>
     </g>
    </g>
    <g>
     <g>
      <path class="fil19" d="M1142 2307l-2 -2c10,-14 26,-41 42,-67 10,-17 19,-32 27,-44l2 2c-7,11 -17,27 -27,44 -16,26 -32,53 -42,67z"/>
     </g>
    </g>
    <g>
     <g>
      <path class="fil19" d="M1127 2310c0,0 -15,-27 -45,-50 -27,-21 -74,-43 -139,-28l0 -3c29,-7 57,-7 83,0 20,5 40,15 58,29 30,23 46,50 46,50l-3 2z"/>
     </g>
    </g>
    <g>
     <g>
      <path class="fil19" d="M903 2531l-2 0c33,-168 157,-180 211,-185 5,-1 10,-1 14,-2l1 3c-4,1 -9,1 -15,2 -53,5 -176,16 -209,182z"/>
     </g>
    </g>
    <g>
     <polygon class="fil20" points="1183,2240 1073,2251 1050,2359 1146,2415 1228,2341 "/>
    </g>
    <g>
     <path class="fil20" d="M913 2263l64 -37 0 -21c-23,15 -47,37 -64,58z"/>
    </g>
    <g>
     <path class="fil20" d="M1167 2178l34 31 47 11c0,0 -19,-16 -30,-23 -22,-13 -51,-19 -51,-19z"/>
    </g>
    <g>
     <g>
      <path class="fil19" d="M1077 2608c-67,0 -128,-61 -140,-76l3 -2c11,15 72,75 137,75l0 3z"/>
     </g>
    </g>
    <g>
     <g>
      <path class="fil19" d="M1226 2587l-2 -3c27,-18 48,-42 62,-72l3 1c-14,30 -36,55 -63,74z"/>
     </g>
    </g>
    <g>
     <g>
      <path class="fil19" d="M1326 2403l-3 -1c6,-24 0,-61 -16,-101 -14,-33 -37,-61 -43,-68 9,8 32,33 46,67 16,40 22,78 16,103z"/>
     </g>
    </g>
    <g>
     <g>
      <path class="fil19" d="M882 2422c-9,-48 0,-120 29,-156 -13,16 -22,43 -27,73 -4,28 -4,58 1,82l-3 1z"/>
     </g>
    </g>
    <g>
     <path class="fil20" d="M914 2552l45 -2 -11 -129 -68 -18 -14 18c0,45 22,104 48,131z"/>
    </g>
    <g>
     <path class="fil20" d="M1046 2601l26 39c10,1 20,2 30,2 43,0 83,-12 118,-32l15 -31 -86 -48 -103 70z"/>
    </g>
    <g>
     <path class="fil20" d="M1277 2531l25 0c23,-36 36,-79 36,-126 0,-1 0,-12 0,-13l-11 -10 -36 9 -14 140z"/>
    </g>
    <g>
     <path class="fil21" d="M971 2253c-21,23 -35,53 -34,84 1,17 6,34 18,46 12,11 31,16 45,8 9,-5 15,-14 20,-22 10,-17 17,-36 31,-51 19,-22 49,-32 68,-54 8,-10 13,-22 8,-34 -9,-22 -55,-26 -76,-23 -29,4 -60,25 -80,46z"/>
    </g>
   </g>
   <g>
    <g>
     <path class="fil22" d="M3181 2401c0,122 -99,221 -221,221 -122,0 -221,-99 -221,-221 0,-122 99,-222 221,-222 122,0 221,100 221,222z"/>
    </g>
    <g>
     <path class="fil23" d="M2829 2244c-22,21 -38,50 -39,80 0,16 3,33 14,46 11,12 30,18 44,11 9,-4 16,-12 21,-20 11,-16 20,-34 34,-48 20,-20 50,-28 70,-48 8,-9 15,-21 11,-33 -7,-22 -53,-29 -73,-28 -29,2 -61,21 -82,40z"/>
    </g>
    <g>
     <g>
      <path class="fil24" d="M2919 2537c-11,0 -21,-1 -32,-2 -26,-5 -50,-14 -69,-28 -22,-15 -38,-35 -44,-57 -18,-58 18,-120 48,-170 17,-29 37,-63 27,-71 0,0 19,-11 20,-10 5,4 7,23 1,39 -6,16 -16,33 -28,54 -27,46 -61,103 -46,151 10,34 47,61 95,69 44,7 83,-3 100,-26 25,-34 25,-75 25,-118 0,-26 0,-52 5,-76 7,-32 28,-52 61,-58 7,-2 19,-1 25,0 7,2 19,21 19,21 0,0 -21,-3 -40,1 -24,5 -38,19 -42,41 -5,22 -5,45 -5,70 0,46 0,92 -30,133 -11,16 -30,27 -53,33 -12,3 -24,4 -37,4z"/>
     </g>
    </g>
    <g>
     <path class="fil25" d="M3075 2212c32,38 51,88 51,142 0,122 -99,221 -221,221 -42,0 -81,-12 -115,-32 41,48 102,79 170,79 122,0 221,-99 221,-221 0,-80 -43,-150 -106,-189z"/>
    </g>
    <g>
     <path class="fil26" d="M3103 2255c13,-1 23,0 23,0 -7,-7 -14,-14 -21,-21 -4,-1 -10,-1 -15,-1 5,7 9,14 13,22z"/>
    </g>
   </g>
   <g>
    <path class="fil27" d="M4754 2406c0,125 -101,227 -226,227 -126,0 -227,-102 -227,-227 0,-125 101,-227 227,-227 125,0 226,102 226,227z"/>
   </g>
   <g>
    <g>
     <g>
      <path class="fil28" d="M4457 2200c-2,0 -3,-1 -4,-2 -1,-1 -1,-5 2,-5 1,-1 12,-4 12,-4 3,0 1,3 -1,4 -2,2 -5,4 -7,6 -1,1 -2,1 -2,1z"/>
     </g>
    </g>
    <g>
     <g>
      <path class="fil28" d="M4473 2626c-5,-3 -9,-5 -13,-8 -2,-1 -2,-4 -1,-6 1,-2 4,-2 6,-1 5,4 10,7 15,9 2,1 3,4 2,6 0,1 -1,1 -1,2 -1,0 -7,-2 -8,-2zm-25 -19l0 0c-1,0 -2,0 -3,-1 -5,-4 -9,-9 -14,-14 -1,-2 -1,-4 1,-6 1,-1 4,-1 5,1 4,4 9,9 13,13 2,1 2,4 1,6 -1,0 -2,1 -3,1zm-25 -28l0 0c-2,0 -3,-1 -4,-2 -3,-5 -7,-10 -10,-16 -1,-2 -1,-4 1,-6 2,-1 5,0 6,2 3,5 6,10 10,15 1,2 1,5 -1,6 -1,1 -2,1 -2,1zm-20 -33l0 0c-1,0 -3,0 -3,-2 -3,-5 -6,-11 -8,-17 -1,-2 0,-5 2,-6 2,0 5,1 6,3 2,5 5,11 7,17 1,2 0,4 -2,5 0,0 -1,0 -2,0zm-13 -34l0 0c-2,0 -4,-2 -4,-3 -2,-6 -4,-12 -6,-19 0,-2 1,-4 3,-5 2,0 5,1 5,3 2,6 4,12 5,18 1,2 0,5 -2,5 -1,0 -1,1 -1,1zm-10 -37l0 0c-2,0 -4,-1 -4,-3 -1,-6 -3,-12 -4,-19 0,-2 2,-4 4,-4 2,-1 4,1 4,3 2,6 3,12 4,18 0,2 -1,5 -3,5 -1,0 -1,0 -1,0zm-6 -37l0 0c-2,0 -4,-1 -4,-3 -1,-7 -2,-13 -2,-19 0,-3 1,-5 3,-5 3,0 5,2 5,4 0,6 1,12 2,19 0,2 -1,4 -4,4 0,0 0,0 0,0zm-3 -37l0 0c-3,0 -4,-2 -5,-4 0,-4 0,-8 0,-12 0,-3 0,-5 0,-7 0,-3 2,-4 4,-4 3,0 5,2 4,4 0,2 0,4 0,7 0,4 0,7 1,11 0,3 -2,5 -4,5 0,0 0,0 0,0zm1 -38l0 0c-1,0 -1,0 -1,0 -2,0 -4,-2 -3,-5 0,-6 1,-12 2,-18 1,-3 3,-4 5,-4 2,1 4,3 3,5 -1,6 -2,12 -2,18 -1,2 -2,4 -4,4zm6 -37l0 0c0,0 0,0 -1,0 -2,-1 -3,-3 -3,-5 2,-6 4,-12 6,-18 1,-3 3,-4 5,-3 2,1 4,3 3,5 -2,6 -4,12 -6,18 0,2 -2,3 -4,3zm13 -36l0 0c-1,0 -1,0 -2,0 -2,-1 -3,-3 -2,-5 2,-6 5,-12 8,-18 1,-2 4,-2 6,-1 2,1 2,3 1,5 -2,6 -5,11 -8,17 0,2 -2,2 -3,2zm17 -33l0 0c-1,0 -1,0 -2,0 -2,-2 -3,-4 -1,-6 3,-6 6,-11 10,-16 2,-2 4,-2 6,-1 2,1 2,4 1,6 -4,5 -7,10 -10,15 -1,1 -3,2 -4,2zm22 -30l0 0c-1,0 -2,-1 -3,-1 -1,-2 -2,-4 0,-6 4,-5 8,-10 13,-14 1,-2 4,-2 6,0 1,1 1,4 0,5 -5,5 -9,9 -13,14 -1,1 -2,2 -3,2z"/>
     </g>
    </g>
    <g>
     <g>
      <path class="fil28" d="M4492 2630c0,-3 3,-4 5,-3 5,1 8,2 8,2 2,0 3,1 4,3 0,0 -17,-2 -17,-2z"/>
     </g>
    </g>
   </g>
   <g>
    <g>
     <g>
      <path class="fil29" d="M4452 2199c-1,0 -2,0 -3,-1 -1,-2 -1,-5 2,-6 1,0 12,-4 12,-4 3,0 1,3 -1,5 -2,1 -5,3 -7,5 -1,1 -2,1 -3,1z"/>
     </g>
    </g>
    <g>
     <g>
      <path class="fil29" d="M4469 2625c-5,-2 -9,-5 -13,-8 -2,-1 -2,-4 -1,-6 1,-1 4,-2 6,-1 5,4 10,7 15,10 2,1 3,3 2,5 0,1 -1,2 -1,2 -1,0 -7,-1 -8,-2zm-25 -19l0 0c-1,0 -2,0 -3,-1 -5,-4 -9,-9 -14,-13 -1,-2 -1,-5 1,-6 1,-2 4,-2 5,0 4,5 9,9 13,13 2,2 2,4 1,6 -1,1 -2,1 -3,1zm-25 -28l0 0c-2,0 -3,0 -4,-1 -3,-6 -7,-11 -10,-17 -1,-2 -1,-4 1,-5 2,-1 5,-1 6,1 3,6 6,11 10,16 1,2 1,4 -1,5 -1,1 -2,1 -2,1zm-20 -32l0 0c-1,0 -3,-1 -3,-2 -3,-6 -6,-12 -8,-18 -1,-2 0,-4 2,-5 2,-1 5,0 6,2 2,6 4,12 7,17 1,2 0,4 -2,5 0,1 -1,1 -2,1zm-14 -35l0 0c-1,0 -3,-1 -3,-3 -2,-6 -4,-12 -6,-18 0,-2 1,-5 3,-5 2,-1 5,1 5,3 2,6 4,12 5,18 1,2 0,4 -2,5 -1,0 -1,0 -2,0zm-9 -36l0 0c-2,0 -4,-2 -4,-4 -1,-6 -3,-12 -4,-18 0,-3 2,-5 4,-5 2,0 4,1 4,3 1,7 3,13 4,19 0,2 -1,4 -3,4 -1,1 -1,1 -1,1zm-6 -38l0 0c-2,0 -4,-1 -4,-3 -1,-6 -2,-13 -2,-19 0,-2 1,-4 3,-4 3,-1 5,1 5,3 0,7 1,13 2,19 0,2 -1,4 -4,4 0,0 0,0 0,0zm-3 -37l0 0c-3,0 -4,-2 -5,-4 0,-4 0,-8 0,-12 0,-2 0,-5 0,-7 0,-2 2,-4 4,-4 3,0 5,2 4,4 0,3 0,5 0,7 0,4 0,8 1,12 0,2 -2,4 -4,4 0,0 0,0 0,0zm1 -38l0 0c-1,0 -1,0 -1,0 -2,0 -4,-2 -3,-4 0,-6 1,-13 2,-19 1,-2 3,-4 5,-3 2,0 4,2 3,4 -1,6 -2,13 -2,19 -1,2 -2,3 -4,3zm6 -37l0 0c0,0 0,0 -1,0 -2,0 -3,-3 -3,-5 2,-6 4,-12 6,-18 1,-2 3,-3 5,-3 2,1 3,4 3,6 -2,5 -4,11 -6,17 0,2 -2,3 -4,3zm13 -35l0 0c-1,0 -1,0 -2,0 -2,-1 -3,-4 -2,-6 2,-6 5,-11 8,-17 1,-2 4,-3 6,-2 2,1 2,4 1,6 -2,5 -5,11 -8,16 0,2 -2,3 -3,3zm17 -34l0 0c-1,0 -1,0 -2,0 -2,-1 -3,-4 -1,-6 3,-5 6,-11 10,-16 1,-2 4,-2 6,-1 2,2 2,4 1,6 -4,5 -7,10 -10,16 -1,1 -3,1 -4,1zm22 -30l0 0c-1,0 -2,0 -3,-1 -1,-1 -2,-4 0,-6 4,-5 8,-9 13,-14 1,-2 4,-2 6,0 1,2 1,4 0,6 -5,4 -9,9 -13,14 -1,0 -2,1 -3,1z"/>
     </g>
    </g>
    <g>
     <g>
      <path class="fil29" d="M4488 2629c0,-2 3,-3 5,-2 5,1 8,2 8,2 2,0 3,1 4,3 0,0 -17,-2 -17,-3z"/>
     </g>
    </g>
   </g>
   <g>
    <g>
     <g>
      <path class="fil29" d="M4506 2190c-1,0 -2,-1 -3,-1 -2,-2 -2,-4 0,-6 1,-1 1,-2 2,-2 1,-1 11,-1 11,-1 0,0 0,1 -1,2 -2,2 -4,4 -6,7 -1,0 -2,1 -3,1z"/>
     </g>
    </g>
    <g>
     <g>
      <path class="fil29" d="M4539 2628c-1,0 -1,0 -2,0 -6,-3 -11,-5 -17,-9 -2,-1 -2,-3 -1,-5 1,-2 4,-3 6,-2 5,3 10,6 15,9 2,0 3,3 2,5 0,1 -2,2 -3,2zm-32 -18l0 0c-1,0 -1,-1 -2,-1 -5,-4 -10,-8 -15,-12 -1,-1 -1,-4 0,-6 2,-1 4,-2 6,0 4,4 9,8 14,11 2,2 2,4 1,6 -1,1 -2,2 -4,2zm-27 -25l0 0c-1,0 -2,0 -3,-1 -4,-5 -8,-9 -12,-14 -1,-2 -1,-5 1,-6 2,-2 5,-1 6,1 4,4 7,9 11,13 2,2 2,5 0,6 -1,1 -2,1 -3,1zm-22 -29l0 0c-1,0 -2,-1 -3,-2 -3,-5 -7,-10 -10,-16 -1,-2 0,-4 2,-5 2,-1 5,-1 6,1 2,6 6,11 9,16 1,2 0,4 -2,6 0,0 -1,0 -2,0zm-17 -32l0 0c-2,0 -3,-1 -4,-2 -2,-6 -5,-12 -7,-18 -1,-2 0,-4 3,-5 2,-1 4,0 5,3 2,5 4,11 7,16 1,2 0,5 -2,6 -1,0 -1,0 -2,0zm-13 -34l0 0c-2,0 -3,-1 -4,-3 -2,-6 -3,-12 -5,-18 0,-2 1,-4 3,-5 2,0 5,1 5,3 2,6 3,12 5,18 1,2 -1,4 -3,5 0,0 0,0 -1,0zm-9 -36l0 0c-2,0 -3,-1 -4,-3 -1,-6 -2,-12 -3,-18 0,-2 1,-4 3,-5 3,0 5,1 5,4 1,6 2,12 3,18 1,2 -1,4 -3,4 0,0 -1,0 -1,0zm-6 -36l0 0c-2,0 -3,-1 -4,-3 0,-7 -1,-13 -1,-19 0,-2 2,-4 4,-4 2,0 4,2 4,4 0,6 1,12 2,18 0,2 -2,4 -4,4 0,0 0,0 -1,0zm-1 -36l0 0c0,0 0,0 0,0 -2,0 -4,-2 -4,-4 0,-7 1,-13 1,-19 0,-2 2,-4 5,-4 2,1 4,3 3,5 0,6 -1,12 -1,18 0,2 -2,4 -4,4zm4 -36l0 0c0,0 -1,0 -1,-1 -2,0 -4,-2 -3,-4 1,-6 2,-12 4,-18 0,-3 3,-4 5,-3 2,0 3,2 3,5 -2,5 -3,11 -4,17 0,2 -2,4 -4,4zm9 -36l0 0c0,0 -1,0 -1,0 -2,-1 -4,-3 -3,-5 2,-6 4,-12 7,-18 1,-2 3,-3 5,-2 2,1 3,4 2,6 -2,5 -4,11 -6,16 -1,2 -2,3 -4,3zm14 -33l0 0c0,0 -1,-1 -1,-1 -2,-1 -3,-3 -2,-5 3,-6 6,-11 9,-17 1,-1 4,-2 6,-1 2,1 2,4 1,6 -3,5 -6,10 -9,15 -1,2 -2,3 -4,3zm19 -32l0 0c0,0 -1,0 -2,0 -2,-2 -2,-4 -1,-6 4,-5 7,-10 11,-15 1,-2 4,-2 6,-1 2,2 2,4 1,6 -4,5 -8,10 -11,15 -1,1 -2,1 -4,1zm23 -28l0 0c-1,0 -2,-1 -3,-1 -1,-2 -2,-4 0,-6 4,-5 8,-9 12,-14 2,-1 4,-2 6,0 2,2 2,4 0,6 -4,5 -8,9 -12,13 -1,1 -2,2 -3,2z"/>
     </g>
    </g>
    <g>
     <g>
      <path class="fil29" d="M4552 2631c0,0 0,-1 0,-2 1,-2 3,-4 5,-3 5,2 8,2 8,2 1,0 2,1 3,1 0,1 -16,3 -16,2z"/>
     </g>
    </g>
   </g>
   <g>
    <g>
     <g>
      <path class="fil30" d="M4502 2190c-1,0 -2,-1 -3,-1 -1,-2 -1,-5 0,-6 1,-1 1,-2 2,-3 1,0 11,-1 11,-1 0,1 0,2 -1,3 -2,2 -4,4 -6,6 -1,1 -2,2 -3,2z"/>
     </g>
    </g>
    <g>
     <g>
      <path class="fil30" d="M4535 2628c-1,0 -1,0 -2,0 -5,-3 -11,-6 -16,-9 -2,-1 -3,-4 -2,-5 1,-2 4,-3 6,-2 5,3 10,6 16,8 2,1 3,4 2,6 -1,1 -3,2 -4,2zm-31 -18l0 0c-1,0 -2,-1 -3,-1 -5,-4 -10,-8 -14,-12 -2,-2 -2,-4 -1,-6 2,-2 5,-2 6,0 5,4 9,8 14,11 2,2 2,4 1,6 -1,1 -2,2 -3,2zm-27 -25l0 0c-2,0 -3,0 -3,-1 -5,-5 -9,-10 -12,-15 -2,-1 -1,-4 0,-5 2,-2 5,-1 6,0 4,5 8,10 12,14 1,2 1,4 -1,6 0,1 -1,1 -2,1zm-23 -29l0 0c-1,0 -2,-1 -3,-2 -3,-5 -6,-10 -9,-16 -1,-2 -1,-4 1,-6 2,-1 5,0 6,2 3,5 6,11 9,16 1,2 1,4 -1,5 -1,1 -2,1 -3,1zm-17 -32l0 0c-1,0 -3,-1 -4,-3 -2,-5 -4,-11 -7,-17 0,-2 1,-4 3,-5 2,-1 4,0 5,2 2,6 4,12 7,17 1,2 0,5 -2,5 -1,1 -1,1 -2,1zm-13 -34l0 0c-1,0 -3,-1 -4,-3 -1,-6 -3,-12 -5,-18 0,-2 1,-4 3,-5 3,-1 5,1 5,3 2,6 3,12 5,17 1,2 0,5 -2,5 -1,1 -1,1 -2,1zm-9 -36l0 0c-2,0 -3,-1 -4,-3 -1,-6 -2,-12 -3,-18 0,-2 1,-5 3,-5 3,0 5,1 5,4 1,6 2,12 3,17 1,3 -1,5 -3,5 0,0 0,0 -1,0zm-5 -36l0 0c-2,0 -4,-1 -4,-4 -1,-6 -1,-12 -2,-18 0,-2 2,-4 4,-4 2,0 4,1 4,4 1,6 1,12 2,18 0,2 -2,4 -4,4 0,0 0,0 0,0zm-2 -36l0 0c0,0 0,0 0,0 -2,0 -4,-2 -4,-5 0,-6 1,-12 1,-18 1,-2 3,-4 5,-4 2,0 4,2 4,5 -1,6 -1,12 -2,18 0,2 -2,4 -4,4zm4 -37l0 0c0,0 0,0 -1,0 -2,0 -3,-2 -3,-4 1,-7 2,-13 4,-19 1,-2 3,-3 5,-3 2,1 4,3 3,5 -2,6 -3,12 -4,18 0,2 -2,3 -4,3zm9 -35l0 0c0,0 -1,0 -1,0 -2,-1 -3,-3 -3,-5 2,-6 5,-12 7,-18 1,-2 3,-3 6,-2 2,1 3,3 2,5 -3,6 -5,12 -7,17 0,2 -2,3 -4,3zm15 -34l0 0c-1,0 -2,0 -2,0 -2,-1 -3,-4 -2,-6 3,-5 6,-10 9,-16 1,-2 4,-2 6,-1 2,1 2,4 1,6 -3,5 -6,10 -9,15 0,2 -2,2 -3,2zm19 -31l0 0c-1,0 -2,0 -3,-1 -2,-1 -2,-3 -1,-5 4,-5 7,-10 11,-15 2,-2 4,-2 6,-1 2,2 2,4 1,6 -4,5 -8,10 -11,14 -1,2 -2,2 -3,2zm22 -29l0 0c-1,0 -2,0 -3,-1 -1,-1 -1,-4 0,-5 4,-5 8,-9 12,-14 2,-2 5,-2 6,0 2,1 2,4 0,6 -4,4 -8,9 -12,13 -1,1 -2,1 -3,1z"/>
     </g>
    </g>
    <g>
     <g>
      <path class="fil30" d="M4548 2632c0,-1 0,-2 0,-3 1,-2 3,-3 5,-2 6,1 9,2 9,2 0,0 1,0 2,1 0,0 -16,2 -16,2z"/>
     </g>
    </g>
   </g>
   <g>
    <path class="fil31" d="M4369 2265c-24,26 -40,61 -39,96 1,19 7,39 20,52 14,14 36,19 53,10 10,-6 16,-16 22,-25 11,-20 20,-42 35,-58 22,-25 57,-37 78,-63 9,-10 15,-25 10,-38 -10,-26 -64,-30 -87,-27 -33,5 -69,29 -92,53z"/>
   </g>
   <g>
    <path class="fil30" d="M4679 2477c-6,0 -13,-2 -20,-5 -24,-11 -44,-37 -53,-71 -7,-26 -9,-54 -5,-77 5,-26 17,-43 35,-49 15,-5 30,-3 44,4 21,12 38,37 45,66 13,50 8,110 -26,127 -6,3 -13,5 -20,5zm-26 -198l0 0c-5,0 -10,0 -15,2 -34,11 -40,69 -26,119 9,31 28,57 49,66 12,6 24,6 35,0 31,-15 35,-73 23,-120 -7,-27 -23,-50 -42,-61 -8,-4 -16,-6 -24,-6z"/>
   </g>
   <g>
    <path class="fil30" d="M4679 2463c-4,0 -8,-1 -12,-2 -19,-8 -37,-31 -45,-62 -7,-23 -9,-48 -7,-69 3,-23 12,-38 25,-44 11,-4 21,-4 31,2 17,8 33,31 40,57 11,45 9,98 -16,114 -5,3 -10,4 -16,4zm-37 -173l0 0c-27,10 -29,63 -17,108 9,30 25,52 43,59 9,4 17,3 25,-1 23,-15 25,-68 14,-110 -7,-25 -21,-47 -37,-55 -9,-5 -19,-5 -28,-1z"/>
   </g>
   <g>
    <g>
     <path class="fil30" d="M4646 2365l-2 -7 3 -1c0,0 1,-1 1,-1 0,0 0,0 0,-1 0,0 0,-1 -1,-1 0,0 0,0 -1,0l-8 3c-1,0 -2,0 -2,0 0,0 0,1 0,1 0,1 0,1 1,1 0,0 1,0 2,0l2 -1 2 7 -1 1c-2,0 -3,0 -4,0 -1,0 -2,-1 -3,-2 0,-1 -1,-3 -2,-5 0,-2 -1,-3 0,-5 0,-1 0,-2 1,-3 1,-1 2,-1 3,-2l5 -1c2,-1 3,-1 3,-1 1,0 2,0 2,1 1,0 2,1 2,2 1,1 2,3 2,4 1,2 1,4 1,5 0,2 -1,3 -1,3 -1,1 -2,2 -4,2l-1 1z"/>
    </g>
    <g>
     <polygon class="fil30" points="4656,2372 4642,2376 4643,2380 4640,2381 4637,2370 4654,2365 "/>
    </g>
    <g>
     <path class="fil30" d="M4662 2393l-12 4c-1,0 -2,0 -3,0 0,0 -1,0 -1,-1 -1,0 -2,-1 -2,-2 -1,-1 -2,-2 -2,-3 0,-2 -1,-3 -1,-5 0,-1 1,-2 1,-3 0,-1 1,-1 1,-1 1,-1 2,-1 4,-2l10 -2 2 6 -13 4c0,0 -1,0 -1,1 0,0 0,0 0,1 0,0 0,0 0,0 1,0 1,0 2,0l13 -4 2 7z"/>
    </g>
    <g>
     <path class="fil30" d="M4662 2396l2 7c1,2 1,4 1,5 1,1 0,2 0,3 -1,1 -2,2 -3,2 -1,0 -2,0 -2,0 -1,-1 -1,-1 -2,-3 0,2 0,3 0,4 -1,0 -1,1 -3,1l-1 1c-1,0 -2,0 -3,0 -1,0 -1,-1 -2,-2 0,-1 -1,-2 -1,-5l-3 -8 17 -5zm-1 8l0 0 -3 1c0,0 0,0 0,1 0,0 0,1 1,1 0,0 0,0 1,-1 1,0 1,0 1,0 1,0 1,-1 1,-1 0,0 0,-1 -1,-1zm-6 2l0 0 -5 1c0,1 1,1 1,2 0,0 1,0 1,0l2 -1c1,0 1,0 1,0 0,-1 0,-1 0,-2z"/>
    </g>
   </g>
   <g>
    <g>
     <path class="fil30" d="M4671 2333l-2 -9 6 -1c1,-1 2,-1 3,-1 0,-1 0,-1 0,-2 0,0 -1,-1 -1,-1 -1,0 -2,0 -4,1l-15 4c-1,0 -2,0 -3,1 0,0 0,0 0,1 0,1 1,1 1,1 1,0 2,0 4,0l4 -1 2 8 -2 0c-3,1 -5,2 -7,1 -1,0 -3,0 -4,-2 -2,-1 -3,-3 -3,-5 -1,-3 -1,-5 -1,-7 1,-2 2,-3 3,-4 2,-1 4,-2 7,-3l10 -2c2,-1 4,-1 5,-1 1,0 2,0 4,0 1,1 2,2 3,3 1,1 2,3 2,5 1,2 1,4 0,6 0,2 -1,3 -2,4 -2,1 -4,2 -7,3l-3 1z"/>
    </g>
    <g>
     <path class="fil30" d="M4686 2332l2 6c1,4 1,7 1,8 0,2 0,3 -1,4 -1,1 -3,2 -6,3 -3,1 -4,1 -5,0 -1,0 -2,-1 -3,-3 0,2 0,3 -1,4 0,1 -1,1 -1,2 -1,0 -2,0 -5,1l-9 2 -2 -8 11 -2c2,-1 3,-1 3,-2 1,0 1,-1 0,-2l-14 4 -2 -9 32 -8zm-3 10l0 0 -8 2c1,1 1,1 1,2 1,0 2,0 3,0l2 -1c1,0 1,-1 2,-1 0,0 0,-1 0,-2z"/>
    </g>
    <g>
     <polygon class="fil30" points="4694,2363 4661,2371 4659,2362 4692,2354 "/>
    </g>
    <g>
     <path class="fil30" d="M4686 2389l-3 -8 6 -2c2,0 3,0 3,-1 0,0 1,0 0,-1 0,-1 0,-1 -1,-1 0,0 -1,0 -3,0l-15 4c-2,1 -3,1 -3,1 0,1 -1,1 0,2 0,0 0,1 1,1 0,0 1,0 3,-1l4 -1 2 9 -1 0c-3,1 -6,1 -7,1 -2,0 -3,-1 -5,-2 -1,-1 -2,-3 -3,-6 -1,-2 -1,-4 0,-6 0,-2 1,-3 3,-4 1,-1 4,-2 7,-3l9 -2c3,-1 4,-1 6,-1 1,-1 2,0 3,0 2,1 3,2 4,3 1,1 1,3 2,4 0,3 1,5 0,7 -1,2 -1,3 -3,4 -1,1 -3,2 -6,3l-3 0z"/>
    </g>
    <g>
     <polygon class="fil30" points="4701,2389 4704,2403 4698,2404 4696,2399 4690,2400 4691,2406 4685,2407 4684,2402 4677,2404 4678,2410 4672,2412 4668,2397 "/>
    </g>
    <g>
     <polygon class="fil30" points="4709,2422 4703,2424 4701,2419 4675,2426 4673,2417 4699,2410 4698,2405 4704,2404 "/>
    </g>
   </g>
   <g>
    <path class="fil32" d="M4646 2212c33,39 53,90 53,146 0,125 -102,227 -227,227 -44,0 -84,-13 -118,-33 41,49 104,81 174,81 125,0 227,-102 227,-227 0,-82 -44,-154 -109,-194z"/>
   </g>
   <g>
    <polygon class="fil3" points="396,1340 606,1340 606,1490 396,1490 "/>
    <path class="fil11" d="M477 1352l19 0 0 37 -19 0 0 -37zm-64 0l19 0 0 37 -19 0 0 -37zm127 0l19 0 0 37 -19 0 0 -37zm30 0l19 0 0 37 -19 0 0 -37zm19 46l0 32 -19 0 0 -32 19 0zm0 42l0 36 -19 0 0 -36 19 0zm-30 36l-19 0 0 -36 19 0 0 36zm-19 -46l0 -32 19 0 0 32 -19 0zm-97 -78l19 0 0 37 -19 0 0 -37zm19 46l0 32 -19 0 0 -32 19 0zm0 42l0 36 -19 0 0 -36 19 0zm-30 36l-19 0 0 -36 19 0 0 36zm-19 -46l0 -32 19 0 0 32 -19 0zm93 -78l20 0 0 37 -20 0 0 -37zm20 46l0 32 -20 0 0 -32 20 0zm0 42l0 36 -20 0 0 -36 20 0zm-30 36l-19 0 0 -36 19 0 0 36zm-19 -46l0 -32 19 0 0 32 -19 0z"/>
   </g>
   <path class="fil33" d="M5201 1667l-718 0 0 17 0 75 17 0 0 -75 45 0 0 75 16 0 0 -75 441 0 0 75 17 0 0 -75 182 0 0 -17zm-1063 17l0 75 -17 0 0 -75 -386 0 0 75 -17 0 0 -75 -420 0 0 75 -17 0 0 -75 -877 0 0 75 -16 0 0 -75 -410 0 0 75 -16 0 0 -75 -409 0 0 75 -16 0 0 -75 -384 0 0 75 -16 0 0 -75 -381 0 0 75 -17 0 0 -75 -359 0 0 75 -17 0 0 -75 -122 0 0 75 -17 0 0 -75 0 -17 17 0 122 0 17 0 359 0 17 0 381 0 16 0 384 0 16 0 409 0 16 0 410 0 16 0 877 0 17 0 823 0 17 0 30 0 16 0 0 17 0 75 -16 0 0 -75 -30 0z"/>
  </g>
 </g>
</svg>
