<?xml version="1.0" encoding="UTF-8"?>
<!DOCTYPE svg PUBLIC "-//W3C//DTD SVG 1.1//EN" "http://www.w3.org/Graphics/SVG/1.1/DTD/svg11.dtd">
<!-- Creator: CorelDRAW X8 -->
<svg xmlns="http://www.w3.org/2000/svg" xml:space="preserve" width="6.14644in" height="3.2964in" version="1.1" style="shape-rendering:geometricPrecision; text-rendering:geometricPrecision; image-rendering:optimizeQuality; fill-rule:evenodd; clip-rule:evenodd"
viewBox="0 0 6667 3575"
 xmlns:xlink="http://www.w3.org/1999/xlink">
 <defs>
  <style type="text/css">
   <![CDATA[
    .str0 {stroke:white;stroke-width:60.2581;stroke-linecap:round;stroke-linejoin:round}
    .fil20 {fill:none}
    .fil21 {fill:black}
    .fil35 {fill:#1B1F25}
    .fil33 {fill:#222429}
    .fil31 {fill:#313439}
    .fil22 {fill:#4D5259}
    .fil32 {fill:#526865}
    .fil29 {fill:#5A2E25}
    .fil30 {fill:#7F3C2C}
    .fil24 {fill:#883D2A}
    .fil28 {fill:#883D2A}
    .fil37 {fill:#949FA3}
    .fil26 {fill:#A0B3BA}
    .fil34 {fill:#A1553F}
    .fil23 {fill:#AF6351}
    .fil25 {fill:#B1C4CB}
    .fil19 {fill:white}
    .fil9 {fill:black;fill-rule:nonzero}
    .fil5 {fill:#373735;fill-rule:nonzero}
    .fil11 {fill:#4D4D4D;fill-rule:nonzero}
    .fil36 {fill:#526865;fill-rule:nonzero}
    .fil4 {fill:#868682;fill-rule:nonzero}
    .fil27 {fill:#883D2A;fill-rule:nonzero}
    .fil17 {fill:#8B1813;fill-rule:nonzero}
    .fil0 {fill:#A0553F;fill-rule:nonzero}
    .fil18 {fill:#A1553F;fill-rule:nonzero}
    .fil15 {fill:#C5C5C5;fill-rule:nonzero}
    .fil3 {fill:#CECECE;fill-rule:nonzero}
    .fil13 {fill:#D32A19;fill-rule:nonzero}
    .fil10 {fill:#E0CD1A;fill-rule:nonzero}
    .fil2 {fill:#EBEBEB;fill-rule:nonzero}
    .fil12 {fill:#F33A1B;fill-rule:nonzero}
    .fil7 {fill:#FBED20;fill-rule:nonzero}
    .fil14 {fill:white;fill-rule:nonzero}
    .fil1 {fill:white;fill-rule:nonzero}
    .fil16 {fill:white;fill-rule:nonzero;fill-opacity:0.341176}
    .fil8 {fill:white;fill-rule:nonzero;fill-opacity:0.360784}
    .fil6 {fill:white;fill-rule:nonzero;fill-opacity:0.549020}
   ]]>
  </style>
 </defs>
 <g id="Layer_x0020_1">
  <metadata id="CorelCorpID_0Corel-Layer"/>
  <g id="_1640730005584">
   <path class="fil0" d="M520 3119l-12 108 -44 0 -22 -203 31 0 17 160 15 -160 31 0 16 161 16 -161 28 0 -23 203 -42 0 -11 -108zm121 61c0,8 1,13 4,16 3,3 7,4 12,4 5,0 9,-1 12,-4 3,-3 5,-8 5,-16l0 -109c0,-7 -2,-12 -5,-15 -3,-3 -7,-5 -12,-5 -5,0 -9,2 -12,5 -3,3 -4,8 -4,15l0 109zm-32 -107c0,-16 4,-29 13,-38 8,-8 20,-13 35,-13 16,0 28,5 36,13 9,9 13,22 13,38l0 105c0,17 -4,29 -13,38 -8,9 -20,13 -36,13 -15,0 -27,-4 -35,-13 -9,-9 -13,-21 -13,-38l0 -105zm184 154c-1,-2 -1,-3 -1,-4 -1,-1 -1,-3 -1,-4 -1,-2 -1,-4 -1,-7 0,-3 0,-6 0,-10l0 -32c0,-9 -2,-16 -5,-20 -3,-4 -9,-6 -16,-6l-11 0 0 83 -32 0 0 -203 48 0c17,0 29,4 36,12 8,8 11,19 11,35l0 16c0,21 -7,34 -20,41 8,3 13,9 16,16 3,7 5,16 5,27l0 31c0,5 0,10 0,13 1,4 2,8 3,12l-32 0zm-35 -174l0 63 12 0c6,0 11,-2 15,-5 3,-3 5,-9 5,-17l0 -20c0,-7 -2,-12 -4,-16 -3,-3 -7,-5 -13,-5l-15 0zm131 -29c16,0 28,5 36,13 8,9 12,21 12,37l0 27c0,16 -4,29 -12,37 -8,9 -20,13 -36,13l-15 0 0 76 -32 0 0 -203 47 0zm-15 29l0 69 15 0c5,0 9,-1 12,-4 3,-3 4,-8 4,-15l0 -31c0,-7 -1,-12 -4,-15 -3,-2 -7,-4 -12,-4l-15 0zm79 -29l32 0 0 174 52 0 0 29 -84 0 0 -203zm130 86l43 0 0 29 -43 0 0 59 55 0 0 29 -87 0 0 -203 87 0 0 29 -55 0 0 57zm70 -37c0,-16 4,-29 12,-38 8,-8 19,-13 35,-13 16,0 27,5 35,13 8,9 12,22 12,38l0 6 -30 0 0 -8c0,-7 -2,-12 -4,-15 -3,-3 -7,-5 -12,-5 -5,0 -9,2 -12,5 -3,3 -4,8 -4,15 0,7 2,13 5,18 3,6 7,11 11,15 5,5 10,10 15,15 5,4 10,9 15,15 5,6 8,12 12,19 3,7 4,16 4,25 0,17 -4,29 -12,38 -8,9 -20,13 -35,13 -16,0 -28,-4 -36,-13 -8,-9 -12,-21 -12,-38l0 -12 30 0 0 14c0,8 2,13 5,16 3,2 7,4 12,4 5,0 9,-2 12,-4 3,-3 4,-8 4,-16 0,-7 -1,-13 -4,-18 -3,-5 -7,-10 -12,-15 -4,-5 -9,-10 -15,-14 -5,-5 -10,-10 -15,-16 -4,-5 -8,-12 -11,-19 -3,-7 -5,-15 -5,-25zm112 -49l51 0c16,0 28,5 35,13 8,9 12,21 12,37l0 103c0,16 -4,29 -12,37 -7,9 -19,13 -35,13l-51 0 0 -203zm32 29l0 145 18 0c5,0 9,-2 12,-4 3,-3 4,-8 4,-16l0 -105c0,-7 -1,-12 -4,-15 -3,-3 -7,-5 -12,-5l-18 0zm116 127c0,8 1,13 4,16 3,3 7,4 12,4 5,0 9,-1 12,-4 3,-3 4,-8 4,-16l0 -109c0,-7 -1,-12 -4,-15 -3,-3 -7,-5 -12,-5 -5,0 -9,2 -12,5 -3,3 -4,8 -4,15l0 109zm-32 -107c0,-16 4,-29 12,-38 8,-8 20,-13 36,-13 16,0 28,5 36,13 8,9 12,22 12,38l0 105c0,17 -4,29 -12,38 -8,9 -20,13 -36,13 -16,0 -28,-4 -36,-13 -8,-9 -12,-21 -12,-38l0 -105zm145 7l0 147 -29 0 0 -203 40 0 33 122 0 -122 28 0 0 203 -32 0 -40 -147zm207 88l22 -144 44 0 0 203 -30 0 0 -145 -22 145 -30 0 -24 -143 0 143 -27 0 0 -203 44 0 23 144zm121 -58l44 0 0 29 -44 0 0 59 55 0 0 29 -87 0 0 -203 87 0 0 29 -55 0 0 57zm142 58l22 -144 44 0 0 203 -30 0 0 -145 -22 145 -30 0 -24 -143 0 143 -28 0 0 -203 45 0 23 144zm118 12c0,8 2,13 5,16 3,3 7,4 12,4 5,0 9,-1 12,-4 3,-3 4,-8 4,-16l0 -109c0,-7 -1,-12 -4,-15 -3,-3 -7,-5 -12,-5 -5,0 -9,2 -12,5 -3,3 -5,8 -5,15l0 109zm-31 -107c0,-16 4,-29 12,-38 8,-8 20,-13 36,-13 15,0 27,5 36,13 8,9 12,22 12,38l0 105c0,17 -4,29 -12,38 -9,9 -21,13 -36,13 -16,0 -28,-4 -36,-13 -8,-9 -12,-21 -12,-38l0 -105zm183 154c0,-2 -1,-3 -1,-4 0,-1 -1,-3 -1,-4 0,-2 -1,-4 -1,-7 0,-3 0,-6 0,-10l0 -32c0,-9 -1,-16 -5,-20 -3,-4 -8,-6 -16,-6l-11 0 0 83 -31 0 0 -203 48 0c16,0 28,4 36,12 7,8 11,19 11,35l0 16c0,21 -7,34 -21,41 8,3 14,9 17,16 3,7 4,16 4,27l0 31c0,5 0,10 1,13 0,4 1,8 2,12l-32 0zm-35 -174l0 63 13 0c6,0 10,-2 14,-5 3,-3 5,-9 5,-17l0 -20c0,-7 -1,-12 -4,-16 -3,-3 -7,-5 -12,-5l-16 0zm85 -29l32 0 0 203 -32 0 0 -203zm158 203l-32 0 -6 -37 -39 0 -5 37 -30 0 33 -203 46 0 33 203zm-73 -64l31 0 -16 -103 -15 103zm87 -139l32 0 0 174 53 0 0 29 -85 0 0 -203zm175 203l-32 0 0 -203 32 0 0 87 36 0 0 -87 32 0 0 203 -32 0 0 -87 -36 0 0 87zm195 0l-33 0 -5 -37 -39 0 -6 37 -29 0 33 -203 46 0 33 203zm-73 -64l31 0 -16 -103 -15 103zm87 -139l32 0 0 174 52 0 0 29 -84 0 0 -203zm98 0l32 0 0 174 52 0 0 29 -84 0 0 -203zm143 138c0,-10 2,-19 5,-26 4,-7 9,-13 17,-16 -14,-6 -22,-20 -22,-42l0 -4c0,-16 4,-28 12,-37 8,-8 20,-13 36,-13l36 0 0 29 -36 0c-5,0 -9,2 -12,5 -2,3 -4,8 -4,15l0 12c0,9 2,14 5,17 4,3 8,5 14,5l14 0 0 -23 32 0 0 23 8 0 0 29 -8 0 0 66c0,5 0,10 0,13 1,4 2,8 3,12l-32 0c-1,-2 -1,-4 -2,-6 0,-2 -1,-6 -1,-10 -5,12 -15,18 -29,18 -12,0 -21,-4 -27,-12 -6,-8 -9,-19 -9,-34l0 -21zm32 18c0,8 2,13 5,16 3,3 7,4 12,4 4,0 8,-1 11,-4 3,-3 5,-7 5,-13l0 -47 -12 0c-7,0 -13,2 -16,6 -3,3 -5,10 -5,19l0 19zm199 47c0,-2 -1,-3 -1,-4 -1,-1 -1,-3 -1,-4 0,-2 -1,-4 -1,-7 0,-3 0,-6 0,-10l0 -32c0,-9 -2,-16 -5,-20 -3,-4 -8,-6 -16,-6l-11 0 0 83 -31 0 0 -203 48 0c16,0 28,4 36,12 7,8 11,19 11,35l0 16c0,21 -7,34 -21,41 8,3 13,9 16,16 3,7 5,16 5,27l0 31c0,5 0,10 1,13 0,4 1,8 2,12l-32 0zm-35 -174l0 63 13 0c6,0 10,-2 14,-5 3,-3 5,-9 5,-17l0 -20c0,-7 -1,-12 -4,-16 -3,-3 -7,-5 -12,-5l-16 0zm117 57l43 0 0 29 -43 0 0 59 54 0 0 29 -86 0 0 -203 86 0 0 29 -54 0 0 57zm166 41l0 27c0,17 -4,29 -12,38 -8,9 -19,13 -35,13 -16,0 -27,-4 -35,-13 -8,-9 -12,-21 -12,-38l0 -105c0,-16 4,-29 12,-38 8,-8 19,-13 35,-13 16,0 27,5 35,13 8,9 12,22 12,38l0 20 -30 0 0 -22c0,-7 -1,-12 -4,-15 -3,-3 -7,-5 -12,-5 -5,0 -9,2 -12,5 -3,3 -5,8 -5,15l0 109c0,8 2,13 5,16 3,2 7,4 12,4 5,0 9,-2 12,-4 3,-3 4,-8 4,-16l0 -29 30 0zm86 76c0,-2 -1,-3 -1,-4 0,-1 -1,-3 -1,-4 0,-2 0,-4 -1,-7 0,-3 0,-6 0,-10l0 -32c0,-9 -1,-16 -5,-20 -3,-4 -8,-6 -16,-6l-11 0 0 83 -31 0 0 -203 48 0c16,0 28,4 36,12 7,8 11,19 11,35l0 16c0,21 -7,34 -21,41 8,3 14,9 17,16 3,7 4,16 4,27l0 31c0,5 0,10 1,13 0,4 1,8 3,12l-33 0zm-35 -174l0 63 13 0c6,0 11,-2 14,-5 3,-3 5,-9 5,-17l0 -20c0,-7 -1,-12 -4,-16 -3,-3 -7,-5 -12,-5l-16 0zm117 57l43 0 0 29 -43 0 0 59 55 0 0 29 -87 0 0 -203 87 0 0 29 -55 0 0 57zm177 117l-32 0 -5 -37 -39 0 -6 37 -29 0 32 -203 47 0 32 203zm-72 -64l30 0 -15 -103 -15 103zm78 -139l98 0 0 29 -33 0 0 174 -32 0 0 -174 -33 0 0 -29zm112 0l32 0 0 203 -32 0 0 -203zm84 156c0,8 1,13 4,16 3,3 7,4 12,4 5,0 9,-1 12,-4 3,-3 5,-8 5,-16l0 -109c0,-7 -2,-12 -5,-15 -3,-3 -7,-5 -12,-5 -5,0 -9,2 -12,5 -3,3 -4,8 -4,15l0 109zm-32 -107c0,-16 4,-29 13,-38 8,-8 20,-13 35,-13 16,0 28,5 36,13 9,9 13,22 13,38l0 105c0,17 -4,29 -13,38 -8,9 -20,13 -36,13 -15,0 -27,-4 -35,-13 -9,-9 -13,-21 -13,-38l0 -105zm146 7l0 147 -29 0 0 -203 40 0 32 122 0 -122 29 0 0 203 -33 0 -39 -147zm187 34l45 0 0 64c0,17 -4,29 -12,38 -8,9 -20,13 -36,13 -15,0 -27,-4 -35,-13 -8,-9 -12,-21 -12,-38l0 -105c0,-16 4,-29 12,-38 8,-8 20,-13 35,-13 16,0 28,5 36,13 8,9 12,22 12,38l0 20 -30 0 0 -22c0,-7 -2,-12 -5,-15 -3,-3 -7,-5 -12,-5 -5,0 -9,2 -12,5 -3,3 -4,8 -4,15l0 109c0,8 1,13 4,16 3,2 7,4 12,4 5,0 9,-2 12,-4 3,-3 5,-8 5,-16l0 -37 -15 0 0 -29zm132 113c-1,-2 -1,-3 -1,-4 -1,-1 -1,-3 -1,-4 -1,-2 -1,-4 -1,-7 0,-3 0,-6 0,-10l0 -32c0,-9 -2,-16 -5,-20 -3,-4 -9,-6 -16,-6l-11 0 0 83 -32 0 0 -203 48 0c17,0 29,4 36,12 8,8 11,19 11,35l0 16c0,21 -7,34 -21,41 9,3 14,9 17,16 3,7 5,16 5,27l0 31c0,5 0,10 0,13 1,4 2,8 3,12l-32 0zm-35 -174l0 63 12 0c6,0 11,-2 14,-5 4,-3 5,-9 5,-17l0 -20c0,-7 -1,-12 -3,-16 -3,-3 -7,-5 -13,-5l-15 0zm114 127c0,8 1,13 4,16 3,3 7,4 12,4 5,0 9,-1 12,-4 3,-3 5,-8 5,-16l0 -109c0,-7 -2,-12 -5,-15 -3,-3 -7,-5 -12,-5 -5,0 -9,2 -12,5 -3,3 -4,8 -4,15l0 109zm-32 -107c0,-16 4,-29 12,-38 9,-8 20,-13 36,-13 16,0 28,5 36,13 8,9 12,22 12,38l0 105c0,17 -4,29 -12,38 -8,9 -20,13 -36,13 -16,0 -27,-4 -36,-13 -8,-9 -12,-21 -12,-38l0 -105zm147 -49l0 157c0,7 2,12 5,15 3,3 7,4 12,4 5,0 9,-1 12,-4 3,-3 4,-8 4,-15l0 -157 30 0 0 155c0,16 -4,29 -12,37 -8,9 -20,13 -35,13 -16,0 -28,-4 -36,-13 -8,-8 -12,-21 -12,-37l0 -155 32 0zm113 56l0 147 -28 0 0 -203 40 0 32 122 0 -122 29 0 0 203 -33 0 -40 -147zm95 -56l51 0c16,0 28,5 35,13 8,9 12,21 12,37l0 103c0,16 -4,29 -12,37 -7,9 -19,13 -35,13l-51 0 0 -203zm32 29l0 145 18 0c5,0 9,-2 12,-4 3,-3 4,-8 4,-16l0 -105c0,-7 -1,-12 -4,-15 -3,-3 -7,-5 -12,-5l-18 0z"/>
  </g>
  <g id="_1640730017200">
   <polygon class="fil1" points="881,2865 540,2865 124,1865 442,1865 699,2529 704,2529 931,1865 1267,1865 1491,2529 1753,1865 2071,1865 1655,2865 1315,2865 1099,2165 "/>
   <polygon class="fil1" points="3011,2865 2801,2865 2432,2137 2428,2137 2428,2865 2138,2865 2138,1865 2626,1865 2902,2448 2906,2453 3183,1865 3669,1865 3669,2865 3380,2865 3380,2137 3375,2137 "/>
   <polygon class="fil1" points="4092,2493 4092,2865 3780,2865 3780,1865 4092,1865 4092,2225 4758,2225 4758,1865 5070,1865 5070,2865 4758,2865 4758,2493 "/>
  </g>
  <g id="_1640730019536">
   <path class="fil1" d="M4692 2365c0,148 -120,267 -267,267 -147,0 -267,-119 -267,-267 0,-147 120,-266 267,-266 147,0 267,119 267,266z"/>
  </g>
  <path class="fil1" d="M3170 2366c0,147 -119,267 -266,267 -148,0 -267,-120 -267,-267 0,-147 119,-266 267,-266 147,0 266,119 266,266z"/>
  <path class="fil1" d="M1364 2365c0,148 -119,267 -266,267 -148,0 -267,-119 -267,-267 0,-147 119,-266 267,-266 147,0 266,119 266,266z"/>
  <g id="_1640730020560">
   <g>
    <path class="fil2" d="M1330 2365c0,127 -103,230 -230,230 -127,0 -229,-103 -229,-230 0,-126 102,-229 229,-229 127,0 230,103 230,229z"/>
   </g>
   <g>
    <path class="fil3" d="M1220 2172c33,40 53,91 53,147 0,127 -103,230 -229,230 -44,0 -85,-12 -120,-34 42,51 106,83 176,83 127,0 230,-103 230,-230 0,-83 -44,-156 -110,-196z"/>
   </g>
   <g>
    <g>
     <path class="fil4" d="M1090 2585l-1 -3c0,0 10,-1 21,-11 11,-9 25,-27 33,-64 17,-78 -4,-140 -4,-141l3 -1c0,1 20,64 4,143 -8,37 -23,56 -34,66 -12,10 -22,11 -22,11z"/>
    </g>
   </g>
   <g>
    <g>
     <path class="fil4" d="M1314 2412c-28,-70 -75,-103 -110,-118 -38,-17 -69,-16 -70,-16l0 -3c0,0 33,-1 71,16 22,10 43,23 60,41 22,21 39,48 52,79l-3 1z"/>
    </g>
   </g>
   <g>
    <g>
     <path class="fil4" d="M1139 2270l-2 -2c9,-13 25,-39 41,-65 9,-16 19,-31 26,-43l2 2c-7,11 -16,26 -26,43 -15,25 -31,51 -41,65z"/>
    </g>
   </g>
   <g>
    <g>
     <path class="fil4" d="M1125 2273c-1,-1 -15,-27 -44,-49 -27,-20 -72,-41 -135,-27l-1 -3c29,-6 56,-6 81,0 20,6 39,15 57,28 29,23 44,49 44,49l-2 2z"/>
    </g>
   </g>
   <g>
    <g>
     <path class="fil4" d="M907 2488l-2 -1c31,-163 153,-174 204,-179 6,-1 11,-1 15,-2l0 3c-4,0 -9,1 -14,1 -51,5 -171,17 -203,178z"/>
    </g>
   </g>
   <g>
    <polygon class="fil5" points="1179,2205 1072,2216 1050,2321 1143,2374 1222,2303 "/>
   </g>
   <g>
    <path class="fil5" d="M917 2228l61 -37 0 -20c-22,14 -45,36 -61,57z"/>
   </g>
   <g>
    <path class="fil5" d="M1163 2145l34 29 45 11c0,0 -18,-15 -30,-22 -20,-12 -49,-18 -49,-18z"/>
   </g>
   <g>
    <g>
     <path class="fil4" d="M1076 2562c-65,0 -125,-59 -136,-74l2 -1c11,14 70,72 134,72l0 3z"/>
    </g>
   </g>
   <g>
    <g>
     <path class="fil4" d="M1220 2542l-2 -3c27,-17 47,-41 61,-70l2 1c-13,30 -34,54 -61,72z"/>
    </g>
   </g>
   <g>
    <g>
     <path class="fil4" d="M1317 2363l-3 -1c6,-23 1,-59 -15,-98 -13,-32 -36,-59 -42,-66 9,8 31,32 45,65 16,39 21,76 15,100z"/>
    </g>
   </g>
   <g>
    <g>
     <path class="fil4" d="M887 2381c-10,-46 -1,-116 28,-150 -13,15 -22,41 -26,70 -5,27 -4,56 1,80l-3 0z"/>
    </g>
   </g>
   <g>
    <path class="fil5" d="M918 2508l43 -2 -11 -125 -65 -18 -14 18c0,43 21,101 47,127z"/>
   </g>
   <g>
    <path class="fil5" d="M1045 2555l26 38c9,1 19,2 29,2 42,0 81,-11 115,-31l14 -30 -83 -46 -101 67z"/>
   </g>
   <g>
    <path class="fil5" d="M1270 2488l24 0c23,-36 36,-78 36,-123 0,0 0,-11 0,-12l-12 -10 -35 9 -13 136z"/>
   </g>
   <g>
    <path class="fil6" d="M973 2218c-21,21 -34,51 -33,81 1,16 6,33 17,44 12,12 30,16 44,8 9,-4 15,-13 19,-21 10,-17 17,-35 30,-49 19,-21 48,-31 66,-53 8,-9 13,-22 9,-33 -9,-22 -54,-25 -74,-22 -28,4 -59,24 -78,45z"/>
   </g>
  </g>
  <g id="_1640730031536">
   <g>
    <path class="fil7" d="M3118 2361c0,118 -96,215 -214,215 -119,0 -215,-97 -215,-215 0,-119 96,-215 215,-215 118,0 214,96 214,215z"/>
   </g>
   <g>
    <path class="fil8" d="M2777 2209c-22,20 -37,48 -38,78 0,15 3,32 14,44 10,12 28,18 43,11 8,-4 14,-12 20,-20 10,-16 19,-33 32,-46 20,-19 50,-27 69,-47 8,-9 14,-20 10,-31 -7,-23 -51,-29 -71,-28 -28,2 -59,20 -79,39z"/>
   </g>
   <g>
    <g>
     <path class="fil9" d="M2864 2494c-10,0 -20,-1 -31,-3 -25,-4 -48,-13 -67,-27 -22,-14 -36,-34 -43,-55 -17,-57 18,-117 47,-165 17,-28 36,-61 26,-69 0,0 19,-11 20,-10 5,4 7,22 1,38 -6,15 -16,32 -28,52 -26,45 -59,100 -45,147 10,33 47,59 93,67 42,7 80,-3 97,-25 25,-33 24,-73 24,-115 0,-25 0,-50 5,-74 7,-30 27,-50 60,-56 6,-2 18,-1 23,0 7,2 19,20 19,20 0,0 -20,-2 -38,2 -24,5 -37,17 -42,39 -5,21 -4,44 -4,69 0,44 0,89 -29,128 -11,16 -29,27 -52,32 -11,3 -24,5 -36,5z"/>
    </g>
   </g>
   <g>
    <path class="fil10" d="M3015 2177c32,38 50,86 50,138 0,119 -96,215 -214,215 -41,0 -79,-11 -112,-31 40,47 99,77 165,77 118,0 214,-97 214,-215 0,-78 -41,-146 -103,-184z"/>
   </g>
   <g>
    <path class="fil11" d="M3043 2219c12,0 22,1 22,1 -6,-7 -13,-14 -21,-21 -3,0 -9,-1 -13,-1 4,7 8,14 12,21z"/>
   </g>
  </g>
  <g id="_1640729964944">
   <path class="fil12" d="M4646 2366c0,122 -98,220 -220,220 -122,0 -220,-98 -220,-220 0,-122 98,-220 220,-220 122,0 220,98 220,220z"/>
  </g>
  <g id="_1640729966672">
   <g>
    <g>
     <path class="fil13" d="M4357 2166c-1,0 -2,-1 -3,-1 -2,-2 -1,-5 1,-6 1,0 12,-4 13,-4 2,1 0,3 -2,5 -2,1 -4,3 -6,5 -1,1 -2,1 -3,1z"/>
    </g>
   </g>
   <g>
    <g>
     <path class="fil13" d="M4373 2579c-5,-2 -9,-4 -13,-7 -2,-1 -2,-4 -1,-6 2,-2 4,-2 6,-1 5,4 10,7 15,9 2,1 3,4 2,6 -1,0 -1,1 -2,1 0,1 -6,-1 -7,-2zm-25 -18l0 0c-1,0 -2,0 -2,-1 -5,-4 -9,-8 -14,-13 -1,-2 -1,-4 1,-6 1,-1 4,-1 5,1 4,4 9,8 13,12 2,2 2,4 0,6 -1,1 -2,1 -3,1zm-24 -27l0 0c-1,0 -2,-1 -3,-2 -4,-5 -7,-10 -10,-15 -2,-2 -1,-5 1,-6 2,-1 4,0 5,2 4,5 7,10 10,15 1,1 1,4 -1,5 0,1 -1,1 -2,1zm-19 -31l0 0c-1,0 -2,-1 -3,-3 -3,-5 -5,-11 -8,-17 0,-2 1,-4 3,-5 2,-1 4,0 5,2 2,6 4,12 7,17 1,2 0,4 -2,5 0,0 -1,1 -2,1zm-13 -34l0 0c-2,0 -3,-1 -4,-3 -2,-6 -3,-12 -5,-18 -1,-2 1,-4 3,-5 2,0 4,1 5,3 1,6 3,12 5,17 0,2 -1,5 -3,5 0,1 -1,1 -1,1zm-9 -36l0 0c-2,0 -4,-1 -4,-3 -2,-6 -3,-12 -4,-18 0,-2 1,-4 4,-5 2,0 4,2 4,4 1,6 2,12 3,18 1,2 0,4 -3,4 0,0 0,0 0,0zm-6 -36l0 0c-2,0 -4,-1 -4,-3 -1,-6 -2,-12 -2,-19 0,-2 1,-4 3,-4 3,0 5,2 5,4 0,6 1,12 2,18 0,2 -2,4 -4,4 0,0 0,0 0,0zm-4 -36l0 0c-2,0 -3,-2 -3,-4 -1,-4 -1,-8 -1,-11 0,-3 0,-5 0,-7 0,-3 2,-4 4,-4 3,0 4,2 4,4 0,2 0,4 0,7 0,3 0,7 0,11 1,2 -1,4 -3,4 0,0 0,0 -1,0zm2 -37l0 0c-1,0 -1,0 -1,0 -2,0 -4,-2 -3,-4 0,-6 1,-12 2,-18 1,-3 3,-4 5,-4 2,1 3,3 3,5 -1,6 -2,12 -3,18 0,2 -1,3 -3,3zm6 -36l0 0c0,0 -1,0 -1,0 -2,0 -3,-2 -3,-5 2,-5 4,-11 6,-17 0,-2 3,-3 5,-3 2,1 3,3 2,5 -2,6 -3,12 -5,18 0,1 -2,2 -4,2zm12 -34l0 0c0,0 -1,0 -2,0 -2,-1 -2,-4 -2,-6 3,-5 6,-11 8,-16 1,-2 4,-3 6,-2 2,1 2,3 1,5 -2,6 -5,11 -7,17 -1,1 -2,2 -4,2zm17 -32l0 0c-1,0 -2,-1 -2,-1 -2,-1 -3,-4 -1,-6 3,-5 6,-10 10,-15 1,-2 4,-2 5,-1 2,1 3,4 1,6 -3,5 -7,10 -10,15 0,1 -2,2 -3,2zm21 -30l0 0c-1,0 -2,0 -2,-1 -2,-1 -2,-4 -1,-6 4,-4 8,-9 13,-13 1,-2 4,-2 5,0 2,1 2,4 0,5 -4,4 -8,9 -12,14 0,0 -2,1 -3,1z"/>
    </g>
   </g>
   <g>
    <g>
     <path class="fil13" d="M4391 2583c0,-2 3,-3 5,-2 5,1 8,1 8,2 2,0 3,1 4,2 0,1 -17,-1 -17,-2z"/>
    </g>
   </g>
  </g>
  <g id="_1640729967600">
   <g>
    <g>
     <path class="fil14" d="M4353 2165c-1,0 -2,0 -3,-1 -1,-2 -1,-5 1,-6 1,0 12,-3 13,-3 2,0 0,3 -2,4 -2,2 -4,3 -6,5 -1,1 -2,1 -3,1z"/>
    </g>
   </g>
   <g>
    <g>
     <path class="fil14" d="M4369 2579c-5,-3 -9,-5 -13,-8 -1,-1 -2,-4 -1,-5 2,-2 4,-3 6,-1 5,3 10,6 15,9 2,1 3,3 2,5 0,1 -1,1 -2,2 0,0 -6,-2 -7,-2zm-25 -18l0 0c-1,0 -2,-1 -2,-1 -5,-5 -9,-9 -14,-14 -1,-1 -1,-4 1,-5 1,-2 4,-2 5,0 4,4 9,9 13,13 2,1 2,4 0,5 -1,1 -2,2 -3,2zm-24 -28l0 0c-1,0 -2,0 -3,-1 -4,-5 -7,-11 -10,-16 -1,-2 -1,-4 1,-5 2,-2 4,-1 6,1 3,5 6,10 9,15 2,2 1,4 -1,6 0,0 -1,0 -2,0zm-18 -31l0 0c-2,0 -3,-1 -4,-2 -3,-6 -5,-12 -8,-17 0,-2 1,-5 3,-6 2,0 4,1 5,3 2,5 5,11 7,16 1,2 0,5 -2,5 0,1 -1,1 -1,1zm-14 -34l0 0c-2,0 -3,-1 -4,-3 -2,-5 -3,-11 -5,-17 -1,-3 1,-5 3,-5 2,-1 4,0 5,2 1,6 3,12 5,18 0,2 -1,4 -3,5 0,0 -1,0 -1,0zm-9 -35l0 0c-2,0 -4,-2 -4,-3 -1,-6 -3,-12 -4,-19 0,-2 1,-4 4,-4 2,-1 4,1 4,3 1,6 2,12 4,18 0,2 -1,4 -4,5 0,0 0,0 0,0zm-6 -36l0 0c-2,0 -4,-2 -4,-4 -1,-6 -2,-12 -2,-18 0,-2 1,-4 3,-4 3,-1 5,1 5,3 0,6 1,12 2,18 0,2 -2,4 -4,5 0,0 0,0 0,0zm-3 -37l0 0c-3,0 -4,-1 -4,-4 -1,-3 -1,-7 -1,-11 0,-2 0,-5 0,-7 0,-2 2,-4 5,-4 2,0 3,2 3,4 0,2 0,5 0,7 0,4 0,7 1,11 0,2 -2,4 -4,4 0,0 0,0 0,0zm1 -36l0 0c-1,0 -1,0 -1,0 -2,0 -4,-2 -3,-5 0,-6 1,-12 2,-18 1,-2 3,-4 5,-3 2,0 4,2 3,4 -1,6 -2,12 -2,18 -1,2 -2,4 -4,4zm6 -36l0 0c0,0 0,0 -1,0 -2,-1 -3,-3 -3,-5 2,-6 4,-12 6,-18 0,-2 3,-3 5,-2 2,0 3,3 2,5 -2,5 -3,11 -5,17 0,2 -2,3 -4,3zm12 -35l0 0c0,0 -1,0 -1,0 -2,-1 -3,-3 -3,-5 3,-6 6,-12 8,-17 1,-2 4,-3 6,-2 2,1 3,4 2,6 -3,5 -6,10 -8,16 -1,1 -2,2 -4,2zm17 -32l0 0c-1,0 -1,0 -2,-1 -2,-1 -3,-3 -1,-5 3,-5 6,-11 10,-16 1,-1 4,-2 5,0 2,1 3,3 1,5 -3,5 -6,10 -10,15 0,1 -2,2 -3,2zm21 -30l0 0c-1,0 -1,0 -2,-1 -2,-1 -2,-4 -1,-5 4,-5 9,-10 13,-14 1,-2 4,-2 5,0 2,2 2,4 1,6 -5,4 -9,8 -13,13 0,1 -1,1 -3,1z"/>
    </g>
   </g>
   <g>
    <g>
     <path class="fil14" d="M4388 2583c0,-2 2,-3 5,-3 5,2 7,2 8,2 1,1 2,2 3,3 0,1 -16,-1 -16,-2z"/>
    </g>
   </g>
  </g>
  <g id="_1640729969264">
   <g>
    <g>
     <path class="fil14" d="M4405 2156c-1,0 -2,0 -3,-1 -1,-1 -2,-4 0,-5 1,-1 1,-2 2,-3 1,0 11,-1 11,-1 0,1 -1,2 -1,3 -2,2 -4,4 -6,6 -1,1 -2,1 -3,1z"/>
    </g>
   </g>
   <g>
    <g>
     <path class="fil14" d="M4437 2582c-1,0 -1,0 -2,0 -5,-3 -11,-6 -16,-9 -2,-1 -3,-3 -1,-5 1,-2 3,-3 5,-2 5,3 10,6 15,8 2,1 3,4 2,6 0,1 -2,2 -3,2zm-31 -18l0 0c-1,0 -1,0 -2,-1 -5,-3 -10,-7 -14,-11 -2,-2 -2,-4 0,-6 1,-2 4,-2 5,0 5,4 9,7 14,11 1,1 2,4 0,5 0,1 -1,2 -3,2zm-26 -24l0 0c-1,0 -2,0 -3,-1 -4,-5 -8,-9 -11,-14 -2,-2 -1,-4 0,-6 2,-1 5,-1 6,1 3,5 7,9 11,13 2,2 1,5 0,6 -1,1 -2,1 -3,1zm-21 -28l0 0c-2,0 -3,-1 -4,-2 -3,-5 -6,-10 -9,-16 -1,-1 0,-4 2,-5 2,-1 4,0 5,2 3,5 6,10 9,15 1,2 1,4 -1,5 -1,1 -2,1 -2,1zm-17 -31l0 0c-2,0 -3,-1 -4,-3 -2,-5 -4,-11 -7,-16 0,-2 1,-5 3,-5 2,-1 4,0 5,2 2,5 4,11 6,16 1,2 0,4 -2,5 0,1 -1,1 -1,1zm-13 -33l0 0c-1,0 -3,-2 -3,-3 -2,-6 -4,-12 -5,-18 -1,-2 0,-4 3,-4 2,-1 4,0 4,2 2,6 3,12 5,17 1,2 0,5 -2,5 -1,0 -1,1 -2,1zm-8 -35l0 0c-2,0 -4,-1 -4,-3 -1,-6 -2,-12 -3,-18 -1,-2 1,-4 3,-4 2,-1 4,1 4,3 1,6 2,12 4,17 0,3 -1,5 -4,5 0,0 0,0 0,0zm-6 -35l0 0c-2,0 -4,-1 -4,-3 0,-6 -1,-13 -1,-18 0,-3 2,-4 4,-5 2,0 4,2 4,4 0,6 1,12 1,18 0,2 -1,4 -3,4 -1,0 -1,0 -1,0zm-1 -35l0 0c0,0 0,0 0,0 -3,0 -4,-2 -4,-4 0,-6 0,-13 1,-18 0,-3 2,-4 4,-4 3,0 4,2 4,4 -1,6 -1,12 -1,18 0,2 -2,4 -4,4zm3 -36l0 0c0,0 0,0 0,0 -2,0 -4,-2 -3,-4 1,-6 2,-12 3,-18 1,-2 3,-3 5,-3 2,1 4,3 3,5 -1,6 -3,11 -4,17 0,2 -2,3 -4,3zm9 -34l0 0c0,0 0,0 -1,0 -2,-1 -3,-3 -2,-5 2,-6 4,-11 6,-17 1,-2 3,-3 5,-2 2,1 3,3 2,5 -2,5 -4,11 -6,16 0,2 -2,3 -4,3zm14 -32l0 0c0,0 -1,-1 -1,-1 -2,-1 -3,-3 -2,-5 3,-6 6,-11 9,-16 1,-2 3,-2 5,-1 2,1 3,3 2,5 -4,5 -6,10 -9,15 -1,2 -2,3 -4,3zm19 -31l0 0c-1,0 -2,0 -2,-1 -2,-1 -3,-3 -1,-5 3,-5 6,-10 10,-15 2,-1 4,-2 6,0 2,1 2,4 0,5 -3,5 -7,10 -10,14 -1,2 -2,2 -3,2zm22 -28l0 0c-1,0 -2,0 -3,-1 -2,-1 -2,-4 0,-5 3,-5 7,-9 12,-14 1,-1 4,-1 5,0 2,2 2,4 0,6 -4,4 -8,9 -11,13 -1,1 -2,1 -3,1z"/>
    </g>
   </g>
   <g>
    <g>
     <path class="fil14" d="M4450 2585c-1,-1 -1,-2 0,-3 0,-2 3,-3 5,-2 5,1 8,2 8,2 1,0 1,0 2,1 0,1 -15,2 -15,2z"/>
    </g>
   </g>
  </g>
  <g id="_1640729972656">
   <g>
    <g>
     <path class="fil15" d="M4401 2156c-1,0 -2,0 -3,-1 -1,-2 -1,-4 0,-6 1,0 2,-1 2,-2 1,0 11,-1 11,-1 0,1 0,2 -1,2 -2,2 -4,5 -6,7 -1,1 -2,1 -3,1z"/>
    </g>
   </g>
   <g>
    <g>
     <path class="fil15" d="M4433 2582c0,0 -1,0 -2,-1 -5,-2 -10,-5 -16,-8 -2,-1 -2,-4 -1,-5 1,-2 4,-3 5,-2 5,3 11,6 16,8 2,1 3,3 2,5 -1,2 -2,3 -4,3zm-30 -18l0 0c-1,0 -2,0 -3,-1 -5,-4 -9,-7 -14,-12 -1,-1 -1,-4 0,-5 1,-2 4,-2 6,0 4,3 8,7 13,11 2,1 2,3 1,5 -1,1 -2,2 -3,2zm-27 -24l0 0c-1,0 -2,-1 -3,-1 -4,-5 -7,-9 -11,-14 -1,-2 -1,-5 1,-6 1,-1 4,-1 5,1 4,5 8,9 11,13 2,2 2,4 0,6 -1,1 -2,1 -3,1zm-21 -28l0 0c-1,0 -3,-1 -3,-2 -4,-5 -7,-10 -10,-16 -1,-2 0,-4 2,-5 2,-1 4,0 5,2 3,5 6,10 9,15 1,1 1,4 -1,5 -1,1 -1,1 -2,1zm-17 -32l0 0c-1,0 -3,0 -3,-2 -3,-5 -5,-11 -7,-16 -1,-3 0,-5 2,-6 2,0 4,1 5,3 2,5 4,11 7,16 1,2 0,4 -2,5 -1,0 -1,0 -2,0zm-12 -33l0 0c-2,0 -4,-1 -4,-2 -2,-6 -3,-12 -5,-18 -1,-2 1,-4 3,-5 2,0 4,1 5,3 1,6 3,12 4,17 1,2 0,4 -2,5 -1,0 -1,0 -1,0zm-9 -34l0 0c-2,0 -4,-1 -4,-3 -1,-6 -2,-12 -3,-18 0,-2 1,-4 3,-4 2,-1 4,1 5,3 1,6 2,12 3,17 0,2 -1,4 -3,5 -1,0 -1,0 -1,0zm-6 -35l0 0c-2,0 -3,-2 -3,-4 -1,-6 -2,-12 -2,-18 0,-2 2,-4 4,-4 2,0 4,2 4,4 0,6 1,12 1,18 1,2 -1,4 -3,4 0,0 0,0 -1,0zm-1 -36l0 0c0,0 0,0 0,0 -2,0 -4,-1 -4,-4 0,-6 1,-12 1,-18 1,-2 3,-3 5,-3 2,0 3,2 3,4 0,6 -1,12 -1,18 0,2 -2,3 -4,3zm4 -35l0 0c0,0 -1,0 -1,0 -2,0 -4,-2 -3,-4 1,-6 2,-12 4,-18 0,-2 2,-3 5,-3 2,1 3,3 2,5 -1,6 -2,11 -3,17 -1,2 -2,3 -4,3zm9 -34l0 0c-1,0 -1,0 -2,0 -2,-1 -3,-3 -2,-5 2,-6 4,-12 6,-17 1,-2 4,-3 6,-2 2,1 3,3 2,5 -2,5 -5,11 -6,16 -1,2 -3,3 -4,3zm14 -33l0 0c-1,0 -2,0 -2,0 -2,-1 -3,-4 -2,-5 3,-6 6,-11 9,-16 1,-2 4,-3 5,-2 2,2 3,4 2,6 -3,5 -6,10 -9,15 0,2 -2,2 -3,2zm18 -30l0 0c-1,0 -1,0 -2,-1 -2,-1 -2,-3 -1,-5 3,-5 7,-10 11,-15 1,-1 3,-2 5,0 2,1 2,3 1,5 -4,5 -7,10 -11,14 0,1 -2,2 -3,2zm22 -28l0 0c-1,0 -2,0 -3,-1 -1,-1 -1,-4 0,-6 4,-4 8,-8 12,-13 2,-1 4,-2 6,0 1,2 1,4 0,6 -5,4 -8,9 -12,13 -1,1 -2,1 -3,1z"/>
    </g>
   </g>
   <g>
    <g>
     <path class="fil15" d="M4446 2585c0,0 0,-1 0,-2 1,-2 3,-3 5,-3 5,2 8,2 8,2 1,0 2,1 2,1 0,1 -15,3 -15,2z"/>
    </g>
   </g>
  </g>
  <g id="_1640729974416">
   <path class="fil16" d="M4272 2229c-23,25 -39,59 -37,94 0,18 6,37 19,50 13,13 35,19 51,9 9,-5 16,-15 21,-24 11,-19 20,-40 34,-56 22,-24 56,-36 76,-61 9,-10 15,-24 10,-37 -10,-25 -62,-29 -85,-26 -32,5 -67,28 -89,51z"/>
  </g>
  <g id="_1640729973200">
   <path class="fil15" d="M4573 2435c-6,0 -13,-2 -20,-5 -23,-10 -42,-36 -51,-68 -7,-26 -9,-53 -5,-76 5,-25 17,-42 34,-47 15,-5 30,-3 43,4 20,11 37,36 44,63 12,50 8,108 -26,124 -6,3 -12,5 -19,5zm-25 -193l0 0c-5,0 -10,1 -15,3 -33,10 -39,67 -25,115 9,30 27,55 48,64 12,6 23,6 33,1 30,-15 34,-71 23,-117 -7,-26 -22,-49 -41,-59 -7,-5 -15,-7 -23,-7z"/>
  </g>
  <g id="_1640729976976">
   <path class="fil15" d="M4573 2422c-4,0 -8,-1 -12,-3 -18,-7 -35,-30 -44,-60 -6,-22 -8,-47 -6,-66 3,-23 11,-38 24,-43 11,-4 21,-4 30,1 17,8 32,31 39,56 11,43 9,95 -16,110 -5,3 -10,5 -15,5zm-36 -169l0 0c-26,11 -28,62 -16,105 8,29 24,51 41,58 9,3 17,3 24,-2 23,-14 25,-65 14,-106 -6,-25 -20,-46 -36,-54 -9,-4 -18,-5 -27,-1z"/>
  </g>
  <g id="_1640729976368">
   <g>
    <path class="fil15" d="M4540 2326l-1 -7 2 -1c1,0 2,0 2,0 0,-1 0,-1 0,-1 0,-1 0,-1 -1,-1 0,0 -1,0 -1,0l-8 2c-1,0 -1,1 -2,1 0,0 0,0 0,1 0,0 1,1 1,1 0,0 1,0 2,0l2 -1 2 7 -1 0c-2,0 -3,0 -4,0 -1,0 -1,-1 -2,-2 -1,-1 -2,-2 -2,-4 -1,-2 -1,-4 -1,-5 0,-2 0,-3 1,-3 1,-1 2,-2 4,-2l4 -1c2,-1 3,-1 3,-1 1,0 1,0 2,1 1,0 2,1 2,2 1,1 1,2 2,4 0,2 1,3 0,5 0,1 0,2 -1,3 0,0 -1,1 -3,1l-2 1z"/>
   </g>
   <g>
    <polygon class="fil15" points="4550,2333 4537,2337 4538,2341 4535,2342 4532,2331 4548,2326 "/>
   </g>
   <g>
    <path class="fil15" d="M4556 2354l-11 3c-1,0 -2,1 -3,1 0,0 -1,-1 -2,-1 0,-1 -1,-1 -1,-2 -1,-1 -2,-2 -2,-4 0,-1 -1,-3 -1,-4 0,-1 1,-2 1,-3 0,-1 1,-1 1,-2 1,0 2,0 4,-1l10 -2 2 6 -13 4c0,0 -1,0 -1,0 0,0 0,1 0,1 0,1 0,1 0,1 1,0 1,0 2,0l12 -4 2 7z"/>
   </g>
   <g>
    <path class="fil15" d="M4557 2356l2 7c0,2 1,4 1,5 0,1 0,2 -1,3 0,1 -1,1 -3,2 -1,0 -1,0 -2,0 0,-1 -1,-1 -2,-3 1,2 1,3 0,4 0,0 -1,1 -2,1l-1 1c-2,0 -2,0 -3,0 -1,-1 -1,-1 -2,-2 0,-1 -1,-2 -2,-5l-2 -8 17 -5zm-1 8l0 0 -4 1c0,0 0,0 0,1 1,0 1,1 1,1 0,0 1,0 2,0 0,-1 1,-1 1,-1 0,0 0,0 0,-1 0,0 0,0 0,-1zm-6 2l0 0 -5 1c0,1 1,2 1,2 0,0 0,0 1,0l2 -1c0,0 1,0 1,0 0,-1 0,-1 0,-2z"/>
   </g>
  </g>
  <g id="_1640729977936">
   <g>
    <path class="fil15" d="M4565 2295l-2 -8 6 -2c1,0 2,-1 3,-1 0,0 0,-1 0,-1 0,-1 -1,-1 -1,-1 -1,0 -2,0 -3,0l-15 4c-2,0 -3,1 -3,1 0,0 -1,1 0,2 0,0 0,0 1,1 0,0 1,-1 3,-1l4 -1 2 8 -1 0c-3,1 -6,2 -7,2 -2,-1 -3,-1 -5,-3 -1,-1 -2,-3 -3,-5 0,-2 0,-4 0,-6 1,-2 2,-3 3,-4 1,-1 4,-2 7,-3l9 -2c2,-1 4,-1 5,-1 1,0 2,0 4,0 1,1 2,2 3,3 1,1 2,3 2,4 1,3 1,5 0,7 0,1 -1,3 -2,4 -2,1 -4,1 -7,2l-3 1z"/>
   </g>
   <g>
    <path class="fil15" d="M4580 2294l1 6c1,4 2,7 2,8 0,1 -1,3 -2,4 -1,1 -2,2 -5,3 -3,0 -4,1 -5,0 -1,0 -2,-1 -3,-3 0,2 0,3 -1,4 0,0 -1,1 -1,1 -1,0 -2,1 -5,2l-8 2 -2 -8 10 -3c2,0 3,0 3,-1 1,0 1,-1 1,-2l-15 4 -2 -9 32 -8zm-4 10l0 0 -7 2c1,1 1,1 1,1 1,1 2,1 3,0l2 0c1,0 1,-1 1,-1 1,-1 1,-1 0,-2z"/>
   </g>
   <g>
    <polygon class="fil15" points="4587,2324 4556,2332 4554,2324 4585,2316 "/>
   </g>
   <g>
    <path class="fil15" d="M4579 2350l-2 -8 6 -2c1,0 2,0 3,-1 0,0 0,0 0,-1 0,-1 -1,-1 -1,-1 -1,0 -2,0 -3,0l-15 4c-1,1 -2,1 -3,1 0,0 0,1 0,2 0,0 0,1 1,1 0,0 1,-1 3,-1l4 -1 2 8 -1 1c-3,0 -6,1 -7,1 -2,0 -3,-1 -4,-3 -2,-1 -3,-3 -4,-5 0,-2 0,-4 0,-6 1,-2 2,-3 3,-4 1,-1 4,-2 7,-3l9 -2c2,-1 4,-1 5,-1 1,0 3,0 4,0 1,1 2,2 3,3 1,1 2,3 2,4 1,3 1,5 0,7 0,2 -1,3 -2,4 -2,1 -4,1 -7,2l-3 1z"/>
   </g>
   <g>
    <polygon class="fil15" points="4594,2349 4597,2363 4591,2365 4590,2359 4584,2361 4585,2366 4579,2367 4578,2362 4571,2364 4572,2370 4566,2372 4562,2357 "/>
   </g>
   <g>
    <polygon class="fil15" points="4602,2382 4596,2383 4595,2379 4569,2385 4567,2377 4593,2370 4591,2366 4598,2364 "/>
   </g>
  </g>
  <g id="_1640729982576">
   <path class="fil17" d="M4541 2178c32,38 51,87 51,141 0,122 -99,220 -220,220 -42,0 -82,-11 -115,-32 41,49 101,79 169,79 122,0 220,-98 220,-220 0,-80 -42,-150 -105,-188z"/>
  </g>
  <path class="fil1" d="M5530 2653l-100 0 0 -377c-36,34 -79,59 -129,76l0 -91c26,-9 54,-25 85,-49 31,-24 51,-52 63,-83l81 0 0 524zm319 -524c50,0 90,18 118,54 34,43 51,114 51,213 0,99 -17,170 -51,213 -28,36 -68,54 -118,54 -51,0 -92,-20 -123,-59 -31,-39 -47,-109 -47,-209 0,-99 18,-170 52,-213 28,-36 67,-53 118,-53zm0 83c-12,0 -23,4 -32,11 -9,8 -17,22 -22,42 -6,26 -10,70 -10,131 0,61 3,104 9,126 6,23 14,39 23,46 9,8 20,12 32,12 12,0 23,-4 32,-12 9,-8 16,-21 21,-41 7,-26 11,-70 11,-131 0,-61 -3,-104 -9,-127 -6,-23 -14,-38 -23,-46 -10,-7 -20,-11 -32,-11zm405 -83c51,0 90,18 119,54 34,43 51,114 51,213 0,99 -17,170 -51,213 -29,36 -68,54 -119,54 -50,0 -91,-20 -122,-59 -32,-39 -47,-109 -47,-209 0,-99 17,-170 51,-213 28,-36 68,-53 118,-53zm0 83c-12,0 -22,4 -31,11 -10,8 -17,22 -22,42 -7,26 -10,70 -10,131 0,61 3,104 9,126 6,23 13,39 23,46 9,8 19,12 31,12 12,0 23,-4 32,-12 10,-8 17,-21 22,-41 7,-26 10,-70 10,-131 0,-61 -3,-104 -9,-127 -6,-23 -14,-38 -23,-46 -9,-7 -20,-11 -32,-11z"/>
  <path class="fil18" d="M6358 2043l45 -46 20 -103 26 25 -15 69 67 -20 26 25 -102 25 -44 46 -23 -21zm93 111l139 -63 47 103 -24 11 -34 -75 -31 14 32 69 -24 11 -31 -70 -38 17 35 78 -23 11 -48 -106zm65 311l-1 -33 34 -14 -1 -61 -35 -12 -1 -33 154 56 1 32 -151 65zm59 -58l56 -22 -57 -19 1 41zm-76 117l142 56 -23 60c-6,15 -12,26 -17,32 -6,6 -12,9 -21,11 -8,1 -16,0 -24,-3 -11,-4 -19,-11 -23,-20 -5,-9 -5,-20 -2,-33 -6,5 -12,8 -18,11 -6,2 -16,4 -30,7l-34 6 13 -34 39 -8c14,-3 23,-6 27,-7 4,-2 7,-4 10,-7 2,-2 4,-7 7,-13l2 -6 -59 -24 11 -28zm71 61l-9 21c-5,14 -8,22 -8,26 0,4 1,8 3,11 2,3 5,5 9,7 5,2 10,2 14,1 4,-2 7,-5 9,-9 2,-2 5,-9 9,-21l9 -22 -36 -14zm-120 144l-19 23c-9,-6 -16,-9 -24,-9 -7,1 -14,4 -21,11 -7,6 -11,13 -11,20 -1,6 0,11 4,15 3,3 6,5 9,5 3,0 7,-1 13,-3 3,-1 10,-6 22,-12 15,-8 27,-13 36,-13 12,0 23,4 31,13 5,5 9,12 10,20 2,8 1,16 -3,24 -3,9 -9,17 -18,25 -14,13 -27,20 -40,21 -13,0 -24,-5 -34,-15l21 -22c7,5 13,7 18,7 6,-1 12,-4 18,-10 6,-6 10,-12 11,-18 1,-4 0,-8 -3,-10 -2,-3 -6,-4 -10,-4 -5,0 -14,4 -27,12 -14,8 -24,13 -32,15 -8,2 -15,2 -23,0 -7,-2 -14,-6 -21,-13 -6,-6 -10,-14 -12,-23 -1,-9 0,-18 4,-26 3,-9 10,-18 20,-27 14,-14 28,-21 41,-21 14,-1 27,4 40,15z"/>
  <g id="_1640729982224">
   <path class="fil1" d="M3663 3521l34 0 23 -87 0 0 23 87 35 0 43 -135 -35 0 -26 88 0 0 -22 -88 -35 0 -23 88 0 0 -25 -88 -35 0 43 135zm175 -135l0 135 35 0 0 -66c0,-19 2,-26 5,-32 4,-7 13,-13 23,-13 18,0 18,14 18,37l0 74 36 0 0 -65c0,-17 1,-23 4,-31 3,-9 13,-15 22,-15 19,0 19,18 19,34l0 77 36 0 0 -86c0,-15 0,-52 -44,-52 -22,0 -35,14 -41,21 -4,-5 -12,-21 -38,-21 -10,0 -26,2 -42,21l0 0 0 -18 -33 0zm268 -51l-35 0 0 186 35 0 0 -68c0,-15 0,-43 29,-43 22,0 22,17 22,40l0 71 36 0 0 -79c0,-16 0,-38 -14,-49 -11,-8 -24,-10 -32,-10 -7,0 -24,1 -41,20l0 -68zm124 186l35 0 0 -36 -35 0 0 36zm63 -69c0,62 49,72 70,72 44,0 70,-34 70,-71 0,-34 -23,-70 -70,-70 -48,0 -70,37 -70,69zm37 1c0,-28 16,-41 33,-41 18,0 33,14 33,41 0,30 -17,42 -33,42 -17,0 -33,-13 -33,-42zm166 68l0 -42c0,-37 1,-64 24,-64 6,0 13,4 16,6l12 -31c-7,-4 -16,-7 -24,-7 -15,0 -23,9 -30,22l-1 0 0 -19 -33 0 0 135 36 0zm59 9c-2,38 31,45 62,45 59,0 64,-30 64,-68l0 -121 -33 0 0 19 0 0c-4,-6 -16,-22 -41,-22 -22,0 -57,14 -57,70 0,38 21,68 56,68 16,0 30,-9 39,-22l1 0 0 20c0,15 0,29 -30,29 -9,0 -14,-2 -15,-3 -5,-4 -5,-9 -6,-10l-40 -5zm32 -79c0,-11 2,-41 29,-41 24,0 31,24 31,41 0,36 -22,41 -32,41 -22,0 -28,-23 -28,-41zm130 70l36 0 0 -36 -36 0 0 36zm162 0l33 0 0 -135 -36 0 0 57c0,26 -1,34 -4,39 -5,10 -15,15 -25,15 -6,0 -14,-3 -18,-9 -3,-6 -4,-10 -4,-40l0 -62 -36 0 0 85c0,16 1,25 8,35 7,12 23,18 37,18 17,0 34,-9 44,-23l1 0 0 20zm68 0l36 0 0 -43 17 -18 34 61 38 0 -49 -86 46 -49 -44 0 -42 47 0 -98 -36 0 0 186z"/>
   <polygon class="fil19" points="473,3462 3519,3462 3519,3476 473,3476 "/>
  </g>
  <g id="_1640729984720">
   <g>
    <path class="fil20 str0" d="M746 1257l0 300 0 0 0 -644 0 344zm4141 476l0 5 16 0 0 -6c238,-22 376,-48 376,-75 0,-21 -78,-41 -218,-59l0 -63 -18 0 0 29 -10 0 0 -29 -22 0 0 29 -11 0 0 -29 -22 0 0 29 -11 0 0 -29 -22 0 0 29 -10 0 0 -29 -23 0 0 29 -10 0 0 -29 -23 0 0 29 -10 0 0 -29 -16 0 0 -467 59 0 -120 -332 56 0 -521 -423 -2878 0 1 2 -69 -40 0 -44 -67 -39 -112 0 14 43 0 77 76 -89 -588 690 -41 0 0 15 62 0 0 12 -541 317 79 0 0 54 0 59 0 226c-149,19 -233,39 -233,61 0,20 78,40 218,58l0 23 16 0 0 -21c36,4 76,8 119,13l0 8 16 0 0 -7c458,43 1297,71 2255,71 943,0 1770,-27 2233,-69zm-3923 -1124l28 -514 -20 -43 106 -22 114 73 -22 26 0 237 -85 100 -121 143zm3915 970l0 -5 -8 0 0 5 8 0zm33 3l0 -8 -8 0 0 8 8 0zm33 3l0 -11 -10 0 0 10 10 1zm22 -11l0 14 11 1 0 -15 -11 0zm33 0l0 17 11 1 0 -18 -11 0zm33 0l0 21 10 1 0 -22 -10 0z"/>
    <path id="1" class="fil21" d="M746 1257l0 300 0 0 0 -644 0 344zm4141 476l0 5 16 0 0 -6c238,-22 376,-48 376,-75 0,-21 -78,-41 -218,-59l0 -63 -18 0 0 29 -10 0 0 -29 -22 0 0 29 -11 0 0 -29 -22 0 0 29 -11 0 0 -29 -22 0 0 29 -10 0 0 -29 -23 0 0 29 -10 0 0 -29 -23 0 0 29 -10 0 0 -29 -16 0 0 -467 59 0 -120 -332 56 0 -521 -423 -2878 0 1 2 -69 -40 0 -44 -67 -39 -112 0 14 43 0 77 76 -89 -588 690 -41 0 0 15 62 0 0 12 -541 317 79 0 0 54 0 59 0 226c-149,19 -233,39 -233,61 0,20 78,40 218,58l0 23 16 0 0 -21c36,4 76,8 119,13l0 8 16 0 0 -7c458,43 1297,71 2255,71 943,0 1770,-27 2233,-69zm-3923 -1124l28 -514 -20 -43 106 -22 114 73 -22 26 0 237 -85 100 -121 143zm3915 970l0 -5 -8 0 0 5 8 0zm33 3l0 -8 -8 0 0 8 8 0zm33 3l0 -11 -10 0 0 10 10 1zm22 -11l0 14 11 1 0 -15 -11 0zm33 0l0 17 11 1 0 -18 -11 0zm33 0l0 21 10 1 0 -22 -10 0z"/>
   </g>
   <path class="fil22" d="M2654 1511c1450,0 2625,65 2625,146 0,80 -1175,145 -2625,145 -1449,0 -2624,-65 -2624,-145 0,-81 1175,-146 2624,-146z"/>
   <polygon class="fil23" points="1952,1068 4853,1068 4853,1645 1952,1645 "/>
   <polygon class="fil24" points="3869,1068 4394,1068 4394,1640 3869,1640 "/>
   <polygon class="fil23" points="4853,1068 4394,1068 4394,1640 4853,1640 "/>
   <polygon class="fil25" points="4499,1068 4394,1068 4394,1369 4499,1369 "/>
   <polygon class="fil26" points="4499,1248 4394,1248 4394,1369 4499,1369 "/>
   <g id="_1640730001360">
    <polygon class="fil24" points="4373,1432 4552,1432 4762,1645 4349,1645 "/>
    <polygon class="fil27" points="4346,1321 4581,1321 4714,1454 4714,1645 4702,1645 4702,1458 4576,1332 4346,1332 "/>
    <polygon class="fil28" points="4404,1325 4409,1325 4409,1629 4404,1629 "/>
    <polygon class="fil28" points="4420,1325 4424,1325 4424,1629 4420,1629 "/>
    <polygon class="fil28" points="4435,1325 4440,1325 4440,1629 4435,1629 "/>
    <polygon class="fil28" points="4451,1325 4456,1325 4456,1629 4451,1629 "/>
    <polygon class="fil28" points="4466,1325 4471,1325 4471,1629 4466,1629 "/>
    <polygon class="fil28" points="4482,1325 4487,1325 4487,1629 4482,1629 "/>
    <polygon class="fil28" points="4497,1325 4502,1325 4502,1629 4497,1629 "/>
    <polygon class="fil28" points="4513,1325 4518,1325 4518,1629 4513,1629 "/>
    <polygon class="fil28" points="4528,1325 4533,1325 4533,1629 4528,1629 "/>
    <polygon class="fil28" points="4544,1325 4549,1325 4549,1629 4544,1629 "/>
    <polygon class="fil28" points="4559,1325 4564,1325 4564,1629 4559,1629 "/>
    <polygon class="fil28" points="4575,1325 4580,1325 4580,1629 4575,1629 "/>
    <polygon class="fil28" points="4590,1342 4595,1342 4595,1629 4590,1629 "/>
    <polygon class="fil28" points="4606,1355 4611,1355 4611,1629 4606,1629 "/>
    <polygon class="fil28" points="4622,1372 4626,1372 4626,1629 4622,1629 "/>
    <polygon class="fil28" points="4637,1388 4642,1388 4642,1629 4637,1629 "/>
    <polygon class="fil28" points="4653,1401 4657,1401 4657,1629 4653,1629 "/>
    <polygon class="fil28" points="4668,1419 4673,1419 4673,1629 4668,1629 "/>
    <polygon class="fil28" points="4684,1435 4688,1435 4688,1629 4684,1629 "/>
   </g>
   <path class="fil29" d="M2402 1567l21 0 0 29 10 0 0 -29 23 0 0 29 10 0 0 -29 23 0 0 29 10 0 0 -29 22 0 0 29 11 0 0 -29 22 0 0 29 10 0 0 -29 23 0 0 29 10 0 0 -29 23 0 0 29 10 0 0 -29 23 0 0 29 10 0 0 -29 22 0 0 29 11 0 0 -29 22 0 0 29 11 0 0 -29 22 0 0 29 10 0 0 -29 23 0 0 29 10 0 0 -29 23 0 0 29 10 0 0 -29 23 0 0 29 10 0 0 -29 22 0 0 29 11 0 0 -29 22 0 0 29 10 0 0 -29 23 0 0 29 10 0 0 -29 21 0 22 0 0 29 10 0 0 -29 23 0 0 29 10 0 0 -29 22 0 0 29 11 0 0 -29 22 0 0 29 10 0 0 -29 23 0 0 29 10 0 0 -29 23 0 0 29 10 0 0 -29 23 0 0 29 10 0 0 -29 22 0 0 29 11 0 0 -29 22 0 0 29 10 0 0 -29 23 0 0 29 10 0 0 -29 23 0 0 29 10 0 0 -29 23 0 0 29 10 0 0 -29 22 0 0 29 11 0 0 -29 22 0 0 29 11 0 0 -29 22 0 0 29 10 0 0 -29 23 0 0 29 10 0 0 -29 23 0 0 29 10 0 0 -29 21 0 21 0 0 29 11 0 0 -29 22 0 0 29 10 0 0 -29 23 0 0 29 10 0 0 -29 23 0 0 29 10 0 0 -29 23 0 0 29 10 0 0 -29 23 0 0 29 10 0 0 -29 22 0 0 29 11 0 0 -29 22 0 0 29 10 0 0 -29 23 0 0 29 10 0 0 -29 23 0 0 29 10 0 0 -29 23 0 0 29 10 0 0 -29 22 0 0 29 0 9 0 30 0 10 0 30 0 9 0 29 -22 0 0 -29 -10 0 0 29 -23 0 0 -29 -10 0 0 29 -23 0 0 -29 -10 0 0 29 -23 0 0 -29 -10 0 0 29 -22 0 0 -29 -11 0 0 29 -22 0 0 -29 -10 0 0 29 -23 0 0 -29 -10 0 0 29 -23 0 0 -29 -10 0 0 29 -23 0 0 -29 -10 0 0 29 -23 0 0 -29 -10 0 0 29 -22 0 0 -29 -11 0 0 29 -21 0 -21 0 0 -29 -10 0 0 29 -23 0 0 -29 -10 0 0 29 -23 0 0 -29 -10 0 0 29 -22 0 0 -29 -11 0 0 29 -22 0 0 -29 -11 0 0 29 -22 0 0 -29 -10 0 0 29 -23 0 0 -29 -10 0 0 29 -23 0 0 -29 -10 0 0 29 -23 0 0 -29 -10 0 0 29 -22 0 0 -29 -11 0 0 29 -22 0 0 -29 -10 0 0 29 -23 0 0 -29 -10 0 0 29 -23 0 0 -29 -10 0 0 29 -23 0 0 -29 -10 0 0 29 -22 0 0 -29 -11 0 0 29 -22 0 0 -29 -10 0 0 29 -23 0 0 -29 -10 0 0 29 -22 0 -21 0 0 -29 -10 0 0 29 -23 0 0 -29 -10 0 0 29 -22 0 0 -29 -11 0 0 29 -22 0 0 -29 -10 0 0 29 -23 0 0 -29 -10 0 0 29 -23 0 0 -29 -10 0 0 29 -23 0 0 -29 -10 0 0 29 -22 0 0 -29 -11 0 0 29 -22 0 0 -29 -11 0 0 29 -22 0 0 -29 -10 0 0 29 -23 0 0 -29 -10 0 0 29 -23 0 0 -29 -10 0 0 29 -23 0 0 -29 -10 0 0 29 -22 0 0 -29 -11 0 0 29 -22 0 0 -29 -10 0 0 29 -23 0 0 -29 -10 0 0 29 -23 0 0 -29 -10 0 0 29 -21 0 0 -29 0 -9 0 -30 0 -10 0 -30 0 -9 0 -29zm2380 -32l21 0 0 29 11 0 0 -29 22 0 0 29 10 0 0 -29 23 0 0 29 10 0 0 -29 23 0 0 29 10 0 0 -29 23 0 0 29 10 0 0 -29 22 0 0 29 11 0 0 -29 22 0 0 29 11 0 0 -29 22 0 0 29 10 0 0 -29 18 0 0 146 -18 0 0 -28 -10 0 0 28 -22 0 0 -28 -11 0 0 28 -22 0 0 -28 -11 0 0 28 -22 0 0 -28 -10 0 0 22 0 9 0 29 -21 0 0 -29 -10 0 0 29 -23 0 0 -29 -10 0 0 29 -22 0 0 -29 -11 0 0 29 -22 0 0 -29 -10 0 0 29 -23 0 0 -29 -10 0 0 29 -23 0 0 -29 -10 0 0 29 -23 0 0 -29 -10 0 0 29 -23 0 0 -29 -10 0 0 29 -22 0 0 -29 -11 0 0 29 -22 0 0 -29 -10 0 0 29 -23 0 0 -29 -10 0 0 29 -23 0 0 -29 -10 0 0 29 -23 0 0 -29 -10 0 0 29 -22 0 0 -29 -11 0 0 29 -22 0 0 -29 -10 0 0 29 -23 0 0 -29 -10 0 0 29 -23 0 0 -29 -10 0 0 29 -21 0 0 -29 0 -9 0 -30 0 -10 0 -30 0 -9 0 -29 21 0 0 29 10 0 0 -29 23 0 0 29 10 0 0 -29 23 0 0 29 10 0 0 -29 22 0 0 29 11 0 0 -29 22 0 0 29 10 0 0 -29 23 0 0 29 10 0 0 -29 23 0 0 29 10 0 0 -29 23 0 0 29 10 0 0 -29 22 0 0 29 11 0 0 -29 22 0 0 29 10 0 0 -29 23 0 0 29 10 0 0 -29 23 0 0 29 10 0 0 -29 23 0 0 29 9 0 0 -22 0 -10 0 -29zm130 140l0 -22 -8 0 0 22 8 0zm-33 0l0 -22 -8 0 0 22 8 0zm-33 0l0 -22 -8 0 0 22 8 0zm-32 0l0 -22 -8 0 0 22 8 0zm-32 0l0 -22 0 -8 -9 0 0 30 9 0zm0 -40l0 -22 0 -8 -9 0 0 30 9 0zm32 -39l0 -22 -8 0 0 22 8 0zm32 0l0 -22 -8 0 0 22 8 0zm33 0l0 -22 -8 0 0 22 8 0zm33 0l0 -22 -8 0 0 22 8 0zm23 7l10 0 0 -29 -10 0 0 22 0 7zm32 -29l0 29 11 0 0 -29 -11 0zm33 0l0 29 11 0 0 -29 -11 0zm33 0l0 29 10 0 0 -29 -10 0zm10 69l0 -30 -10 0 0 30 10 0zm-32 0l0 -30 -11 0 0 30 11 0zm-33 0l0 -30 -11 0 0 30 11 0zm-33 0l0 -30 -10 0 0 22 0 8 10 0zm-33 -8l0 -22 -8 0 0 22 8 0zm-33 0l0 -22 -8 0 0 22 8 0zm-33 0l0 -22 -8 0 0 22 8 0zm-32 0l0 -22 -8 0 0 22 8 0zm-435 -30l0 30 10 0 0 -30 -10 0zm33 0l0 30 10 0 0 -30 -10 0zm33 0l0 30 10 0 0 -30 -10 0zm32 0l0 30 11 0 0 -30 -11 0zm33 0l0 30 10 0 0 -30 -10 0zm33 0l0 30 10 0 0 -30 -10 0zm33 0l0 30 10 0 0 -30 -10 0zm33 0l0 30 10 0 0 -30 -10 0zm32 0l0 30 11 0 0 -30 -11 0zm33 0l0 30 10 0 0 -30 -10 0zm33 0l0 30 10 0 0 -30 -10 0zm33 0l0 30 10 0 0 -30 -10 0zm10 70l0 -30 -10 0 0 30 10 0zm-33 0l0 -30 -10 0 0 30 10 0zm-33 0l0 -30 -10 0 0 30 10 0zm-32 0l0 -30 -11 0 0 30 11 0zm-33 0l0 -30 -10 0 0 30 10 0zm-33 0l0 -30 -10 0 0 30 10 0zm-33 0l0 -30 -10 0 0 30 10 0zm-33 0l0 -30 -10 0 0 30 10 0zm-32 0l0 -30 -11 0 0 30 11 0zm-33 0l0 -30 -10 0 0 30 10 0zm-33 0l0 -30 -10 0 0 30 10 0zm-33 0l0 -30 -10 0 0 30 10 0zm-811 -70l0 30 11 0 0 -30 -11 0zm33 0l0 30 10 0 0 -30 -10 0zm33 0l0 30 10 0 0 -30 -10 0zm33 0l0 30 10 0 0 -30 -10 0zm33 0l0 30 10 0 0 -30 -10 0zm33 0l0 30 10 0 0 -30 -10 0zm32 0l0 30 11 0 0 -30 -11 0zm33 0l0 30 10 0 0 -30 -10 0zm33 0l0 30 10 0 0 -30 -10 0zm33 0l0 30 10 0 0 -30 -10 0zm33 0l0 30 10 0 0 -30 -10 0zm10 70l0 -30 -10 0 0 30 10 0zm-33 0l0 -30 -10 0 0 30 10 0zm-33 0l0 -30 -10 0 0 30 10 0zm-33 0l0 -30 -10 0 0 30 10 0zm-32 0l0 -30 -11 0 0 30 11 0zm-33 0l0 -30 -10 0 0 30 10 0zm-33 0l0 -30 -10 0 0 30 10 0zm-33 0l0 -30 -10 0 0 30 10 0zm-33 0l0 -30 -10 0 0 30 10 0zm-33 0l0 -30 -10 0 0 30 10 0zm-32 0l0 -30 -11 0 0 30 11 0zm-588 -70l0 30 10 0 0 -30 -10 0zm33 0l0 30 10 0 0 -30 -10 0zm32 0l0 30 11 0 0 -30 -11 0zm33 0l0 30 10 0 0 -30 -10 0zm33 0l0 30 10 0 0 -30 -10 0zm33 0l0 30 10 0 0 -30 -10 0zm33 0l0 30 10 0 0 -30 -10 0zm32 0l0 30 11 0 0 -30 -11 0zm33 0l0 30 10 0 0 -30 -10 0zm33 0l0 30 10 0 0 -30 -10 0zm33 0l0 30 10 0 0 -30 -10 0zm33 0l0 30 10 0 0 -30 -10 0zm32 0l0 30 11 0 0 -30 -11 0zm33 0l0 30 11 0 0 -30 -11 0zm33 0l0 30 10 0 0 -30 -10 0zm33 0l0 30 10 0 0 -30 -10 0zm33 0l0 30 10 0 0 -30 -10 0zm10 70l0 -30 -10 0 0 30 10 0zm-33 0l0 -30 -10 0 0 30 10 0zm-33 0l0 -30 -10 0 0 30 10 0zm-32 0l0 -30 -11 0 0 30 11 0zm-33 0l0 -30 -11 0 0 30 11 0zm-33 0l0 -30 -10 0 0 30 10 0zm-33 0l0 -30 -10 0 0 30 10 0zm-33 0l0 -30 -10 0 0 30 10 0zm-33 0l0 -30 -10 0 0 30 10 0zm-32 0l0 -30 -11 0 0 30 11 0zm-33 0l0 -30 -10 0 0 30 10 0zm-33 0l0 -30 -10 0 0 30 10 0zm-33 0l0 -30 -10 0 0 30 10 0zm-33 0l0 -30 -10 0 0 30 10 0zm-32 0l0 -30 -11 0 0 30 11 0zm-33 0l0 -30 -10 0 0 30 10 0zm-33 0l0 -30 -10 0 0 30 10 0zm-588 -70l0 30 10 0 0 -30 -10 0zm33 0l0 30 10 0 0 -30 -10 0zm33 0l0 30 10 0 0 -30 -10 0zm32 0l0 30 11 0 0 -30 -11 0zm33 0l0 30 10 0 0 -30 -10 0zm33 0l0 30 10 0 0 -30 -10 0zm33 0l0 30 10 0 0 -30 -10 0zm33 0l0 30 10 0 0 -30 -10 0zm32 0l0 30 11 0 0 -30 -11 0zm33 0l0 30 11 0 0 -30 -11 0zm33 0l0 30 10 0 0 -30 -10 0zm33 0l0 30 10 0 0 -30 -10 0zm33 0l0 30 10 0 0 -30 -10 0zm33 0l0 30 10 0 0 -30 -10 0zm32 0l0 30 11 0 0 -30 -11 0zm33 0l0 30 10 0 0 -30 -10 0zm33 0l0 30 10 0 0 -30 -10 0zm10 70l0 -30 -10 0 0 30 10 0zm-33 0l0 -30 -10 0 0 30 10 0zm-32 0l0 -30 -11 0 0 30 11 0zm-33 0l0 -30 -10 0 0 30 10 0zm-33 0l0 -30 -10 0 0 30 10 0zm-33 0l0 -30 -10 0 0 30 10 0zm-33 0l0 -30 -10 0 0 30 10 0zm-32 0l0 -30 -11 0 0 30 11 0zm-33 0l0 -30 -11 0 0 30 11 0zm-33 0l0 -30 -10 0 0 30 10 0zm-33 0l0 -30 -10 0 0 30 10 0zm-33 0l0 -30 -10 0 0 30 10 0zm-33 0l0 -30 -10 0 0 30 10 0zm-32 0l0 -30 -11 0 0 30 11 0zm-33 0l0 -30 -10 0 0 30 10 0zm-33 0l0 -30 -10 0 0 30 10 0zm-33 0l0 -30 -10 0 0 30 10 0z"/>
   <polygon class="fil23" points="263,1228 746,1228 746,1649 263,1649 "/>
   <polygon class="fil30" points="746,913 704,913 1292,223 1860,936 1860,1649 746,1649 "/>
   <polygon class="fil31" points="746,913 746,1257 184,1257 725,940 725,928 663,928 663,913 "/>
   <polygon class="fil20" points="1540,823 1820,823 1820,1024 1540,1024 "/>
   <g id="_1640729996304">
    <polygon class="fil25" points="2090,1068 2421,1068 2421,1305 2090,1305 "/>
    <path class="fil32" d="M2216 1086l31 0 0 58 -31 0 0 -58zm-100 0l30 0 0 58 -30 0 0 -58zm201 0l30 0 0 58 -30 0 0 -58zm47 0l31 0 0 58 -31 0 0 -58zm31 73l0 51 -31 0 0 -51 31 0zm0 66l0 58 -31 0 0 -58 31 0zm-48 58l-30 0 0 -58 30 0 0 58zm-30 -73l0 -51 30 0 0 51 -30 0zm-154 -124l31 0 0 58 -31 0 0 -58zm31 73l0 51 -31 0 0 -51 31 0zm0 66l0 58 -31 0 0 -58 31 0zm-48 58l-30 0 0 -58 30 0 0 58zm-30 -73l0 -51 30 0 0 51 -30 0zm148 -124l30 0 0 58 -30 0 0 -58zm30 73l0 51 -30 0 0 -51 30 0zm0 66l0 58 -30 0 0 -58 30 0zm-47 58l-31 0 0 -58 31 0 0 58zm-31 -73l0 -51 31 0 0 51 -31 0z"/>
   </g>
   <g id="_1640729994000">
    <polygon class="fil25" points="2986,1068 3317,1068 3317,1305 2986,1305 "/>
    <path class="fil32" d="M3113 1086l30 0 0 58 -30 0 0 -58zm-101 0l31 0 0 58 -31 0 0 -58zm201 0l31 0 0 58 -31 0 0 -58zm48 0l30 0 0 58 -30 0 0 -58zm30 73l0 51 -30 0 0 -51 30 0zm0 66l0 58 -30 0 0 -58 30 0zm-47 58l-31 0 0 -58 31 0 0 58zm-31 -73l0 -51 31 0 0 51 -31 0zm-154 -124l31 0 0 58 -31 0 0 -58zm31 73l0 51 -31 0 0 -51 31 0zm0 66l0 58 -31 0 0 -58 31 0zm-47 58l-31 0 0 -58 31 0 0 58zm-31 -73l0 -51 31 0 0 51 -31 0zm148 -124l30 0 0 58 -30 0 0 -58zm30 73l0 51 -30 0 0 -51 30 0zm0 66l0 58 -30 0 0 -58 30 0zm-47 58l-30 0 0 -58 30 0 0 58zm-30 -73l0 -51 30 0 0 51 -30 0z"/>
   </g>
   <g id="_1640729995504">
    <polygon class="fil25" points="2563,1068 2894,1068 2894,1305 2563,1305 "/>
    <path class="fil32" d="M2690 1086l30 0 0 58 -30 0 0 -58zm-101 0l31 0 0 58 -31 0 0 -58zm201 0l31 0 0 58 -31 0 0 -58zm48 0l30 0 0 58 -30 0 0 -58zm30 73l0 51 -30 0 0 -51 30 0zm0 66l0 58 -30 0 0 -58 30 0zm-47 58l-31 0 0 -58 31 0 0 58zm-31 -73l0 -51 31 0 0 51 -31 0zm-154 -124l31 0 0 58 -31 0 0 -58zm31 73l0 51 -31 0 0 -51 31 0zm0 66l0 58 -31 0 0 -58 31 0zm-47 58l-31 0 0 -58 31 0 0 58zm-31 -73l0 -51 31 0 0 51 -31 0zm148 -124l31 0 0 58 -31 0 0 -58zm31 73l0 51 -31 0 0 -51 31 0zm0 66l0 58 -31 0 0 -58 31 0zm-48 58l-30 0 0 -58 30 0 0 58zm-30 -73l0 -51 30 0 0 51 -30 0z"/>
   </g>
   <g id="_1640729991600">
    <polygon class="fil25" points="3460,1068 3790,1068 3790,1305 3460,1305 "/>
    <path class="fil32" d="M3586 1086l31 0 0 58 -31 0 0 -58zm-100 0l30 0 0 58 -30 0 0 -58zm201 0l30 0 0 58 -30 0 0 -58zm47 0l30 0 0 58 -30 0 0 -58zm30 73l0 51 -30 0 0 -51 30 0zm0 66l0 58 -30 0 0 -58 30 0zm-47 58l-30 0 0 -58 30 0 0 58zm-30 -73l0 -51 30 0 0 51 -30 0zm-154 -124l30 0 0 58 -30 0 0 -58zm30 73l0 51 -30 0 0 -51 30 0zm0 66l0 58 -30 0 0 -58 30 0zm-47 58l-30 0 0 -58 30 0 0 58zm-30 -73l0 -51 30 0 0 51 -30 0zm147 -124l31 0 0 58 -31 0 0 -58zm31 73l0 51 -31 0 0 -51 31 0zm0 66l0 58 -31 0 0 -58 31 0zm-47 58l-31 0 0 -58 31 0 0 58zm-31 -73l0 -51 31 0 0 51 -31 0z"/>
   </g>
   <g id="_1640729992592">
    <polygon class="fil25" points="1115,752 1445,752 1445,989 1115,989 "/>
    <path class="fil32" d="M1241 771l31 0 0 58 -31 0 0 -58zm-100 0l30 0 0 58 -30 0 0 -58zm201 0l30 0 0 58 -30 0 0 -58zm47 0l30 0 0 58 -30 0 0 -58zm30 73l0 51 -30 0 0 -51 30 0zm0 66l0 58 -30 0 0 -58 30 0zm-47 58l-30 0 0 -58 30 0 0 58zm-30 -73l0 -51 30 0 0 51 -30 0zm-154 -124l30 0 0 58 -30 0 0 -58zm30 73l0 51 -30 0 0 -51 30 0zm0 66l0 58 -30 0 0 -58 30 0zm-47 58l-30 0 0 -58 30 0 0 58zm-30 -73l0 -51 30 0 0 51 -30 0zm147 -124l31 0 0 58 -31 0 0 -58zm31 73l0 51 -31 0 0 -51 31 0zm0 66l0 58 -31 0 0 -58 31 0zm-47 58l-31 0 0 -58 31 0 0 58zm-31 -73l0 -51 31 0 0 51 -31 0z"/>
   </g>
   <g id="_1640729991312">
    <polygon class="fil25" points="1115,1195 1445,1195 1445,1432 1115,1432 "/>
    <path class="fil32" d="M1241 1214l31 0 0 58 -31 0 0 -58zm-100 0l30 0 0 58 -30 0 0 -58zm201 0l30 0 0 58 -30 0 0 -58zm47 0l30 0 0 58 -30 0 0 -58zm30 73l0 51 -30 0 0 -51 30 0zm0 66l0 58 -30 0 0 -58 30 0zm-47 58l-30 0 0 -58 30 0 0 58zm-30 -73l0 -51 30 0 0 51 -30 0zm-154 -124l30 0 0 58 -30 0 0 -58zm30 73l0 51 -30 0 0 -51 30 0zm0 66l0 58 -30 0 0 -58 30 0zm-47 58l-30 0 0 -58 30 0 0 58zm-30 -73l0 -51 30 0 0 51 -30 0zm147 -124l31 0 0 58 -31 0 0 -58zm31 73l0 51 -31 0 0 -51 31 0zm0 66l0 58 -31 0 0 -58 31 0zm-47 58l-31 0 0 -58 31 0 0 58zm-31 -73l0 -51 31 0 0 51 -31 0z"/>
   </g>
   <path class="fil23" d="M263 1311l23 0 0 57 -10 0c-5,0 -9,0 -13,2l0 -59z"/>
   <polygon class="fil30" points="863,726 1693,726 1292,223 "/>
   <polygon class="fil33" points="1860,936 1292,223 1528,360 2001,969 "/>
   <polygon class="fil34" points="1860,1649 1860,936 1952,1068 1952,1647 "/>
   <polygon class="fil31" points="1860,936 1952,1068 4912,1068 4792,736 4848,736 4327,313 1449,313 1450,315 1528,360 2001,969 "/>
   <polygon class="fil35" points="3819,1068 3703,1068 3986,701 4098,701 "/>
   <polygon class="fil24" points="3819,1068 4098,701 4489,1068 "/>
   <polygon class="fil25" points="4740,1279 4835,1279 4835,1356 4740,1356 "/>
   <path class="fil32" d="M4462 1090l-41 0 0 48 41 0 0 -48zm-51 0l-17 0 0 48 17 0 0 -48zm-17 58l0 48 17 0 0 -48 -17 0zm27 48l41 0 0 -48 -41 0 0 48z"/>
   <polygon class="fil25" points="3969,1068 4255,1068 4255,1645 3969,1645 "/>
   <path class="fil32" d="M4199 1360l31 0 0 61 -31 0 0 -61zm-204 212l0 -56 31 0 0 56 -31 0zm204 -292l31 0 0 62 -31 0 0 -62zm-204 -60l109 0 0 41 -109 0 0 -41zm126 0l109 0 0 41 -109 0 0 -41zm-126 60l31 0 0 62 -31 0 0 -62zm0 156l31 0 0 62 -31 0 0 -62zm0 -76l31 0 0 61 -31 0 0 -61zm204 156l31 0 0 61 -31 0 0 -61zm0 -80l31 0 0 62 -31 0 0 -62z"/>
   <path class="fil36" d="M3991 1077l245 0 0 119 -247 0 0 -119 2 0zm241 5l-239 0 0 109 239 0 0 -109z"/>
   <polygon class="fil25" points="3122,1401 3218,1401 3218,1462 3122,1462 "/>
   <polygon class="fil30" points="964,609 992,95 972,52 1078,30 1192,103 1170,129 1170,366 "/>
   <polygon class="fil34" points="992,95 1085,90 1085,466 964,609 "/>
   <polygon class="fil30" points="1085,466 1085,90 1170,129 1170,366 "/>
   <polygon class="fil34" points="1216,312 1216,235 1202,192 1314,192 1381,231 1381,275 1292,223 "/>
   <g id="_1640729984368">
    <polygon class="fil25" points="415,1331 618,1331 618,1477 415,1477 "/>
    <path class="fil32" d="M493 1343l19 0 0 35 -19 0 0 -35zm-62 0l19 0 0 35 -19 0 0 -35zm124 0l18 0 0 35 -18 0 0 -35zm29 0l18 0 0 35 -18 0 0 -35zm18 45l0 31 -18 0 0 -31 18 0zm0 40l0 36 -18 0 0 -36 18 0zm-29 36l-18 0 0 -36 18 0 0 36zm-18 -45l0 -31 18 0 0 31 -18 0zm-95 -76l19 0 0 35 -19 0 0 -35zm19 45l0 31 -19 0 0 -31 19 0zm0 40l0 36 -19 0 0 -36 19 0zm-29 36l-19 0 0 -36 19 0 0 36zm-19 -45l0 -31 19 0 0 31 -19 0zm91 -76l19 0 0 35 -19 0 0 -35zm19 45l0 31 -19 0 0 -31 19 0zm0 40l0 36 -19 0 0 -36 19 0zm-29 36l-19 0 0 -36 19 0 0 36zm-19 -45l0 -31 19 0 0 31 -19 0z"/>
   </g>
   <path class="fil37" d="M5080 1649l-697 0 0 16 0 73 16 0 0 -73 44 0 0 73 16 0 0 -73 428 0 0 73 16 0 0 -73 177 0 0 -16zm-1032 16l0 73 -16 0 0 -73 -376 0 0 73 -16 0 0 -73 -408 0 0 73 -16 0 0 -73 -852 0 0 73 -16 0 0 -73 -397 0 0 73 -16 0 0 -73 -397 0 0 73 -16 0 0 -73 -372 0 0 73 -16 0 0 -73 -370 0 0 73 -16 0 0 -73 -349 0 0 73 -16 0 0 -73 -119 0 0 73 -16 0 0 -73 0 -16 16 0 119 0 16 0 349 0 16 0 370 0 16 0 372 0 16 0 397 0 16 0 397 0 16 0 852 0 16 0 800 0 16 0 29 0 16 0 0 16 0 73 -16 0 0 -73 -29 0z"/>
  </g>
 </g>
</svg>
