<?xml version="1.0" encoding="UTF-8"?>
<!DOCTYPE svg PUBLIC "-//W3C//DTD SVG 1.1//EN" "http://www.w3.org/Graphics/SVG/1.1/DTD/svg11.dtd">
<!-- Creator: CorelDRAW X8 -->
<svg xmlns="http://www.w3.org/2000/svg" xml:space="preserve" width="4.83881in" height="1.63378in" version="1.1" style="shape-rendering:geometricPrecision; text-rendering:geometricPrecision; image-rendering:optimizeQuality; fill-rule:evenodd; clip-rule:evenodd"
viewBox="0 0 5406 1825"
 xmlns:xlink="http://www.w3.org/1999/xlink">
 <defs>
  <style type="text/css">
   <![CDATA[
    .fil10 {fill:none}
    .fil14 {fill:#1B1F25}
    .fil12 {fill:#222429}
    .fil9 {fill:#313439}
    .fil11 {fill:#526865}
    .fil7 {fill:#5A2E25}
    .fil8 {fill:#7F3C2C}
    .fil2 {fill:#883D2A}
    .fil6 {fill:#883D2A}
    .fil16 {fill:#949FA3}
    .fil4 {fill:#A0B3BA}
    .fil13 {fill:#A1553F}
    .fil1 {fill:#AF6351}
    .fil3 {fill:#B1C4CB}
    .fil15 {fill:#526865;fill-rule:nonzero}
    .fil5 {fill:#883D2A;fill-rule:nonzero}
    .fil0 {fill:black;fill-opacity:0.090196}
   ]]>
  </style>
 </defs>
 <g id="Layer_x0020_1">
  <metadata id="CorelCorpID_0Corel-Layer"/>
  <g id="_1676882476272">
   <path class="fil0" d="M2703 1525c1493,0 2703,67 2703,150 0,83 -1210,150 -2703,150 -1493,0 -2703,-67 -2703,-150 0,-83 1210,-150 2703,-150z"/>
   <polygon class="fil1" points="1979,1069 4967,1069 4967,1663 1979,1663 "/>
   <polygon class="fil2" points="3954,1069 4495,1069 4495,1658 3954,1658 "/>
   <polygon class="fil1" points="4967,1069 4495,1069 4495,1658 4967,1658 "/>
   <polygon class="fil3" points="4602,1069 4495,1069 4495,1379 4602,1379 "/>
   <polygon class="fil4" points="4602,1255 4495,1255 4495,1379 4602,1379 "/>
   <g>
    <polygon class="fil2" points="4473,1443 4658,1443 4874,1663 4448,1663 "/>
    <polygon class="fil5" points="4445,1329 4687,1329 4824,1466 4824,1663 4812,1663 4812,1471 4683,1341 4445,1341 "/>
    <polygon class="fil6" points="4505,1333 4510,1333 4510,1647 4505,1647 "/>
    <polygon class="fil6" points="4521,1333 4526,1333 4526,1647 4521,1647 "/>
    <polygon class="fil6" points="4537,1333 4542,1333 4542,1647 4537,1647 "/>
    <polygon class="fil6" points="4553,1333 4558,1333 4558,1647 4553,1647 "/>
    <polygon class="fil6" points="4569,1333 4574,1333 4574,1647 4569,1647 "/>
    <polygon class="fil6" points="4585,1333 4590,1333 4590,1647 4585,1647 "/>
    <polygon class="fil6" points="4601,1333 4606,1333 4606,1647 4601,1647 "/>
    <polygon class="fil6" points="4617,1333 4622,1333 4622,1647 4617,1647 "/>
    <polygon class="fil6" points="4633,1333 4638,1333 4638,1647 4633,1647 "/>
    <polygon class="fil6" points="4649,1333 4654,1333 4654,1647 4649,1647 "/>
    <polygon class="fil6" points="4665,1333 4670,1333 4670,1647 4665,1647 "/>
    <polygon class="fil6" points="4681,1333 4686,1333 4686,1647 4681,1647 "/>
    <polygon class="fil6" points="4697,1352 4702,1352 4702,1647 4697,1647 "/>
    <polygon class="fil6" points="4713,1364 4718,1364 4718,1647 4713,1647 "/>
    <polygon class="fil6" points="4729,1382 4734,1382 4734,1647 4729,1647 "/>
    <polygon class="fil6" points="4745,1398 4750,1398 4750,1647 4745,1647 "/>
    <polygon class="fil6" points="4761,1412 4766,1412 4766,1647 4761,1647 "/>
    <polygon class="fil6" points="4777,1431 4782,1431 4782,1647 4777,1647 "/>
    <polygon class="fil6" points="4793,1447 4798,1447 4798,1647 4793,1647 "/>
   </g>
   <path class="fil7" d="M2443 1583l22 0 0 30 10 0 0 -30 23 0 0 30 11 0 0 -30 23 0 0 30 11 0 0 -30 23 0 0 30 10 0 0 -30 24 0 0 30 10 0 0 -30 24 0 0 30 10 0 0 -30 23 0 0 30 11 0 0 -30 23 0 0 30 11 0 0 -30 23 0 0 30 10 0 0 -30 24 0 0 30 10 0 0 -30 24 0 0 30 10 0 0 -30 23 0 0 30 11 0 0 -30 23 0 0 30 11 0 0 -30 23 0 0 30 10 0 0 -30 24 0 0 30 10 0 0 -30 24 0 0 30 10 0 0 -30 23 0 0 30 11 0 0 -30 22 0 22 0 0 30 10 0 0 -30 23 0 0 30 11 0 0 -30 23 0 0 30 11 0 0 -30 23 0 0 30 11 0 0 -30 23 0 0 30 10 0 0 -30 24 0 0 30 10 0 0 -30 23 0 0 30 11 0 0 -30 23 0 0 30 11 0 0 -30 23 0 0 30 11 0 0 -30 23 0 0 30 10 0 0 -30 24 0 0 30 10 0 0 -30 23 0 0 30 11 0 0 -30 23 0 0 30 11 0 0 -30 23 0 0 30 11 0 0 -30 23 0 0 30 10 0 0 -30 24 0 0 30 10 0 0 -30 23 0 0 30 11 0 0 -30 22 0 22 0 0 30 10 0 0 -30 23 0 0 30 11 0 0 -30 23 0 0 30 11 0 0 -30 23 0 0 30 11 0 0 -30 23 0 0 30 10 0 0 -30 24 0 0 30 10 0 0 -30 23 0 0 30 11 0 0 -30 23 0 0 30 11 0 0 -30 23 0 0 30 11 0 0 -30 23 0 0 30 10 0 0 -30 24 0 0 30 10 0 0 -30 23 0 0 30 0 10 0 30 0 10 0 31 0 10 0 30 -23 0 0 -30 -10 0 0 30 -24 0 0 -30 -10 0 0 30 -23 0 0 -30 -11 0 0 30 -23 0 0 -30 -11 0 0 30 -23 0 0 -30 -11 0 0 30 -23 0 0 -30 -10 0 0 30 -24 0 0 -30 -10 0 0 30 -23 0 0 -30 -11 0 0 30 -23 0 0 -30 -11 0 0 30 -23 0 0 -30 -11 0 0 30 -23 0 0 -30 -10 0 0 30 -22 0 -22 0 0 -30 -11 0 0 30 -23 0 0 -30 -10 0 0 30 -24 0 0 -30 -10 0 0 30 -23 0 0 -30 -11 0 0 30 -23 0 0 -30 -11 0 0 30 -23 0 0 -30 -11 0 0 30 -23 0 0 -30 -10 0 0 30 -24 0 0 -30 -10 0 0 30 -23 0 0 -30 -11 0 0 30 -23 0 0 -30 -11 0 0 30 -23 0 0 -30 -11 0 0 30 -23 0 0 -30 -10 0 0 30 -24 0 0 -30 -10 0 0 30 -23 0 0 -30 -11 0 0 30 -23 0 0 -30 -11 0 0 30 -23 0 0 -30 -11 0 0 30 -23 0 0 -30 -10 0 0 30 -22 0 -22 0 0 -30 -11 0 0 30 -23 0 0 -30 -10 0 0 30 -24 0 0 -30 -10 0 0 30 -24 0 0 -30 -10 0 0 30 -23 0 0 -30 -11 0 0 30 -23 0 0 -30 -11 0 0 30 -23 0 0 -30 -10 0 0 30 -24 0 0 -30 -10 0 0 30 -24 0 0 -30 -10 0 0 30 -23 0 0 -30 -11 0 0 30 -23 0 0 -30 -11 0 0 30 -23 0 0 -30 -10 0 0 30 -24 0 0 -30 -10 0 0 30 -24 0 0 -30 -10 0 0 30 -23 0 0 -30 -11 0 0 30 -23 0 0 -30 -11 0 0 30 -23 0 0 -30 -10 0 0 30 -22 0 0 -30 0 -10 0 -31 0 -10 0 -30 0 -10 0 -30zm2451 -33l22 0 0 30 11 0 0 -30 23 0 0 30 11 0 0 -30 23 0 0 30 10 0 0 -30 24 0 0 30 10 0 0 -30 24 0 0 30 10 0 0 -30 23 0 0 30 11 0 0 -30 23 0 0 30 11 0 0 -30 23 0 0 30 10 0 0 -30 19 0 0 151 -19 0 0 -30 -10 0 0 30 -23 0 0 -30 -11 0 0 30 -23 0 0 -30 -11 0 0 30 -23 0 0 -30 -10 0 0 23 0 10 0 30 -22 0 0 -30 -10 0 0 30 -23 0 0 -30 -11 0 0 30 -23 0 0 -30 -11 0 0 30 -23 0 0 -30 -10 0 0 30 -24 0 0 -30 -10 0 0 30 -24 0 0 -30 -10 0 0 30 -23 0 0 -30 -11 0 0 30 -23 0 0 -30 -11 0 0 30 -23 0 0 -30 -10 0 0 30 -24 0 0 -30 -10 0 0 30 -24 0 0 -30 -10 0 0 30 -23 0 0 -30 -11 0 0 30 -23 0 0 -30 -11 0 0 30 -23 0 0 -30 -10 0 0 30 -24 0 0 -30 -10 0 0 30 -24 0 0 -30 -10 0 0 30 -23 0 0 -30 -11 0 0 30 -22 0 0 -30 0 -10 0 -31 0 -10 0 -30 0 -10 0 -30 22 0 0 30 11 0 0 -30 23 0 0 30 10 0 0 -30 24 0 0 30 10 0 0 -30 24 0 0 30 10 0 0 -30 23 0 0 30 11 0 0 -30 23 0 0 30 11 0 0 -30 23 0 0 30 10 0 0 -30 24 0 0 30 10 0 0 -30 24 0 0 30 10 0 0 -30 23 0 0 30 11 0 0 -30 23 0 0 30 11 0 0 -30 23 0 0 30 10 0 0 -30 24 0 0 30 9 0 0 -23 0 -10 0 -30zm134 144l0 -23 -8 0 0 23 8 0zm-34 0l0 -23 -8 0 0 23 8 0zm-33 0l0 -23 -9 0 0 23 9 0zm-34 0l0 -23 -8 0 0 23 8 0zm-33 0l0 -23 0 -8 -9 0 0 31 9 0zm0 -41l0 -23 0 -7 -9 0 0 30 9 0zm33 -40l0 -23 -8 0 0 23 8 0zm34 0l0 -23 -9 0 0 23 9 0zm33 0l0 -23 -8 0 0 23 8 0zm34 0l0 -23 -8 0 0 23 8 0zm24 7l10 0 0 -30 -10 0 0 23 0 7zm33 -30l0 30 11 0 0 -30 -11 0zm34 0l0 30 11 0 0 -30 -11 0zm34 0l0 30 10 0 0 -30 -10 0zm10 71l0 -31 -10 0 0 31 10 0zm-33 0l0 -31 -11 0 0 31 11 0zm-34 0l0 -31 -11 0 0 31 11 0zm-34 0l0 -31 -10 0 0 23 0 8 10 0zm-34 -8l0 -23 -8 0 0 23 8 0zm-34 0l0 -23 -8 0 0 23 8 0zm-33 0l0 -23 -9 0 0 23 9 0zm-34 0l0 -23 -8 0 0 23 8 0zm-448 -30l0 30 11 0 0 -30 -11 0zm34 0l0 30 10 0 0 -30 -10 0zm34 0l0 30 10 0 0 -30 -10 0zm34 0l0 30 10 0 0 -30 -10 0zm33 0l0 30 11 0 0 -30 -11 0zm34 0l0 30 11 0 0 -30 -11 0zm34 0l0 30 10 0 0 -30 -10 0zm34 0l0 30 10 0 0 -30 -10 0zm34 0l0 30 10 0 0 -30 -10 0zm33 0l0 30 11 0 0 -30 -11 0zm34 0l0 30 11 0 0 -30 -11 0zm34 0l0 30 10 0 0 -30 -10 0zm10 71l0 -31 -10 0 0 31 10 0zm-33 0l0 -31 -11 0 0 31 11 0zm-34 0l0 -31 -11 0 0 31 11 0zm-34 0l0 -31 -10 0 0 31 10 0zm-34 0l0 -31 -10 0 0 31 10 0zm-34 0l0 -31 -10 0 0 31 10 0zm-33 0l0 -31 -11 0 0 31 11 0zm-34 0l0 -31 -11 0 0 31 11 0zm-34 0l0 -31 -10 0 0 31 10 0zm-34 0l0 -31 -10 0 0 31 10 0zm-34 0l0 -31 -10 0 0 31 10 0zm-33 0l0 -31 -11 0 0 31 11 0zm-835 -71l0 30 10 0 0 -30 -10 0zm33 0l0 30 11 0 0 -30 -11 0zm34 0l0 30 11 0 0 -30 -11 0zm34 0l0 30 11 0 0 -30 -11 0zm34 0l0 30 10 0 0 -30 -10 0zm34 0l0 30 10 0 0 -30 -10 0zm33 0l0 30 11 0 0 -30 -11 0zm34 0l0 30 11 0 0 -30 -11 0zm34 0l0 30 11 0 0 -30 -11 0zm34 0l0 30 10 0 0 -30 -10 0zm34 0l0 30 10 0 0 -30 -10 0zm10 71l0 -31 -10 0 0 31 10 0zm-34 0l0 -31 -10 0 0 31 10 0zm-33 0l0 -31 -11 0 0 31 11 0zm-34 0l0 -31 -11 0 0 31 11 0zm-34 0l0 -31 -11 0 0 31 11 0zm-34 0l0 -31 -10 0 0 31 10 0zm-34 0l0 -31 -10 0 0 31 10 0zm-33 0l0 -31 -11 0 0 31 11 0zm-34 0l0 -31 -11 0 0 31 11 0zm-34 0l0 -31 -11 0 0 31 11 0zm-34 0l0 -31 -10 0 0 31 10 0zm-605 -71l0 30 10 0 0 -30 -10 0zm33 0l0 30 11 0 0 -30 -11 0zm34 0l0 30 11 0 0 -30 -11 0zm34 0l0 30 11 0 0 -30 -11 0zm34 0l0 30 10 0 0 -30 -10 0zm34 0l0 30 10 0 0 -30 -10 0zm33 0l0 30 11 0 0 -30 -11 0zm34 0l0 30 11 0 0 -30 -11 0zm34 0l0 30 11 0 0 -30 -11 0zm34 0l0 30 10 0 0 -30 -10 0zm34 0l0 30 10 0 0 -30 -10 0zm33 0l0 30 11 0 0 -30 -11 0zm34 0l0 30 11 0 0 -30 -11 0zm34 0l0 30 11 0 0 -30 -11 0zm34 0l0 30 10 0 0 -30 -10 0zm34 0l0 30 10 0 0 -30 -10 0zm33 0l0 30 11 0 0 -30 -11 0zm11 71l0 -31 -11 0 0 31 11 0zm-34 0l0 -31 -10 0 0 31 10 0zm-34 0l0 -31 -10 0 0 31 10 0zm-33 0l0 -31 -11 0 0 31 11 0zm-34 0l0 -31 -11 0 0 31 11 0zm-34 0l0 -31 -11 0 0 31 11 0zm-34 0l0 -31 -10 0 0 31 10 0zm-34 0l0 -31 -10 0 0 31 10 0zm-33 0l0 -31 -11 0 0 31 11 0zm-34 0l0 -31 -11 0 0 31 11 0zm-34 0l0 -31 -11 0 0 31 11 0zm-34 0l0 -31 -10 0 0 31 10 0zm-34 0l0 -31 -10 0 0 31 10 0zm-33 0l0 -31 -11 0 0 31 11 0zm-34 0l0 -31 -11 0 0 31 11 0zm-34 0l0 -31 -11 0 0 31 11 0zm-34 0l0 -31 -10 0 0 31 10 0zm-605 -71l0 30 10 0 0 -30 -10 0zm33 0l0 30 11 0 0 -30 -11 0zm34 0l0 30 11 0 0 -30 -11 0zm34 0l0 30 10 0 0 -30 -10 0zm34 0l0 30 10 0 0 -30 -10 0zm34 0l0 30 10 0 0 -30 -10 0zm33 0l0 30 11 0 0 -30 -11 0zm34 0l0 30 11 0 0 -30 -11 0zm34 0l0 30 10 0 0 -30 -10 0zm34 0l0 30 10 0 0 -30 -10 0zm34 0l0 30 10 0 0 -30 -10 0zm33 0l0 30 11 0 0 -30 -11 0zm34 0l0 30 11 0 0 -30 -11 0zm34 0l0 30 10 0 0 -30 -10 0zm34 0l0 30 10 0 0 -30 -10 0zm34 0l0 30 10 0 0 -30 -10 0zm33 0l0 30 11 0 0 -30 -11 0zm11 71l0 -31 -11 0 0 31 11 0zm-34 0l0 -31 -10 0 0 31 10 0zm-34 0l0 -31 -10 0 0 31 10 0zm-34 0l0 -31 -10 0 0 31 10 0zm-33 0l0 -31 -11 0 0 31 11 0zm-34 0l0 -31 -11 0 0 31 11 0zm-34 0l0 -31 -10 0 0 31 10 0zm-34 0l0 -31 -10 0 0 31 10 0zm-34 0l0 -31 -10 0 0 31 10 0zm-33 0l0 -31 -11 0 0 31 11 0zm-34 0l0 -31 -11 0 0 31 11 0zm-34 0l0 -31 -10 0 0 31 10 0zm-34 0l0 -31 -10 0 0 31 10 0zm-34 0l0 -31 -10 0 0 31 10 0zm-33 0l0 -31 -11 0 0 31 11 0zm-34 0l0 -31 -11 0 0 31 11 0zm-34 0l0 -31 -10 0 0 31 10 0z"/>
   <polygon class="fil1" points="240,1234 737,1234 737,1667 240,1667 "/>
   <polygon class="fil8" points="737,909 694,909 1300,199 1885,933 1885,1667 737,1667 "/>
   <polygon class="fil9" points="737,909 737,1263 158,1263 716,937 716,925 652,925 652,909 "/>
   <polygon class="fil10" points="1555,817 1843,817 1843,1024 1555,1024 "/>
   <g>
    <polygon class="fil3" points="2122,1069 2462,1069 2462,1313 2122,1313 "/>
    <path class="fil11" d="M2252 1088l31 0 0 59 -31 0 0 -59zm-104 0l32 0 0 59 -32 0 0 -59zm207 0l32 0 0 59 -32 0 0 -59zm49 0l31 0 0 59 -31 0 0 -59zm31 75l0 52 -31 0 0 -52 31 0zm0 68l0 59 -31 0 0 -59 31 0zm-48 59l-32 0 0 -59 32 0 0 59zm-32 -75l0 -52 32 0 0 52 -32 0zm-158 -127l31 0 0 59 -31 0 0 -59zm31 75l0 52 -31 0 0 -52 31 0zm0 68l0 59 -31 0 0 -59 31 0zm-48 59l-32 0 0 -59 32 0 0 59zm-32 -75l0 -52 32 0 0 52 -32 0zm153 -127l31 0 0 59 -31 0 0 -59zm31 75l0 52 -31 0 0 -52 31 0zm0 68l0 59 -31 0 0 -59 31 0zm-49 59l-31 0 0 -59 31 0 0 59zm-31 -75l0 -52 31 0 0 52 -31 0z"/>
   </g>
   <g>
    <polygon class="fil3" points="3045,1069 3385,1069 3385,1313 3045,1313 "/>
    <path class="fil11" d="M3175 1088l31 0 0 59 -31 0 0 -59zm-104 0l32 0 0 59 -32 0 0 -59zm208 0l31 0 0 59 -31 0 0 -59zm48 0l32 0 0 59 -32 0 0 -59zm32 75l0 52 -32 0 0 -52 32 0zm0 68l0 59 -32 0 0 -59 32 0zm-49 59l-31 0 0 -59 31 0 0 59zm-31 -75l0 -52 31 0 0 52 -31 0zm-159 -127l31 0 0 59 -31 0 0 -59zm31 75l0 52 -31 0 0 -52 31 0zm0 68l0 59 -31 0 0 -59 31 0zm-48 59l-32 0 0 -59 32 0 0 59zm-32 -75l0 -52 32 0 0 52 -32 0zm153 -127l31 0 0 59 -31 0 0 -59zm31 75l0 52 -31 0 0 -52 31 0zm0 68l0 59 -31 0 0 -59 31 0zm-49 59l-31 0 0 -59 31 0 0 59zm-31 -75l0 -52 31 0 0 52 -31 0z"/>
   </g>
   <g>
    <polygon class="fil3" points="2609,1069 2950,1069 2950,1313 2609,1313 "/>
    <path class="fil11" d="M2739 1088l32 0 0 59 -32 0 0 -59zm-103 0l31 0 0 59 -31 0 0 -59zm207 0l31 0 0 59 -31 0 0 -59zm49 0l31 0 0 59 -31 0 0 -59zm31 75l0 52 -31 0 0 -52 31 0zm0 68l0 59 -31 0 0 -59 31 0zm-49 59l-31 0 0 -59 31 0 0 59zm-31 -75l0 -52 31 0 0 52 -31 0zm-159 -127l32 0 0 59 -32 0 0 -59zm32 75l0 52 -32 0 0 -52 32 0zm0 68l0 59 -32 0 0 -59 32 0zm-49 59l-31 0 0 -59 31 0 0 59zm-31 -75l0 -52 31 0 0 52 -31 0zm152 -127l31 0 0 59 -31 0 0 -59zm31 75l0 52 -31 0 0 -52 31 0zm0 68l0 59 -31 0 0 -59 31 0zm-48 59l-32 0 0 -59 32 0 0 59zm-32 -75l0 -52 32 0 0 52 -32 0z"/>
   </g>
   <g>
    <polygon class="fil3" points="3532,1069 3873,1069 3873,1313 3532,1313 "/>
    <path class="fil11" d="M3663 1088l31 0 0 59 -31 0 0 -59zm-104 0l31 0 0 59 -31 0 0 -59zm207 0l32 0 0 59 -32 0 0 -59zm49 0l31 0 0 59 -31 0 0 -59zm31 75l0 52 -31 0 0 -52 31 0zm0 68l0 59 -31 0 0 -59 31 0zm-48 59l-32 0 0 -59 32 0 0 59zm-32 -75l0 -52 32 0 0 52 -32 0zm-158 -127l31 0 0 59 -31 0 0 -59zm31 75l0 52 -31 0 0 -52 31 0zm0 68l0 59 -31 0 0 -59 31 0zm-49 59l-31 0 0 -59 31 0 0 59zm-31 -75l0 -52 31 0 0 52 -31 0zm152 -127l32 0 0 59 -32 0 0 -59zm32 75l0 52 -32 0 0 -52 32 0zm0 68l0 59 -32 0 0 -59 32 0zm-49 59l-31 0 0 -59 31 0 0 59zm-31 -75l0 -52 31 0 0 52 -31 0z"/>
   </g>
   <g>
    <polygon class="fil3" points="1117,744 1458,744 1458,988 1117,988 "/>
    <path class="fil11" d="M1247 763l32 0 0 59 -32 0 0 -59zm-103 0l31 0 0 59 -31 0 0 -59zm207 0l31 0 0 59 -31 0 0 -59zm49 0l31 0 0 59 -31 0 0 -59zm31 75l0 52 -31 0 0 -52 31 0zm0 68l0 59 -31 0 0 -59 31 0zm-49 59l-31 0 0 -59 31 0 0 59zm-31 -75l0 -52 31 0 0 52 -31 0zm-159 -127l32 0 0 59 -32 0 0 -59zm32 75l0 52 -32 0 0 -52 32 0zm0 68l0 59 -32 0 0 -59 32 0zm-49 59l-31 0 0 -59 31 0 0 59zm-31 -75l0 -52 31 0 0 52 -31 0zm152 -127l31 0 0 59 -31 0 0 -59zm31 75l0 52 -31 0 0 -52 31 0zm0 68l0 59 -31 0 0 -59 31 0zm-48 59l-32 0 0 -59 32 0 0 59zm-32 -75l0 -52 32 0 0 52 -32 0z"/>
   </g>
   <g>
    <polygon class="fil3" points="1117,1200 1458,1200 1458,1444 1117,1444 "/>
    <path class="fil11" d="M1247 1219l32 0 0 60 -32 0 0 -60zm-103 0l31 0 0 60 -31 0 0 -60zm207 0l31 0 0 60 -31 0 0 -60zm49 0l31 0 0 60 -31 0 0 -60zm31 75l0 53 -31 0 0 -53 31 0zm0 68l0 60 -31 0 0 -60 31 0zm-49 60l-31 0 0 -60 31 0 0 60zm-31 -75l0 -53 31 0 0 53 -31 0zm-159 -128l32 0 0 60 -32 0 0 -60zm32 75l0 53 -32 0 0 -53 32 0zm0 68l0 60 -32 0 0 -60 32 0zm-49 60l-31 0 0 -60 31 0 0 60zm-31 -75l0 -53 31 0 0 53 -31 0zm152 -128l31 0 0 60 -31 0 0 -60zm31 75l0 53 -31 0 0 -53 31 0zm0 68l0 60 -31 0 0 -60 31 0zm-48 60l-32 0 0 -60 32 0 0 60zm-32 -75l0 -53 32 0 0 53 -32 0z"/>
   </g>
   <path class="fil1" d="M240 1320l24 0 0 58 -11 0c-4,0 -9,0 -13,2l0 -60z"/>
   <polygon class="fil8" points="858,717 1713,717 1300,199 "/>
   <polygon class="fil12" points="1885,933 1300,199 1542,340 2030,967 "/>
   <polygon class="fil13" points="1885,1667 1885,933 1979,1069 1979,1665 "/>
   <polygon class="fil9" points="1885,933 1979,1069 5029,1069 4904,727 4962,727 4426,291 1461,291 1463,293 1542,340 2030,967 "/>
   <polygon class="fil14" points="3902,1069 3782,1069 4075,691 4190,691 "/>
   <polygon class="fil2" points="3902,1069 4190,691 4593,1069 "/>
   <polygon class="fil3" points="4851,1286 4949,1286 4949,1365 4851,1365 "/>
   <path class="fil11" d="M4565 1092l-42 0 0 49 42 0 0 -49zm-53 0l-17 0 0 49 17 0 0 -49zm-17 60l0 49 17 0 0 -49 -17 0zm28 49l42 0 0 -49 -42 0 0 49z"/>
   <polygon class="fil3" points="4057,1069 4352,1069 4352,1663 4057,1663 "/>
   <path class="fil11" d="M4294 1370l32 0 0 63 -32 0 0 -63zm-210 218l0 -58 32 0 0 58 -32 0zm210 -300l32 0 0 63 -32 0 0 -63zm-210 -62l112 0 0 42 -112 0 0 -42zm129 0l113 0 0 42 -113 0 0 -42zm-129 62l32 0 0 63 -32 0 0 -63zm0 160l32 0 0 64 -32 0 0 -64zm0 -78l32 0 0 63 -32 0 0 -63zm210 160l32 0 0 64 -32 0 0 -64zm0 -82l32 0 0 64 -32 0 0 -64z"/>
   <path class="fil15" d="M4079 1079l253 0 0 121 -255 0 0 -121 2 0zm249 4l-246 0 0 113 246 0 0 -113z"/>
   <polygon class="fil3" points="3184,1412 3283,1412 3283,1475 3184,1475 "/>
   <polygon class="fil8" points="961,596 990,66 970,22 1079,0 1196,75 1174,102 1174,346 "/>
   <polygon class="fil13" points="990,66 1087,62 1087,449 961,596 "/>
   <polygon class="fil8" points="1087,449 1087,62 1174,102 1174,346 "/>
   <polygon class="fil13" points="1222,290 1222,211 1207,166 1323,166 1391,207 1391,252 1300,199 "/>
   <g>
    <polygon class="fil3" points="396,1340 606,1340 606,1490 396,1490 "/>
    <path class="fil11" d="M477 1352l19 0 0 37 -19 0 0 -37zm-64 0l19 0 0 37 -19 0 0 -37zm127 0l19 0 0 37 -19 0 0 -37zm30 0l19 0 0 37 -19 0 0 -37zm19 46l0 32 -19 0 0 -32 19 0zm0 42l0 36 -19 0 0 -36 19 0zm-30 36l-19 0 0 -36 19 0 0 36zm-19 -46l0 -32 19 0 0 32 -19 0zm-97 -78l19 0 0 37 -19 0 0 -37zm19 46l0 32 -19 0 0 -32 19 0zm0 42l0 36 -19 0 0 -36 19 0zm-30 36l-19 0 0 -36 19 0 0 36zm-19 -46l0 -32 19 0 0 32 -19 0zm93 -78l20 0 0 37 -20 0 0 -37zm20 46l0 32 -20 0 0 -32 20 0zm0 42l0 36 -20 0 0 -36 20 0zm-30 36l-19 0 0 -36 19 0 0 36zm-19 -46l0 -32 19 0 0 32 -19 0z"/>
   </g>
   <path class="fil16" d="M5201 1667l-718 0 0 17 0 75 17 0 0 -75 45 0 0 75 16 0 0 -75 441 0 0 75 17 0 0 -75 182 0 0 -17zm-1063 17l0 75 -17 0 0 -75 -386 0 0 75 -17 0 0 -75 -420 0 0 75 -17 0 0 -75 -877 0 0 75 -16 0 0 -75 -410 0 0 75 -16 0 0 -75 -409 0 0 75 -16 0 0 -75 -384 0 0 75 -16 0 0 -75 -381 0 0 75 -17 0 0 -75 -359 0 0 75 -17 0 0 -75 -122 0 0 75 -17 0 0 -75 0 -17 17 0 122 0 17 0 359 0 17 0 381 0 16 0 384 0 16 0 409 0 16 0 410 0 16 0 877 0 17 0 823 0 17 0 30 0 16 0 0 17 0 75 -16 0 0 -75 -30 0z"/>
  </g>
 </g>
</svg>
